<mxfile host="app.diagrams.net" modified="2022-01-29T12:51:07.720Z" agent="5.0 (X11; Linux x86_64) AppleWebKit/537.36 (KHTML, like Gecko) Chrome/96.0.4664.113 Safari/537.36" etag="sWRH3hotaKZQKNmGMYHn" version="16.5.1" type="github">
  <diagram id="C2svemTcfUZsmS1EiCvQ" name="Adherence">
    <mxGraphModel dx="4211" dy="1416" grid="1" gridSize="10" guides="1" tooltips="1" connect="1" arrows="1" fold="1" page="1" pageScale="1" pageWidth="1700" pageHeight="1100" math="0" shadow="0">
      <root>
        <mxCell id="0" />
        <mxCell id="1" parent="0" />
        <mxCell id="vaTgJTLyDpVTGSEm01bZ-1" value="" style="shape=image;verticalLabelPosition=bottom;labelBackgroundColor=default;verticalAlign=top;aspect=fixed;imageAspect=0;image=data:image/png,iVBORw0KGgoAAAANSUhEUgAAAncAAAIOCAYAAADa5ytrAAAABHNCSVQICAgIfAhkiAAAABl0RVh0U29mdHdhcmUAZ25vbWUtc2NyZWVuc2hvdO8Dvz4AAAAtdEVYdENyZWF0aW9uIFRpbWUAU2F0IDI5IEphbiAyMDIyIDAxOjU0OjI1IFBNICswNyg6xocAACAASURBVHic7N15fBNl4j/wzyRp07ulhZZCW26QSw5F0Z+i63p+cdHddXVF3e963+u6iqLCCqy6K6J+FRREEV2heMtyLiggIqjccsnRFihX6d2mbdommef3R5JJJlfTNmna6ef9elWbyTMzz0yn4dPnmecZSQghQERERESaoIt0BYiIiIgodBjuiIiIiDSE4Y6IiIhIQxjuiIiIiDSE4Y6IiIhIQxjuiIiIiDSE4Y6IiIhIQxjuiIiIiDSE4Y6IiIhIQxjuiIiIiDSE4Y6IiIhIQxjuiIiIiDSE4Y6IiIhIQxjuiIiIiDSE4Y6IiIhIQxjuiIiIiDSE4Y6IiIhIQxjuiIiIiDSE4Y6IiIhIQxjuiIiIiDSE4Y6IiIhIQxjuiIiIiDSE4Y6IiIhIQxjuiIiIiDSE4Y6IiIhIQxjuiIiIiDSE4Y6IiIhIQxjuiIiIiDSE4Y6IiIhIQxjuiIiIiDSE4Y6IiIhIQxjuiIiIiDSE4Y6IiIhIQxjuiIiIiDSE4Y6IiIhIQxjuiIiIiDSE4Y6IiIhIQxjuiIiIiDSE4Y6IiIhIQxjuiIiIiDTEEOkKtBfHjx/HyZMnfb43fPhwJCUlBVxfCIEtW7b4fC85ORnDhg3zuZ/Y2FiMHj26yfpt2bIFQgjldb9+/dC9e3dVGavVioMHDyIvLw8mkwmNjY0+txUVFYXExET0798fQ4YMgV6v97vf8vJyHDp0CMXFxSgvL4csy15lYmJiEBsbi6ysLAwaNAjJycleZVp63P7Wb66LLroIOl3r/5aprKzE/v37vZZnZWWhV69eTa4f6DjOOeccpKWlBb1uXFwcRo0aBQAoLi7GkSNHmty/p9jYWKSmpqJXr16QJKnZ63sKxTV49OhRnD59ulX1GDt2LPR6fYuuG51Oh5ycHPTo0cPrnITqOgzXdeApmN9fADAajUhOTsagQYMwcOBA1Xuh+nmcPHkybJ99gYSr/sEIdC0F0prPmYqKChw4cEC17MILL4TBYP/nPlzXXqT26y4U17tmCBJCCDF58mQBwOfXY4891uT6ubm5fte//PLL/e7nnHPOCap+MTExqvXmzZunen/27NkiPT3dbx38fWVmZorFixd77a+goEBMnDhRGI3GZm3PYDCI6667Thw+fDjg+Q32uP2t39yvmpqaZu3PnzvvvNPn9gcOHCgsFkurjuOCCy4Q9fX1Qa87bNgw5b0PPvigVecnNTVVPP/886K8vLzF5yZU1+Bf//rXVh0LAFFZWdnk+W7qKzk5WcyZM0fIshzUz68512G4rgOnlv7+Oq/ltWvXhvznEa7PvqaEq/6tvZYCac3nzIoVK7zWKy0tVd4P17UXqf0KEdrrXSvYLRuEuXPn4ujRo37fb2xsxJQpU9qwRmqbN2/Go48+iuLi4mave+bMGdx55504duyYsqyurg433HADcnNz0dDQ0KztWa1WrF69GldeeSXq6+ubXZ/2bP/+/fjwww99vnf48GHMnz+/VdvfunUrHnnkkVZto6XKy8sxffp03HjjjapWkmCF+hpsD6qqqvDII4/gq6++atP9tvY6aM3vL2C/lm+66SaUlpa2uA6k1pxrKdyfM4FE6jOoNfvl9e4bw10QGhsbMXXqVL/vv/POOygoKGjDGqm99957XssSEhIwevRonH/++aqvYcOGISEhQVW2sbERn332mfJ61qxZ2Lt3b6vqVFhYiLVr17ZqG+3N5MmT/TbzA8D06dNhMplatY/33nsvrB/eTfnuu+/w6aefNnu9UF+D7ck777zT5vtszXUQit/f6upqfPDBB63aBnkL5lpqi8+ZQCL1GdTS/fJ694333PkRHR2tul8oNzcXTz75JEaOHKkqZzKZ8I9//EO1LCoqChaLpU3qCdhbPtyde+652Llzp9976WpqajBgwAAUFRUpy86ePat8v3HjRq91LrroItx1113Iycnx2m5ZWRk2bdqEOXPmqJafOnWq2ccSrP79++PHH38Munx8fHyr9rdp0yasWLFCteyxxx7D7NmzlQ/i4uJizJw50+t6aKpe9fX1sNlsyrJHH30U5557LsaOHduqOi9dutTve0IIlJWVYcmSJVi3bp3qvV27duGWW25p1r5CeQ3efffduPzyy73WWb58ORYsWKC8TkxMxEcffeRz+/5+3j179sRbb73l8z1ZllFaWoqZM2ciLy9PWR6oRTFU12EorwNfv78vvfQSbr/9dqSlpXn9TCorK7F7927ceuutqKioUJYXFhYCCO/Poy2Eq/6hvpaA8H3OBBLOz6C22G+or3etYLjz47LLLkNRUZHyF4EQApMnT8Z///tfVblZs2ahpKREeR0XF4eJEyf6bMkIF/dfDsAeTGtra/0OAklISMCyZctQXV2tLMvKylK+dz8eAMjIyMCGDRtgNBr91uHmm2/GmjVrVN3XZWVlzTqO5jAYDAFvwA21p556SvW6X79+mDVrFsrKyrBo0SJl+WuvvYYHHngAPXv2DGq72dnZuOuuu1Tbb2xsxE033YQdO3YgIyOjxXW+4YYbmixzxx13oG/fvqog3pJW6FBeg8OGDVMGILnz/IfRaDQGdYzuEhMTg1rnvvvuU753r6OnUF2HobwOPH9/R4wYgWeeecZv+YyMDFxzzTWYMmWKqgXE+TMI18+joaEBhw4darJcoFasYISr/qG+loDwfc4EEs7PoLbYb6ivd61guPNDr9dj1qxZuOaaa5Rla9aswbp16/DrX/8agL2l4dVXX1WtN2nSpJCMOmyOHj16qF5v374d3bp1Q/fu3RETEwO9Xg8hBHQ6HfR6PaKjo5GYmIiePXvi3HPPxR/+8Af06dNHWd+z1XHs2LEBg53T4cOHQ3NAQTh16hRuvfXWoMredtttuP7661u8ry+//NKrdWbatGkwGAyYMWMGPvnkE+Wc1dXV4fnnn29WuJ80aRK2b9+u6g49deoU/vCHP2DdunWIiopqcd2bEh0djeHDh6vCndlsbvZ2Qn0NRpLn8Xt2IbsL5XUYquvA8/e3X79+qtc2mw0HDx70Wu+aa65Rfd4FOu5QOHr0KM4555yw7iPSmnMthftzJpBIfQaFYr8d5Xpvawx3AVx99dW47rrrsHr1amXZ5MmTsXXrVkiShBkzZqC2tlZ5LzMzE5MmTcKsWbPatJ6jRo3Cv//9b9WyxsbGoJqZFy9ejL///e/4+OOPceONN/os0x4vepPJhI8//jiosueff36Lw53VasWzzz6rWjZ48GBMnDgRANCnTx/cd999qu6ZhQsX4q9//Wuz/hJ8//33ceDAAezbt09ZtmnTJjzxxBN48803W1T3YIXi5xvuazBU6urqsHnzZr/vV1ZWet33M3ToUL/lQ30dhuM6iIuLU72urKwM6tq89tprVZ99pBbKa6mtPmcCidRnUKj3y+vdjgMqmvDKK6+o+uy3b9+Ozz77DHl5eXj33XdVZV966aWw3VsSaATjgw8+iLvvvluZT6i5Ghoa8Pjjj7do31q3YMECr66jGTNmqObMmzJliuoDRZZlPP30083aT3x8PL766iukpKSols+ePdvvfUChEoqfb7ivwVApLCzEJZdc4vfr+uuvV80vlpaWhunTp4e9Xk7huA468+9vOIXyWmqrz5lAIvUZFOr98nq3Y8tdE4YOHYp77rlHNcrpueeew/Dhw1XNwSNHjsSf/vSnZm+/qXswAPs/fIGGeBuNRrz33nt47bXXsHv3bpw+fRoVFRVobGyE1WqFLMsQQsBisaCurg4nTpzAl19+qWp1PHbsGIqLi5Gent6iOgL2bgX3iXT79OmDm2++Oah1mysrKwvz5s0LquzgwYNbtI/a2lpMmzZNtcxgMGDDhg1eN/FmZmYiPz9feb1q1SqsX78eV1xxRdD769+/PxYtWoTf/OY3qg+o+++/P6z3g3jes9IS4b4GIyEnJwcfffQRRowY4bdMOK7DUF8Hnr+/BoMBl1xyiVe5gwcPtul0EMnJyfjDH/7QZLmFCxd63dPZ0QS6ltr6cyaQSH0GhXK/7fV6b2sMd0GYMWMGcnNzleHneXl5qhFQAPDqq68G9QQEz3+4zpw5g3379gW8gL/++muvZe43m06dOlVVn8suuwwPPvhgwHqMGzcO9957r2pZRUUF0tPTERMTo1q+ZcsW1NTUNNl9N2PGDPz888/K62uvvTZs4S4hIQHjx48Py7adXn/9ddVoTsDeffL2228Htb7zfpLm3IM5fvx4TJs2Dc8//7yyzGw247e//S2uuuqqoLcTrPz8fGzbtk21zPMv6GCE+hpsDwoLC3HFFVdgxYoVuPbaa32WCdd12JrrwPP3d8+ePbDZbEoPRHJyMjZt2uS13pVXXuk1cjqcMjMzvXo/fFm0aFGHD3eBrqVIfM4E0tafQa3db0e53tsaw10Q0tPT8cwzz3jdE+E0YcKEoP9y8nzUiRAC48aNw80334yMjAxVQLTZbDhx4gQ++eSTgNvZvHkzNmzYoLz+6aefMGbMGAwaNMjrhlQhBIqKivDtt996bdM5aCIrKwu7d+9WlpeXl2PEiBH4n//5H6Slpak+RIQQaGhowLZt21TBDgC6du3q9zwEeyP6JZdcgocffthreUVFhd9pCHwZP348evfuHXT5kpISzJw5M+jyvuzcuRO5ubm47bbbmrXe1KlTsWPHDixbtkxZdvz4cbz//vvN2k6g8yuEQHl5Ob7//nuvm749b0gORqivwXAJ1NImyzLy8vIwdepUpUXRZrNh7ty5fsNdOK/Dll4Hnr+/x48fx+9+9zvceuutSEtL8/ojtLy8HD/99JPXz6M93mvbnoTiWork50wgofoMaov98nr3jeEuSI8//jjmzZvndYO4wWBo1i/nRRddhLS0NNU0IRUVFc2aKHXgwIEYMGCA8nrQoEGqf1iPHj2K888/P+jtAfa/fpzD6m+88UavuZYKCgq85rFrypAhQ/y+F+yN6AaDwWe4O3v2bLNmNO/du3ezwt0LL7zgNVHoU0891eQzhufNm6d6BuJzzz2Hm266qVmhRZIkfPTRRxgzZoxqBHJzp4QI9kZ/Ty3p4gn1NRguwbS07du3T/WPSaCn04TzOmzpdeDr93fZsmWqfzCD0b9//2aV72xCcS1F8nMmkFB9BrXFfnm9+8ZwF6SYmBhlYkR3Dz74IAYNGhT0dlJTU/Hmm2/i9ttvb9GNnwaDAQsWLFC1htx666147733YLVam709pylTpijbvOuuu7BixYqAk+A2JSMjw2co6wgKCgq8/iK/7rrr8PLLLze5blZWFv785z8rr48fP47Zs2fjySefbFYdkpKSsHTpUlxwwQWoqalp1rqtcf/992PcuHHNXi/U12AkeT6Uvi0nJPfUkusgFL+/6enpuOeee1q8PtkFupbaw+dMIJH6DGrufnm9+8bRss0wceJEjBkzRnmdkpKiuj+gOdvZunUrrr32WiQnJwe1TlpaGm655RYcOHDA6+bQcePG4csvv8QVV1wR1H1/Tnq9HkOHDsVLL72k6nKWJAmLFy/GnDlzMGLECL9PGfAlMTERd999N3bv3t3kX5/t1ZQpU1RPJwEQ9IjJO+64A8OHD1cte/HFF1FeXt7segwePDjsj8QxGo3o0aMHxo8fjzVr1gQ9OMBTqK/BSGpO/dtCc6+D1vz+ZmRk4Pe//z3Wr1/fou55Ugt0LbWXz5lA2uIzqLX75fXumyQ4bjjiqqqqcPbsWZ8teTqdDj169Ah6ihWbzYbKykpUVlb6bEWRJAkGgwEJCQlITU0NauoKWZZRXl6O8vJyv62NkiQhMTHR675B6nzCcQ1SyzX1+ytJEqKiopCYmBjwPlmijoDXux3DHREREZGGsImFiIiISEMY7oiIiIg0hOGOiIiISEMY7oiIiIg0hOGOiIiISEMY7oiIiIg0hOGOiIiISEMY7oiIiIg0hOGOiIiISEMY7oiIiIg0hA91JOqkjh8/jpMnTwZdXq/XIzU1Ff369fN6OPfevXtRXV2tWpadnY2cnJyA27RYLNi6davX8tGjR6O4uLhZ9QPsz2LOyclBjx49IElSUOtUVlZi//79XsuzsrLQq1evJtcPdB6HDx+OpKSkgOsLIbBlyxaf7yUnJ2PYsGEAgIqKChw4cED1/oUXXqg8m7e4uBhHjhxpsr6eYmNjkZqail69egV9zoionRNE1ClNnjxZAGj2V2JionjhhRdEY2Ojsq1169aJqKgoVbnMzExx8uTJgHW49957vbZ/++23t6p+AERycrKYM2eOkGW5yfNw5513+tzGwIEDhcViadV5fOyxx5pcPzc31+/6l19+uVJuxYoVXu+XlpYq73/wwQctPl8ARGpqqnj++edFeXl5k3UmovaN3bJE1CwmkwlTpkzBHXfcoSy74oorMHfuXFW5M2fO4MYbb4TZbPa5ndmzZ+Pdd99VLbvkkkvw3nvvtbqOVVVVeOSRR/DVV18FLLd//358+OGHPt87fPgw5s+f36p6zJ07F0ePHvX7fmNjI6ZMmdKqfYRKeXk5pk+fjhtvvBFCiEhXh4hageGOiFrk008/xb59+5TXd999NyZNmqQqs337dtx9991e637zzTf429/+plrWt29ffPXVVzAajSGr4zvvvBPw/cmTJ0OWZb/vT58+HSaTqcX7b2xsxNSpUwPWr6CgoMXbD4fvvvsOn376aaSrQUStwHvuiAgA0LNnT7z11ls+3zObzViyZAmWLVumLBNCYNu2bco9YQDwr3/9C0eOHMHSpUuVZUuWLMGwYcPw7LPPAgDy8vJw8803w2q1KmVSUlKwYsUKdO3atUX1k2UZpaWlmDlzJvLy8pTlx44d87u9TZs2YcWKFapljz32GGbPnq0EvuLiYsycORP/+Mc//G7HU3R0NBobG5XXubm5ePLJJzFy5EhVOZPJ5LXdqKgoWCyWoPfVFPefgychBMrKyrBkyRKsW7dO9d6uXbtwyy23hKweRNS2GO6ICACQmJiIG264we/7l112GZYvX67qsvMcSKDT6bB48WJceuml2Llzp7J8ypQpGDZsGC6//HJMmDABFRUVynsGgwGfffYZBg8e3Kr6Od13333K956DPNw99dRTqtf9+vXDrFmzUFZWhkWLFinLX3vtNTzwwAPo2bNnk/sG7OepqKgIe/fuBWAPUZMnT8Z///tfVblZs2ahpKREeR0XF4eJEyeGpFvaKZjzdccdd6Bv3744deqUsqy9tSYSUfOwW5aIgpKcnAydTv2R4d5C5RQXF4fly5erwpAQArfddhuuv/56/PLLL6ryb731Fq688sqQ1NHz/r6EhASf5b788kv8+OOPqmXTpk2DwWDAjBkzEBUVpSyvq6vD888/H3Qd9Ho9Zs2apVq2Zs0aVevY2bNn8eqrr6rKTJo0CVlZWUHvJ1Sio6MxfPhw1TJ/90kSUcfAljsiAmCflsS99cZdfX095s6dC5vNplrurxu1R48eWL58OS699FLU1tYCAGpqarBp0yZVuSeeeELV0hZIXV0dNm/e7Pf9yspKrwEQQ4cO9SpntVqVLmKnwYMHY+LEiQCAPn364L777lN1AS9cuBB//etfVV3QgVx99dW47rrrsHr1amXZ5MmTsXXrVkiShBkzZijnBQAyMzMxadIkr1DYVvyFYCLqmBjuiAgAkJ+f3+yWoyFDhvh9b9SoUcjNzcVvf/tbn4MWJkyYgJkzZwa9r8LCQlxyySVBl09LS8P06dO9li9YsACHDh1SLZsxY4aqVXLKlClYuHAh6urqANjv6Xv66aexcuXKoPf/yiuvYO3atUog3r59Oz777DOMHj3aa5TwSy+9hPj4+KC3HWocHUukLQx3RNQiAwYMwK9//euAZZwB7sknn1QtHzlyJHJzc726eUMlJycHH330EUaMGKFaXltbi2nTpqmWGQwGbNiwARs3blQtz8zMRH5+vvJ61apVWL9+Pa644oqg6jB06FDcc889qhG7zz33HIYPH64aNDFy5Ej86U9/CvbQwsL93j8i6vgY7oio2fr27Yvly5cHFc6eeOIJPP3006ou3YcffjisLVWFhYW44oorsGLFClx77bXK8tdffx1FRUWqslarFW+//XZQ2500aRK2b98e9JMcZsyYgdzcXGU6lby8PNVoXgB49dVXwxZyg5Gfn49t27aplqWkpESoNkQUCgx3RAQAyMjICDgnG2C/+X7kyJEYMWIEoqOjg962ZxhqyWOusrKyMG/ePJ/vybKMvLw8TJ06VbmXzWazYe7cuUq4KykpaVY3sC87d+5Ebm4ubrvttqDKp6en45lnnvG6x89pwoQJQbcEtsStt97q9z0hBMrLy/H99997DaDo169f2OpEROHHcEdEAIAuXbrg4YcfjnQ1/EpISMD48eMDltm3bx/ef/995bX70yFeeOEFrwmJn3rqqSaf/Tpv3jzVlC/PPfccbrrppqAnW3788ccxb948FBYWqpYbDIZWh82mfPzxxy1aL5yBk4jCj+GOiDSje/fuqtfOe9sKCgq8Wv2uu+46vPzyy01uMysrC3/+85+V18ePH8fs2bO97iP0JyYmBi+99BJuv/121fIHH3wQgwYNCmobben+++/HuHHjIl0NImoFznNHRJrh7961KVOmeM3J52skrS933HGH1zxwL774IsrLy4Ou18SJEzFmzBjldUpKSrPmzgsno9GIHj16YPz48VizZo3frm8i6jgkwTHwRERERJrBljsiIiIiDWG4IyIiItIQhjsiIiIiDWG4IyIiItIQhjsiIiIiDWG4IyIiItIQhjsiIiIiDWG4IyIiItIQhjsiIiIiDWG4IyIiItIQhjsiIiIiDWG4IyIiItIQhjsiIiIiDWG4IyIiItIQhjsiIiIiDWG4IyIiItIQhjsiIiIiDWG4IyIiItIQhjsiIiIiDWG4IyIiItIQhjsiIiIiDWG4IyIiopDb8ksJduWXAwD2HavE3JWHsXbnaQDA2cp6zF15GAVFNZGsomYx3BFRh1dUZ8X8AxWRrgYRubFYZVhtAgBglWXUN9rQaJUBALIssGLrSeSfMUWyipolCSFEpCtBRNQaj24qwqrjNdh4Y29kJRgiXR0iCkKDxQaDXge9Top0VTSHLXdE1KHtKKnHVwUmmC0C/9pREunqEFGQjFF6BrswYbgjog5LFsDft5YANgFJlrE0rxo/FdVFulpEFIRpi3/G9/uLI10NTWK4I6IO6/P8auw5a4YQAnB8Tf/hLGTebELU7pVVN8DcaIt0NTSJ99wRUYdUa5Ex7otjKKq1AEJAJwQgAL0QeOWyHvjDOSmRriIRBVBYUouU+GgkxUVFuiqaw5Y7IuqQ3vy5DEW1Fkhuwc4gy5BkgVd+LIKJLQJE7VpOt3gGuzBhuCOiDue4yYJ395ZDJ8v2cCcLGGQZQgAQAiW1Fszdznt5iNqzOcsPYmdeeaSroUkMd0TU4cz4sRgWq2zvhpVdLXeSsA+s0AmB93eX4FhlQ6SrSkR+HDpZjTITf0fDgeGOiDqUzafrsPZYtaobVpIFIMuOljwAQsBikfHy96cjXV0i8uOPl/XGkJzkSFdDkziggog6DJsArv2yAIdL66ETAsLRWuc+oAJCdrXiCeD93/bDpb2TIl11IqI2w5Y7IuowFh2owBFHsPPshoWwt95JAvbWPEcL3osbTsDKuVGI2p3//HgCR05XR7oamsRwR0QdQlWDDW9sO+u7G1aWAVlAgiPYwblMRn6pGR/v5uAKovbmm11ncOxsbaSroUkMd0TUIby+rRjlZhsgBIR7N6zs1g0rO1rwbDb74ytkAZ0s441Np1Bhtkb6EIjIzZWjMtE7Iz7S1dAk3nNHRO1eXkUDrvs0H1abvbUOgKMb1tlK52qtE8LVJat01wqB28/rjqlX947UIRARtRm23BFRu/fC5jOwWm32YOerG9Zxvx0cwU59H5592ZLtRThczOfOErUXmw8U41QZfyfDgeGOiNq1r49W47tj1YG7YR1hz9kN67rnztWyJ8sC/1xTENFjISKXjzcew4HCqkhXQ5MY7oio3bLIAi9vPmMPaM7RsHAbDSvLEM7WPPduWJtrGRwBULLJ+DG/EusOlkXykIjIYWTfVGSkxES6GprEe+6IqN2av7MEL28+4zV3HdzupYOjG9YVAO2tde733sHZdQuBnJQYLH/kPEQb+LctEWkTP92IqF0qM1vx9rZi19x1qrDWdDes8947yS3YSQI4UVaHj7aciuShERGAwpJaVNdZIl0NTWK4I6J26ZUtZ2Cqt6jCmns3rGrQhJ9uWPv3MgDhmB9Phk4A72w8hhJTY0SPj6ize+Xz/fjpUGmkq6FJDHdE1O4cKDHji/1lyqAJya21ThJwtda5dcNKbq11zoDnbK2TZAGd21Mr6upteHNtfkSPkaizS0syIjZaH+lqaBLvuSOidkUAmPj5EWw7WaOEMeF8EoVz0ASgjJqFW3etpDxf1hXs4GitE47XwlFOBwmLHzoPw7P53Fki0ha23BFRu7L8UAW2nahxe6yY7D13nU12C3SO/8vCbzesKtg5Hl8mbDa8vOwQ+OctUWTUNVhhscqRroYmMdwRUbtRb5Xx2ven7S1wzkeI+emGRTO6YZ1BUenidSS6n49WYtWuM5E6XKJO7en3d+LbvWcjXQ1NYrgjonZj/razOFXVoJ67zvHkCbiHOOegCbcJjVXdsLKAgFCeQ+sccKEEO+c2ZIHXlh+GudEW4SMnIgod3nNHRO1CUY0FV7+/zx60mjl3HeB6DJnyPqB6moWyTAgIZ6seAAkCD1zdDw9d279Nj5eIKFzYckdE7cK/vj0Bc4MtqG5Yz7nrnN2wzlY5oTxr1iPYya5nzUqwb0PIAu9/XYDT5eaIHTsRUSgx3BFRxO08XYNVv5Q33Q1r876/zr0b1n3QhFc3rLKuPdgpz6mVBRotVvzf0oMRPgtEnctT7+/EkHJhKgAAIABJREFUt3uKIl0NTWK4I6KIkgXwwroTjilLhFuXK1SjYd1DnedoWF+DJiRnSHS0zsGtG1bIAsImOzZn3/Z/d5zG9iN87ixRWzE3WGGx8c6wcGC4I6KI+nxvCfafNjWvG9Ymt7gb1tmCJzkGXChz48kCMz/dD1nmPzZEbWHSTUNx4aCuka6GJjHcEVHE1Dba8Oamk8F3w8rC96TEQXTDCse6wtkt6z4tiiPQHTxZjaU/nIjsSSHqJHK6xSMpLirS1dAkhjsiipi3Np+2P+O1iW5Y98eQNacb1n3QBGSh6oZ1ttbBYw7VN/9zCDVmaxufCaLOZ87yg9iZVx7pamiSIdIVIKLO6W/Pv48LLr8QC285R7Vc8jU7k+cyofxHmdIkcFnVN6pvfWmw2JAQy49HonA6dLIag7KSI10NTeKnFxG1ua27juDn/cfwz+fugDGa3TJEndFdV/dHj7S4SFdDkziJMRG1OSEEikoqkZneJdJVISLSHN5zR0Rt6nD+achCMNgRdXJLvj2KX05URboamsRwR0RtpqzChNsf+T8UHOfDwok6uy2/lOBkaV2kq6FJDHdE1GbyjxXh1hsvwYA+mZGuChFF2ISx2RjQIzHS1dAk3nNHREREpCH6adOmTYt0JYhI+178v89w4lQpzh3SGzabjAW5X2PnnnyMHNoHOp2ExV9sxE87D6NvrwzExkRj+dpt+O6H/ejaJREpyfHY+MN+fL1xN6KjDMjoloJdewuw4uttqG+wIKdnV+QdO4MvVvyAktIq9O+TieLSKuR++R3yjxVh6KAcmOsb8cHH67BrbwFGn9sPAPDhJxuwbfcRDOrXE9HRBny56kd8/9MBZKZ3QWJCLL757mes27QH8XEx6JqaFOEzSKQtX+86A71OQkpCdKSrojnsliWisDtbUgmjMRqm2noA9tGyVSYzqkxmODsPTLX1qDKZYXM8a7Kmzv7aYrMBAMzmBlSZzGi02CcYbmi0oMpkRn19IwDAYrGhymRGrbkBAGC12V+basz2SgigymRGtcms1KvKVIcqkxmyow41jjpYbfaZjc31jfZ9NlrCeXqIOqVlP57AkdOmSFdDk9gtS0QUhI+Xfo/ULgm4+rKRka4KkSYsWJOHMQPTcG4fjpwPNbbcEREFISszDf984ws0sBWPKCTuvqY/g12YsOWOiChIu/YWYNTwvpGuBpEmHDxZjfRkI1ITjZGuiuaw5Y6IKEijhveFxWJFVXVtpKtC1OG9tfwgduSVR7oamsRwR0TUDO/lfoMZr30a6WoQdXjZ3eKRFMdnS4cDu2WJiJrBVGPGnx97Ewvf+AuSEmIjXR0iIi8Md0RERNTmSqsbEB9jQGy0PtJV0RxDpCtARNrz9YlafF5Q7f2GcH7Z/6aUhIDkfE8W9vtEhAAE7MuFrKwnOb+RXX+PSsK+DaFaz/G+47VSVllPQHLWw1kht9eSY7uAgHBsX9meY5V6GSgVOiz501DoJBBRC0xf/DMmjM3GVaP4OMJQY7gjopAyWwWe+6kYp2qtroUCgCwghDM8OUKdEJCcoU4WruWyK9TphCuACSGUQCcJe/iyhzjXdiE8AqDsCmeSM/A5til5rW/fqXDUxX19IQSgl2BNiIM1IQ6ADdNXF2D6/3D0LBG1L+yWJaKQenlXGd7c4xgBJ+zhSPYR6iAL6B3fS3L7DnVCp4MtMRaWhDhAcu1PL8vYcv8IpMXz72Qiaj8Y7ogoZE7XWjFu6TGYLUIToQ46CY0JsZCT4iEkyW2brq7jMSkG5N45PJynlYioWTgVChGFzLRtJahvkCFsMoQQ0Dm+JCEAmwy9LKAXApJNhk4WkGTZHuwEoJMFdEIGhD1sQRb2ZbJs79KVBSDLkJzblGXAJivBTpLtYRGO9yTHNiDs60iq9R336gn7NpzvS46uYwHAkhyH2p5dYUtJ8BvsIMvYWlqPH/IrInnaiTqkp97fiW/3FEW6GprEcEdEIbH1rBkr86vbJtQ5gxt8hzop2FAnq0OdLAHWpDjUZXVDQ0oidJKktPz5CnZCCOgg4Znl+ZE89UQdkrnBCouNnYfhwG5ZImo1WQDjlx3H3hJz4O5Xt4Dkq/sVjgDnt/tV6WL13f1qHzkboPvVGfbg0f0qSbAkxMLSJRFCJ0EIexhtMti57eepi7rjnnE54T/ZRBrBqVDCh+GOiFrto18q8ezmoo4Z6hJjYemSAKHT21sPWxDsIARiZBu2PzUW0QZ2iBBRZPFTiIj8OnjwII4cORKwTI1Fxms7Snx3vwp7l6jS1erR/So5ul+lprpf3e6J89X96nw/2O5XAQFLYixqstPR0DW51cFOEgIN0OHZLw62wU+FSBtmfr4fPx0qjXQ1NInhjoh8kmUZM2e+jJ07dwQs99r2ElTUWsIX6kTrQp1zOhbhaBm0xMfAlJMBc3oXwKBTWvtaE+yckyWvPFyJE2Xm8P5giDTiREktqusska6GJjHcEZFPy5cvg9lsxu9+93u/ZfIrG/DvvWU+Q509bAUIdSLIUCe3LtTZQxlgSYhFTa901PVIgzDoHQM+ELJgJ8n2UbaPf3wg7D8bIi14+Dfn4Lz+qZGuhiZx5k0i8lJTU4MFCxZg8uRnEBUV5bfcC98XQbbKHmHIFXrc56lz3lMnHI8Q83tPnVfIct1T5/ze3z119vv7nEFPQEiANT4G5rQkyMYoCAHonU/C8BnsZLf79lz78gx2qnoDSsuiTgD7S+uxYX8JfjW0W7h+PESacE5WUqSroFlsuSMiLwsXLkT//v1x8cUX+y2z4bgJG49Xe7XUubpa/bTUyW3RUidgjTPClJOBmp5dXcFOhDPYOY5RCDz71aE2+CkRdWxLvj2KX05URboamsSWOyJSKSw8jmXL/oP58+f7LWOVBV78/rSjBa51LXV/HJWObvFRjrDk6gp1jn5duussbhyZDsDRRQq3UbYA5q47CqNewl2X9QIAyFF6bKsW+KakQXmyxZ8Gd0HXGD0kCJTUWvH5wQo8OKqb0tInhECRqRG7ztQiv6xeFex6JRsxYXAqeneJQWlNI7Ycq8L3+ZX2+qiCnfOYBKosAm99XYCHr+JzZ4n82fJLCbomx2BwdnKkq6I5DHdEGlJcXIwDBw4gOzsb/fr1AwCUlJRg//796NmzJwYMGNDkNubMmYMJE25Anz7+g8mHP5fiaHm9fVqTVna//nFUBgZ3j/e7rx3HKvHwFb39vj/vmwLEGPR4yC1IrTleg3Vfn1QeWfbshemIj7J3VBworceyw5X46wUZXtuyCYE5PxRhzg+nIYTAuF5JeOvG/oiNcnVy3H1hJj7cegb/XHvMZ7BzHte7353A/16ag4QYfswS+TJhbDYG9EiMdDU0iZ86RBqRl5eHBx98AI2NjRBC4OmnJ2Po0KG477570dDQACEEnnxyEiZMmOB3G1u2bMGBAwcwZcoUv2XKzVa8tbVIabVCC0MdHIGwqLoB8dF66HVAz5QYAECV2YoqswUQgMUqK/s21VtRUescXWffnhwbjZqe6puyB6ZEK8EuM1avBDsnvaMuAFDdYEN1gw09k6KhlyT85eJMrM+vwKGzdZh2VS/ERukgAPx8qgYDusUiPlqPP12QiWV7SvDLaZPPYCcJAYsAnlmyD7PvHBnox0bUaV01KjPSVdAshjsijVi3bh30ej1WrlyFZ599BqtXr0ZJSQksFguWLl2KV199FWvXrvEb7iwWC95++y3ce++9SEry303y2pYzqDZblYDW0lDnvH/todz9kASQkRiNDU9eCAD4cPMJzP/2OIQQSHSbvf7TH0/i9VV5AABbbDTMXZNh6dUdqR4z3OckRSNKJ8FmldE3OdrjCFz3ywFA7p5SzPr+NEZkxOKLiedAAjCudzKq66zISTECAN787gTe/v4UeqfGYM0DIyEBuDAnEQdOmXwGO+fAkm8PV+DwaRMGsnWCyMvXu85gQI9E9M5IiHRVNIcDKog0oqamBl26pCIhIQGZmZkwmUwwmUxITU1Fly6p+MtfHsMTTzzpd/0vvvgcer0e11//G79lfikx47O9ZY7561oyUML5JfscKKEQQjVQwn2xbDSgNqsrqvtmwpIYZw+Ksqyqp14CBiRFQRIC/TzDnWPwhDtJCOw5Uwur4+kVWUnRyEpyrVdQVg8AOF5qhs1Rz54pMQGDHWT7CN9Ji/b6PZ9EndmyH0/gyGlTpKuhSQx3RBrX2NiIhx9+CLfdNhHHjh3zWaaiogIffvghHn30Uej1/p/z+I8NJyBstlaGOuFz9CtU4Q6q0a9OlsRYVPXricbkeEeYgn10rFsdGxwPIh+QYoQkgL4p9pBW2+jajuRW3n3whM0R7qJ0EvSSa6vK48vcRsnqdfZhH/6CnbNsfpkZy7ef9ntOiTqriwd3Q1bXuEhXQ5MY7og0rrq6Gtdccy26du2G//53tc8y7747H2PGjMH554/xu53VhyuwrdAUglAn+57SRHaFKedkyEIIiGjX3SM2Y7RzKK0q2Lm3+uVXNgAABnYxAkKgT7K9a7XAsVx51q0b53QnkiQpr1WJUYbSBe22VpPBznnMLy495Nm4SNTp3Xp5H46UDROGOyKNS0tLw4QJE3DeeaNRWHjC6/0jR47g66+/xv333+93Gw1WGS9vPBmWUCdk13pOAvYpTcyZqaju211ZfklmLKae1xVTz++KKeenIT5KZ9+vWxI7Um4Pcf27REMIgX4p0bDJAoVVDVDtwPmtAHQCSDbqEa23h7uzpkZ1uIPbqFgHydm62ESwA4DaBite/Q+fO0vkbld+Oc5W1ke6GprEARVEmmIPE6oQIjk7ISXv4gBmz34Tt9xyC3r2zPK71fe2FuF0hXPqk+AGSgi4vvf1RAlVMBJCdR+cNTEW1QOyICQgSnLVe2TXGIzsGqO8fmdPOeo8Qpcr3BlhlIDspGicqG6E1ebRMuhwcU4ijL/Kxv/r5Zot/0BRrer41dOduAQT7OytkAKLvy/EvVf1RUqC5wAPos7p/bV5mDA2m6Nmw4Atd0QakZ6ejqKiInz33Ubs378PGRkZSE/vhrKyMqxbtw579vyMjIx01Trr169DYWEhbr11ot/tnq1pxLs/nm5ZS50QflvqlCdQOLpf4XavnyXWCOEji5bW27C/rMHxVQ+b47mx7lObHCm3twT0STaiT7IRep2EgooGeDXXOZybGY87z8/AwG6xAIAdJ0z45lC5KgC6T3fitpGggx0AyELgyQ92+z3PRJ3NoKwkpCUaI10NTWLLHZFGXH/99Vi/fh2mTJmClJQU/O///gnZ2TlYu3Ytpk+fhqSkZPztb08o5RsaGjBv3jw8+OBDiI/3P4nwKxtOwNxga15LnaNcoJY64VhH6HVoSEtCVU7TDxD/5FAVXtpeojx5whns3IPYSVMjzFYZsQYdLu9ln2LhaHk9usY5Pu4c+3YqqbWgqLoRRaYG7Dxhwkfbi1xhTUW9n+YEO2ddt+aV4+djlRjRO6XJYyXSukd+c06kq6BZDHdEGtGlSxcsXPgBTCYTEhISlO7YBQveh8lkQnx8PHQ6V2N9bm4u0tLScPXVV/vd5u5TNVixtwRAGEKdToeGrkmoT0uC0ElIlnx3G6sa3CB8Bju3ga2QZBn55Q0Ylh6Lq/vZb9YuqKhH1zjXXFo6t/Jf7S3BqxsKlf1ISsukuhLK8Tv3AzQr2Dm7p59auAtrpv/K7zkn6ixKqxsQH2NAbLT/EfrUMuyWJdKYxMREt/vsXMvcg11JSQk+/ngJHn30L15lnQSAF78+5jZtSRDdr7IzeAXoftVJqO+ajKpBPWHulgyh8xPqHJWQPAKVz2Dn0aJ2pNwMABiVaW+RPFrucdO2R3ln8PR6Vqxzv87jV3XVBg527nV1TbcCnKkw4+Pvjvs/ZqJOYvrin/H9/uJIV0OTGO6IOqG5c9/GZZddjiFDhvgts3RPCfaeNIU01DWkJaFyUBbMGSkQuiY+fpzBzn0OEUeG8gp2sntYE8hzTDrsjI1Hy+rVgU72nsTY84kbpnqL8n5MlA4SgGi9DjpHGHZ/SodXsHMsdwY74fwe9v+/9uUvsHJuFOrkYo0GROkD/HFHLcZuWaJOZv/+fdiyZQsWLVrst0xdow2vrz9uD2ewh7SWd79KaOySaG+l0wf596RbsBNuIysGpRrx+/5Jqq7Y/xysUE2FIgngSJmrpc7UYENJbaN626p9eQc7CIHCsjrI9kyKWy/ogTJTIy4blApnQ+exkjr/wQ7qYAe3YCfJAvWyDS/k7sW020cEdz6INGjmXaMjXQXNYrgj6kRkWcYbb7yJ22+/HV27dvVbbt6mkyipbmh9qEtJQH23ZMiG5t1TY7+fzd7iJ7lFsStzEnBljvo5lCsPVagHscLVcgcABeX1jidguBfxGCzhEewkCNSYrfhqZxF+f153jMhOwrt/PlcpXlzdgLV7zrYo2Dn3t/SHk3jwN4OQkRwDIqJQYrcsUSeyevUqVFdX4eabb/Fb5kRFPT764ZRrypPmdr9K9lBXPaAH6jJTmx3sACgjWp33rQUuC6976E5V1qPeau/2PFru7JIVrgJCvb5nsHMe+8ur8/D59jOqOfL2nqjG/Qt2w9xgBdCyYAcByLLAE+/saP65IdKIR+duxde7zkS6GpokCdHUJycRaUFdXR1uu20iHn/8bxg3bpzfco9+8gvWHShVtUo11VJnLyihMTkedRkpEC0KdO5dsSLw4AlZQOcMaUJ2LVcNXnB7Zq0sux475lZ/Xy12Sqh11gkCegnomWxEucmCmnpLq1rs1K2MwPy/XIixg7s1/3wRdXCPzt3KSYzDhOGOqJOYN28ufvnlIN544w2/ZX46Wok7F+4B0JxQB1iS4mBO7wJbdAvv9GjHwU44R8kq+wldsAOAbkkxWPfylS07b0QdWF2DFVF6HaIM7EQMNZ5Rok4iLS0Nf/nLX/y+b5MF/rUqP/juV0iwJsahqn8P1GR1Y7BrQbADgJLqery3Jq9l546oA4szGhjswoQtd0QEAFiy9TReXHYETbbUQYI1MRZ1GV1gM7ZyTFYnD3ZO0QY9trx+DaL5Dx11ItMW/4wrR2bikqHpTRemZuEnCRGh2mzF298cbWKgBGCNj0V1v+4w5XRjsAtRsAOARqsNz33I585S51JW3QBzoy3S1dAkhjsiwlvrjqK8plEd6txa62xxRlT3yYSpdzpsMdGt3yGDnZe120/jeHFN688tUQfx8G/OwXn9m36mNDUfu2WJOrmC4jr87s2fYLW65rJzD3V1GamwxoUg0Dkx2Pk1KDsJnz3rfyQzEVEw2HJH1MnNXHEENovs9pgs4Wip647qPt1DGuwEg11Ah05UY92uopaeXqIOZcGaPOw5WhHpamgSwx1RJ/btL6XYfKjUFepio2HqlY7qPt1hizOGdF9CwB7EHMFOB1ewMzgCWKBgJzyCHWRtBTun5xf93LoNEHUQuwvKcbayvumC1GwMd0SdlMUmY9aKwxBCQI6JRk1OOqr7ZsKaEBvyffkKdnALdqpg5SfYSR7BTglzQQU7uVnBTnLWyRHshFewE2EJdgBQXWfBnGWHWr8honbuj5f1xpCc5EhXQ5N4zx1RJ7Vw43G8sv446romw5IUF7b9tI9gh2YFOzjKO4OdajoYxzbCEeycDHoJ3826BgkxfPw3ETUfPzmIOqFPlm3GltoU9BiYAQCQYH8OK9wyiqSUdkstzQwwQgCSkoRcoUwA0Au3Hbp3mzrKSML+ShKSfbkAICTXhoWABJ3SharUzXEfnn3zshLmlHKOYxPuwRLq950BUgl2cOsWdmxOCYEhDnZO63afwQ1js0O/YaJ24j8/nsCQnGQM6JEU6apoDsMdUSeze/9RvD5vGdZ8/HckJ8VHujpE1El9s+sM4owGhrsw4D13RJ1MfFwM/vncHQx2RBRRV47KRO8Mfg6FA++5I+pEZFlAp5OaLkhERB0WW+6IOok6cwMm/O9LKCmrinRViIiwK59ToYQLwx1RJ/HFyh/QJzsd3dI49QARRd77azmJcbiwW5aok5BlgTpzAxLiYyJdFSIizFl+EBcPTsdoPl825PTTpk2bFulKEFF4fb5iC1av34W4WCN6ZqZh664jWLL0e9TU1aNf7+44nH8aCz9Zj1NF5Rg6KBvFpVWY++Ea7D9UiPPO7YdGixWvz1+OLdsPYex5gyBJEt5euBobfzyAwQOzEBsTjcVfbMTajT8jM6MLuiQnYOU3O7BszTbExhqRmd4F32/9BZ8u24JGixW9s9Ox/1Ah/v3ZtygurcI5A7Jw6kwZ5i/6GocLTmPksD6oqa3HmwtWYtvuIxh73iAAwP/NX47vtx7EuUN6IzragA8+WY9vNu1Br6xuSEqMw1erf8TKb3YgOSke6V2TsWHzPnyx8gcIADk9u2LX3gIs/vI7VFTVYmDfHjhaeBYLctfh2IliDB/cC+WVNXhr4Wrs3ncUY0YNgCwLvDpvGbZsP4TzR/aHXq/D/I/WYsOWfejfJxPxcTH4dNlmrF6/C93SkpDWJRFrvt2Fpau3wmDQq851bV0D+vXujkN5p/DBJxtw+mw5hgzMxtmSSsz79xocOHwCo8/th/oGC/7v3RXYsv0QLjrffq7fWrgK3/14QDlOIi24YFBXZKaGftJ04lQoRJpXZ25ARWUNkhNjER1t/5U3GqOQnBiLWKP9ubFRUXokJ8YiLtb+yDGdTofkxFgkuD2tIjnR/r3kGI+RkBCLqCg9dI4FCfGxSE5sgMGgBwDExkbb9xll32eMY58xxij7Pg0G+z4djznT6+11cLYsSpJ9n3q9XqlDUmIcbDabMigkIT4GFotVKRMXa3Ts01GHGPU+o6Pt+4yNtR+3wWDfZ3ycfZ96nWQvH+N6nq5y3I7XiQmxkCRAr7ff1RIfF4PkxFjXccfYj9vouc8Y57k2qM613nmu42Md515yO9f2vSbG28snMtiRhhSW1CIlPhpJcVGRrormsFuWiKgDqW+wKGGVqCN7dO5WTBibjatGZUa6KprDARVERB3Ezj0FuOW+V2CT5UhXhajV0pKMiI3WN12Qmo3hjoiogxg1vA/i4ozY8XN+pKtC1GrTbhuBS4amR7oamsRuWSKiDsRqtSn39xF1ZHUNVkTpdYgysJ0p1HhGiYg6EINBj6rqWvx3/c5IV4WoVZ5+fye+3Xs20tXQJIY7IqIOxmKV8fdXPsaRgtORrgoRtUPsliUi6oCWrdmKQf16YlD/npGuClGLsFs2fBjuiDQmr6oRBysaQ7ItAUDy8RHhuUwSztKu/9m/91XOR1m3cpKP9ZxlJccKzrclX/t0LhDql5Kv/fpbJrwK+dhHZFllgaJGgbsuZrgjIjVOYkykIVYhcP+3Z3CwspXhTtgDlCTs30iwf29/DUAI6Hwsc6Yuyeu1UJY5t+m5DtzKONeBUO/D9beoUL2vhDHPZY66e+5DuL121cNZ3i3seZVr3WltLTnaAGtCLGyJsbAmxgI6CfU24KFLGfCo45m2+GdcOTKTI2bDgOGOSEM+OFjVumDnFuokt2DkDHfO4KQLMtQp4cy5viw3GergsS9JFk2HOgCqYCcL5YkSzn05Q50AVPXzCnbtKNQJnQRbfIw9zCXEQo6xT14sOY5TyAJzdhbjrrGZiIli1xZ1LGXVDTA32iJdDU1ityyRRlQ22HDJV8dR0dDCD0sBQHa11HmGukCtdV6hDoAku23HV2tdU6HOV2udLAKHOj+tdZDdvneu2lRrnSwQiVAnRxtgTYyFNSkOtoRYQHLrznaEU+U8wX4Or+0egzk3D2r7yhK1Ah8/Fj5suSPSiJd3lbUs2Lm11rkHI11774IF7C10nqEOrn15dcE61mlPXbBCp4M1MQa2pHhYEmMAgwFwhDblXMD1vc7xHtzqvvZEDY6XmtGrKx/CTh1HTrf4SFdBs9hyR6QBhysbcdWyQlib8+vsJ9R5dsFKAHQ+ulODaq2TBQKFOnjuy9HV6KxgUF2wnq11/kKdr9a6iIQ6CbbYaHugS4yDNT5GGezhPDfOKni20MEjjNpDn/37c+J0WPHAyHBXnihk5iw/iIsHp2N0/9RIV0Vz2HJHpAHTtpW0LNjJcrO7YAF7iGtWF6yvdYJtrZPdElcQXbBKsGtOF2yYg51s0MOWEANrYhysibEQUXolrOkcdXXu3tnyqQp0ymlRBzrnzwgADpusWLO/BNcM7RaegyAKsUMnqzEoKznS1dAkttwRdXCrjtfg3m/PBFc4UGud2/12zRkw4QwnwXbBwrGvZnfBCuGoo6vOzuUBW+uU42q7UCckR+tcUhxsyXGwxUQBkJSw5t5CJ7nV1SvQOd5zD3TOEK766Ha8lyoJ/DTpgtAeDFGY7MovR4+0OGSkxES6KprDcEfUDp06dQpGoxFdu3YNWM4iC/zqP8dxtNoSeIOBQp1HF6wSutxa2oIeMOHeOhdEF6wr2LVBF6xqeehDnTDo0ZgUB2tSHOTEWAidM8wBPgOd4z1fgc65WjCBThnV7Dj+e0Z0xaTr+oXuwIiow+HYeaJ26JVXZuLLL79sstzc/RXNCnbuXzpnS5hs/14nBHSyrCxTBTtZdr2WBXTOljdZhiTL9vKewU61DcdIV9m1D6FMceIZ7ISr0rJrPaha+zyCnXtgc9ZFFpCE7Lq3TvYo18pgJyQdLImxMPdMg2lQT5iG9kJDdlfISXGOEa6uc2Svj/3/OllWzr9OOM+37DofwnWOdcr5lZX3IAtINhk6WXZrYXVt/4OdZ1Fttrbu4IjawH9+PIEjp6sjXQ1N4j13RO3Mxo0bcfToMbz44ksBy5WYbXh7b4X/Ap6hDvDZWtfsOeua2wXrKOcclNGsOevcp2aBa19NzVknCVm9zG2brQl1sjEKlgT7NCXWhBhIep1SH0nIrpY697oJ+whX5Zx6tNA513FvOXWeI+G2Pc8WOtVxw7UNm5DwtyX78d5dI1qZ+1wyAAAgAElEQVR+oERt4JtdZxBnNGBAj6RIV0VzGO6I2hGLxYJ58+bh/vvvR3x84GkCXtxRCpNF9vmekAOHOveb8ZVlsn1bbTFnnSTk5nfBOuoR1ETEquUtD3VCL8EaF4PG5HhYk2KB6Ci3qWLs58zfHHSuKUsclfEMdM6fCXwEOvcWT7i2rxyLG1Uwd2xvy8ka/HLahME9Ept/0ERt5MpRmeidwelQwoH33BG1I//+97/x3XcbMX/+u9Dp/N81saesAeNXFipz8yrcWuvcA13Qo2C9XrfRnHVNhDqf99Y1FepU5YL/GcjGKDQmx8GSFA9rnBE6neQWbJ3H4NqHe6ALZsoSZ1hT3UPnfo4B70mYAwQ69/An3OqQkxCF/z55YfAHTkSawZY7onaivLwcS5bk4uWXXw4Y7ASA57eWqIOdW6gLZResUS/h/jEZqiBWWmvBoZI67DxhgiSAaJ2E+/5fD8d21OsLAG9vLIQz1I3ISsIVg1KRmRyDE+V1WLWnGAXFtbh5TA90S4h2rOt2YI5j+OyHkyipblDVL1ov4e5f97Nv27FaUbkZe45VoOCMCdF6He6+eoDf8zhv1WFE6XW467oBkI1RsEUbIBujUdJgw6HyBuwoqoNe2O/3i9YDD43uBgiBbWfqsPlkDSQhkJMUjRsGpqBvihEldRZsLjRh03ETIASi9BIeHJOh7E8SApX1NhwqqcNPJ0xKC53znI3qkYAr+qegR1I0CivqsfJAGfJLzar1fQVf90DnnC8PQqDQ1ICvtp7Bby/I9HsOiCJp84Fi9M5IQM+0uEhXRXMY7ohaqbi4GAcOHEB2djb69bOPUqyursaRI0eUMunp6cjOzg64nblz38bFF/8/nHtu4Hulvsg3YWux6x995SZ7P6EuUGtdU12wMToJf7nIdzhYf6QCD39+CEaDDo9emuW3vvO+K4RsE5g4JhPPXj8AOsn13l2X5uDxxXtxywU9cU6PBL/b+HZfMUqq6lWtddHROjx0XX+vsrIsMG/VESxaX4AHrx/od5tv7iyBSEvAQ//jOwB+c8yEB1YfhywLGA16PDbG/nDzeTuK8UNhNS7NTsTc63sj1uAK4veMTsfCncV48duTiI3S+T13PxyvxgOfH0a91X7uJ47OwNSreqvOzT1je+CxLw7j2yMVqkDn/BH6CnTOb53l/7nqCG44PxMB/lYgipiPNx7DhLHZDHdhwF95olbIy8vDbbdNxPPP/x133vlnrFy5EgCwd+8ePP74X5WvpUuXBtzOoUOHsHHjRtx3330By5mtAjN3ldpfCEDI8HoerPsoWEkI6IXHKFjHyFdfXbA+R8E6VDfYcLKyQXl9xYAuuH5ImmOSYTtTvRWF5fWOLzMKy82QZIHkGD0ev7ovdBJgtQnsLqyC1SZgNOjw7G8Gori6HoVlZpyucIXWqjoLCkvrUFhah0ab7HsUrHO/ZgtOldVBCECnk/Dg+IEYkp2ser+wzIzjFQ04VtWIY9WNqO/eBSLOqDq+E9WNyusreyfiN/2TlBG7Csc5nfGrnog12IdK7D5Ti1rHA9D/PDodw7vFKPcwOrd9vKIeFpt9Oxf1SsL/np8ByDKSovV48vJs+7mRBXadNMEq28/Nc1f3hl7Yj104fs7KKFvhuADcRis7RxZLjsBfZ5Hxwpe/BLymiCJlZN9UznEXJmy5I2qFdevWQa/XY+XKVXj22WewevVqjB8/HmazPaSsWLESer0eUVH+H4wthMDrr7+GiRNvQ0ZGht9yADB7bzlO1ViD6oINyWPD3ALKxzvP4tUNhRidlYglfxoKABjZIxEbD5W7ymwvwmvfHPW6r25wThLijXoAwLOf/4JVu4tw/cju+NctQ5CVGos75+1AUYUZGUlGfDN1HADg398ew/xvCnzfW+cIL06ffnccbyw9iGG9UpA7+RJIEnDRCFer2b8PVeNfW4vtAVY5TkDSu7aRu78cL/9QhPO7x+Gz39tbYEdlxGH5LxXQCbeBKwLITIhCTrI9GL6x5Qze/uE0eqcYsfbuYZAAXJCViOPl9a7zsqsYr35biOQYA5bdPRzdE6NxaZ9kvLP5FIZmxCE+2n5uJv/nCFbuK8VvhnXFzN8ORHaXGKQnRONsVQNc9/G5tb7CeX8elPc879f7fMdp3H91H2Qk8R9Ral/uvsa75Z1Cgy13RK1QU1ODLl1SkZCQgMzMTJhMJgBAXV0dYmJiUFRUhK1bt0Kv1/vdxpo1a1BaWoo//vGPAfd1utaK+fsr7MHOMVdaU3PWeQU7t5Y752ufrXUe4c/drhPVqHLMo5aRGKVu1XIfMKHMcyfQLcEVbkuqGgBZ4FhxLWyygE0WyEw2qgdMOPmbs85H3WRjFHbUyrA66tOtl+t5lToI6GUZelmoz51Hi5xOlrHzdA0q6+2tcN3jo1xzzLmVy06MVl4WlNVByAJHy+thc5TLTo62P7nDbR3IAlV1FvxythYAkJVshCQLdIt3nZvi6kZAlnGspE45Nz2Tox0tdAKwyW5P94DSQqf++cnK/iALyDaBJz/c4/NnSRRJB09Wo9zU0HRBaja23BGFgdlshsViwUMPPYjGxkbcd999uP32O3yWmz//HTz66KOIiQncsjJtawnMjbLv1jpHy1vIHxvmMRzXGYjqLTKSYwGbLKAqoYQ6xwvHdoqrXB/g5/VOxvb8cuw/UYWRT3/jMQpWvS37canvJXNu022cKBrTklA5NAcQgE3YP9iM7jewObqcXes6tiW7l3G1NNZbZQB6yG7dna5zAOjdgptsE27P6AUgAXoJqlZP57mDAGyOrtkovQ6SLDta5ezOz07E9qMV2HfahOHTN6kHULifH/cWOlWIVC9zrre7sAo/Hi7F2IGBn3hC1JbeWn4QE8Zm46pRHPQTamy5IwqDuro6xMXFYeXKVRg+fDh27tzps9yiRR8hMzMTl1/+q4Db23rWjFUF1T5b6yTZ3tWoBDuP++p8ttZ5Bjv3Mm7b9Rq56mgliou2f3QUlNS5JgyG/ydM7DtRDZOjte/P43LQOy1WaWn0esKE+/48gp0cbUBDaiJq+maiamgvpahs0EEvCxjcgpB7a5sSIN2eEqGThUd3q+O+NlkgLsp+fPllZsd5VpdzPy+u867uulUdiyzcWtyUhAZJFth/ygRTvf3c3HlxT/RJjfFqoVMNmvFsoXO8B5vsmHfPbT+On4GQBabm7ve8rIgiKi3JiNho/70a1HIMd0RhcPPNt2DRokUwGo1IT09HTU2NV5kzZ87gs88+w6OP/gWSJPnYip0sgOd/LFbCWNgfG+bWQia5hZg4gw7dE6Jw59geSIyxN/rvKqxWhZgL+6bgyWv64slr+mLStf2QEKUDZIH6BivmflMAAEiIMeD9B85Dr25xyj6VgOLRUigkCY2JcajL6oqqIb1QNaQXarO7oTExziNgATpZICVKQrTefi7P1rgey3ZRz3g8e1F3PHtxJp79f92RYJC8QlqsQUKPeAPuPS8dSY77A3eeqlECn5O9tdQj7P1/9t48vorq/v9/zl2zJySBEAIJOwgIYt0X1FaxVdSqtdWv1l0/XT8f+/lYrUut7e/TalvbflrXWpeqdSuKCoKo7GBECPuWsBMg+74n9945vz/mztyZuUsSyELCeT4ekNyZs7znzCTzyvuc9/sY3kqMsVcCJtGLLhztSacFre0+nl1+CIDkOBf/vGMGYzMSogs6VXQu6ASG3ZqYh/KGNl4J3gOJ5ETg8ZtncMHUYf1txqBETstKJMeN9lY3O7neeutNVq9ezeuvvxFt6RrPPvssl112GZMnT47Z+ltFdWyrbO23bcN0bjkrm1tMOdOe+mw/X+yuJtkb+jVy6sgUTh0Z2kronysO0RJs/41VhxidkcB3zxvJ0BQvL//wDG7561pKa9oMm8yiqSM9mbppo0FR0PdVdQRUI62LU4T+4j8vJ5FfnpfFBaNC6VR2VLQAGQDMyEpgRlYo3cI/Cspptom222YO47aZoRfN71ccZvXe2qBX1DrFi02j2cfKWHsY+hhcg2d7GALadO4b+UcYnRHPjWeNYGiyh1funM7NL2ykVI8eNt8byzSttQ9hTNWbUqSAMX7PLtrNLRePxuOSf9dL+p+Wdj9upwO3fB57HDmiEslxMGzYMMrKyli1aiU7dmw3ol0zMjI4evQoK1asYNeunQwdOtRSb9OmjWzYUMBdd90ds/1Gn8qfN1RF9NZZtg3rZAo2qrCLMAWrmI45wjxNIc4enYb2OzkkMGqaOigsaaKwpJHCkkYCATW0dk8V/PaDXXy2pVwbuxQvz939NRLjPXSkJNCak07jhByjrYDHpQWPBFRcqsAVDIjQvY8OkzCbMSyeO2dkMjFdW7dYUNLMkn11xvnqFj87K1vZFfyn+nVvZ/TrOzc3BbeeHTlGuVAKEuu0rGLWcaYpYauADtX/3YI9fLa9MjQ2t00nyeM0pswjTbdG8tBpO1+o2j9VIAKqthBRFfj8gl++sSX6tUgkfciDr2xkxbby/jZjUCI9dxLJcTBnzhyWLVvKo48+SlpaGrfddisAs2dfzqJFi3jssV+SlpbGzTffYtRRVZWnn36a22+/nfT09GhNA/CXDZVUNfu0gAD6Y9uwkC2Lt1eyYGsF35o6lDkzhnHhxHSuPHUYy3ZWGWXmFZTw10/2hfWhr39TAyo/f2MrOE9j9rShjM9O4r7bZvLz1WUIIQiY/oJ3CE3Qmfdn1e0V2kAaZStb/JQ2dlDW5GNDSTOvb67Aa2pr7vYq/rSmBMuWX1qTBp8U1jB/RzVXTB7CVVMzmTU2lTmnZPDhtsrwtYBmIRdhulUxkhCa6ti9e4JQO0KgqvDzt7aj3DSVy04dxoSsRB64cgK/em+nxQtr7M+L1UMnzO2bvjeSHwcvd/GGEn4yZxKjhsrEsRLJYEWKO4nkOBgyZAivvvpPGhsbSUpKMtbOJSUl8dJLL9PU1ERCQoJlO7H58+fT2trGddddH7Ptgw0dvLa99timYCEkQroxBat77cx7weocqWllxc4q8ndXc9nUTLwuB5OGJ7FsR2WoHUJ96aJOAKpTwZ+UgC8pHn9iHD9YV8Pno1IZl+rhuvGpPJ5fTkuH5qEz22QWqcJoW0ttopimSt/fWc1Ta0q0YNVgE3EOu4dMDQXxCt37F2rjcF0by3ZXs2ZvLbMnpeN1OZg8LCHk2TSPlUm36aLbgrDVASOi2S4UzfcnADz41nYm/Pc5jB6awJzTh/P7jwppbvMbU7EOEWpEmOsHD1v2mg2WNMYR7dj9L23g3YcuRCLpT57+4Vn9bcKgRYo7iaQHSE5Ojng8Kcm6pVZjYyMvv/wSDz/8SMzExgC/WlNGIKBGFHZdSkQcaQo2lqgzvHUhYWdPhQKCDp9KbbOP4aleRmfEW4MgdCGmCvwJXk3MJcVzx+lZ/OIsbWp63CuFdPhV3i2s4+Gzh+FxKoxNdrGr0m/LO4cp554u6EIn7WvazMJWE6k20/XgBKOOzeMWbMPnD1DT4ic7xcOY9DgjoMFczrw7hpGDLoI9oc/mNkwnAirfvzCX+4LbqJ3x0FJ8/gAfrDvKz66cgMflIC89nsKjjUa9rgg6fWx0QWe3aVdxPSu2lnHx9OFIJIOVoqKibtdxOp2MHz/wkytLcSeR9CGvvvoqEyZM4Nxzz41ZbnlxE6uKG4MpS+ijKViTqDOdtxAUSIGgCHM6FMxxvn6vm+YRmfiS4sAUAdzkD+ANRrEmOqDdL6huCUWzukQwMXOEpMLhAkWflrWKVIcp2bAQEc6bRG5o+tJkvBAowQAHVb++YL46RZiXJwsaW0PblMW7HChC4HE6cASvuaHVHzk1ihCkBiON65o7UISgtd1vTCF7nAodPpXqhlDuO4cCQpg9sMFrMtltCDpD6IULOju/fG0Lq/8kxZ2k/3jglY1cccaIXvsj4557Yq9pjkR6ejoffvhRL1jTt0hxJ5H0EcXFh1iwYD4vvviPmOX8quB/88tCQQ7RpmCJsW1YV6dgLcLOJups9SKtGxNOB23pIa/luJGpzOlQ9OIg4KM9dRTXhsTKI2dnseJQI7dO1dYbCuBgXXv4tdk8lsI0BmFToQJj71X9uDnCdUJmHFedYl3fuHBbZVhyYm1Nnm4VoQhl80WrguLKFlShCa8bzxpBVWMHF01MN/TswYpmi7ickJXInBnDmDwimdPHpAGwv6IZRLBskPvnTGTNripuPH+UMYaHKpq0gAhiCboYXsMo1Lf4eG7hbn505cTOC0skvUBru9/Yb7k3iLQzUCCg7T7jcDgsKaiEEKixAqcGGFLcSSR9xDPPPMPVV1/DmDFjYpZ7bVs1B4z0IMGXuj3KsrMp2Eh1uuqtU03qwCagAk4n/qQ4AvoawngP7UNCU8+X5iZxaa51KnrRnjoKSprZVd3GKRlx3DotnVunhYTWvF21NLf5gpGeVm+XUEVEQaclJLbvQBEKTgAsnrNLxg/hkvFDLHYt3loZlpxYH1ddlzkdhPLJ6eMINLX6+WBDKdefkc2MUSn84/bpxvmKhnY+21qO02TeRadkctEpod0hhIBXlx1EUQWb99VRVNLIpBHJ3HRBLjddkGuUm7/+KM0tfktQxPEIOjsvf7KXW78xlqQ4+SqQ9D2/unkGib347C1fviLs2E9+8mO2bt3Kc889z5QpU4zjDQ31zJkzp9ds6WtkKhSJpA/Iz89n586dRjRtNGpa/Ty9viI8vYlpfVXURMS2HSbCvGBqKNmxMIImBIpQjaCBMGFn+su2PTWRxjHDactMpSy428ToFA9h+8HacATTcfxg0SG+PNJkaJCAKviwsJbfrjoSSuESNi1rSlkSnHY1Un/YkgQba+iMxMwxzQp6+ixH0NbPqVQEp0VHDYk3BSOEiilC8IePd/Pe+hL8Js/DtsMN/OClTbS1+8OntNG8ZRv21XLXc+vZUVyHECoBNcB9L29i3Z5q45YFVMGCdUf5w3s7Me+soRhpboK2q8F/x+j88AVUHn5l07FVlkiOk8x+2KEiJUXLw7l9+3bL765t27YBkJqa2qf29BaK6Ow3s0QiOS58Ph933HE7N9xwA9dc8+2YZR9ZfoS3d9R0PWAixu4S0M0pWM0vRMDrwhfnwR/vxR/nRVHC194ZSYWDHjUsAsga4WqeylUQJLgcZCW6ONrQgc+vGrrEWDeIPj1q90xFCIjQv5qKGraa2iM43ap7u6zr+Ez1jfK2z0Y5a9sIgcupkJMWT01zB02tPuO8PWWJfiJWypJ4t4OhqXGU1LTi9wdM98VsEz2KAsx9dBYTc1I6LSuR9CTPLCjkvFOGcfr42CmhepK33nqLF154HoDExES8Xi9+v5+GhgYArr76Gu6///4+s6e3kL54iaSXef/993A6ncyZc1XMcruq2vj3zlojbYdObwdMCIeCL95LIM5DR2I8IhgkoQiBA2tdfV2a09ynWTCJ8JQlxrlgW63tfg60+y3t2QWd0Wx3BF2YQAutnwsJLFt9kwCLVN/ap3XMdZsCfpXiqmZjnGKmLDH1HSllSWu7n+LyJpOd0NNizo4AHnhpIx/+6uLe7UgisVF0pIFJI/vWU3bDDTewY8d2Vq9eTXNzM83NoTWv06dP55577ulTe3oL6bmTSHqZF154nrPPPpuZM0+PWe7/zdvPV0caLWLieLYNcwRz3IWJOhRUtwtfvBdfopeAywWKOXhAbzokQhzC7DXU2zIKRlwLZhZ0loAIvR1sHjrzuVgeM9t1WgVayENn9paF2gn1HdanvS/9fARBZ7bHLOjMArI7KUvCPHT98Fv5t7fP5KqzczovKJH0EJv21TAiI4GstLg+77uiooKjR4/i8/lwOp0MH55FTs7IPrejt5DiTiI5AVi0p46fLjpofO7pnHXCpeCP8+L3evDFe0BRTIIkgqALTrd2R9BZxJRd0FmmKG2CzuRtDBN0tt9OJ5qgs/dnEXTBc9EiXK12EnatfU1SvJs1T12OQ67ElkgGPFLcSST9THtAMPv1XRxp6Oi5KVhFyzkXiPPg83pQPS6Lt8xMlwSdabo0XNBZhZpZ0JkFpF3QKWbxZJ4CjSHoLEKptwWd7fxgFHR2bvn6GB64YWp/myE5SXh7xQFOG5fOKaN6Z2pWJjGWSCT9xj82lHOkviPkuRLHtm2YcDjoiHPjDwZDGHUglCYE/bBWTw+IiCbodP1hTPWaBV2YF0/7PixliW7y8Qg6Uzu6oDOS9dpFo3GRIfvCBJ3pnF00YqpvFnTm5MDdEXQ9kbKkr3h7+UHu/dYE0pI8/W2K5CQgf1clmalxvSbuZBJjiUTSL5Q3+fj7unJj94TuTMEKIOBxEYjz0hHvQXU6jfqKSUjphAk6w/MHdkGH6ZxiF3QWLx4RBZ3h0NNtCRkR+toFQacf6pagswtIW1m9/0jTrbr9dkEXNo08iASdmYAQ3P/SRl6675z+NkVyEnD1OaOYMCLy1o09iT2ZcaRExjKJsUQi6TH+uKaEto5Al6dgVZeTQJyHgNeNz+3WAiGC5bWtuqILOmuEK0QUdEFB0x1Bd1wRruY6wTJmQWeOOLXUN8rbPhvl7GLMJPgsNoW8i90SdJbxsAk6wyYGJOuKqthyoI4ZwZ00JJLe4rKZ2b3eh9PpDEtmfMUV36KpqYnFiz8lLk4L5hhsSYyluJNI+onNpc3M31lNrG3DhAP8Xk3M+b1uVIfD5HFTjVQiOseasiSaoNNb7gtBpxeMKOgs3rhQH91JWRJN0HWWsiTUb/g0tUXQDVAxF4kHX97A4v/9Rn+bIRnkfL6plAkjkhmdldR5YUm3kOJOIukHBPC/yw4Hd5XAJEYUVKeDgNeleejcLm2dmT7dqqqdpiyxJhWOLugi5aCzrJ8jFMFqEXRmcRXLY0aojUiCTBd09vVsZkHXWylLIgo6U1n7dKt5mppBKujMlFS38s7KQ9x4UV5/myIZxMxfe5irzxnV5+LO4XBG3Hd2MCHFnUTSD3ywvYqtJU2aeFAUVK8bv9dFwOtGKI6QoAuoxh6B0QSd0yR4oqUsMQu6zlKWaF68CILOEDjHl4OuPwTdMQdEcPIIOjt/nreT71w4CpfMjSLpJU4bm96rOe5mzpyJI8Lz+/HHH4cdczpdzJw5k+TkwbFTi0yFIpH0MXuLK7lnSQWlPkG7y4XPoaDHCBgiDev3AKou0EQnKUtE+NRhuEBRg+varH2EpywJHtf3fI0y3arXDRdoppQlRsmeEHTBPs02Bc9HTVliXj8YS9DZ6p1Mgs7OLd8Yy8+/M6XzghKJ5IRCijuJpA85eLiCG+75I5+/+zhpqYn9bY5EIpH0G4VHGhiW6iU92dvfpgw6pL9dIulDNmzZx903XyqFnUQiOel5dkEhG/bW9LcZgxK55k4i6UOun3Nuf5sgkUgkJwSjhiaSkuDutfZP5h0q5LSsRNIH+P0B/vrSx/zo9m8RHyez/0skEklvM2vWhd2uI3eokEgkXebN91exfvNe4ry991eqRCKRDCSqGtpJjHMR7+mdtCSR0p3oO1EoimKJpJU7VEgkkm5z5szxnHfWZGOrG4lEIjnZ+fWbW7j6nFG9tlOFfWcKgGXLlvL4449z8cWX8Otf/9o4Pth2qHA+/vjjj/e3ERLJYGb3vhK27DyI1+NmZHYGJeU1LFq6gfLKOsbmZdHQ1MqHn3zFvoNlTB6fg6oK/j3/C3YUFTN5fA4Oh4MFn61n8/YDjMzOIC7Ow/IvtrNu027SUhNJSU5g3aY9rFm3C5fLSWZ6Cjt3H2bZmm20tXcwYng6xUerWLx8I9W1jYweNYyauibmf7qOQ0cqmTh2BB0+P+99nM+OomKmTc4F4INP1rJ150FGjxqGx+Pi85VbKNiyl8z0FJIS4/iyoIj89YXEx3lIT0ti265DrMjfTkBVGT40jQPF5Xy2YjP1jS3k5mRSUVXPx58XcLSsmvGjs2lpbWfeorUU7TvKlImjAJi7IJ/thYcYPyYbl8vJJ8s2snHrPoYPG0JCvJfVa3eydkMRyYlxpKUmsmnbflat3YGiwLDMVHbvK2HJ6i00t7RpY12mjXVFVR1jcrNoaGzhw8Vfsf9QGZPG5xBQVeYGx/qUCSNxOBRjrEeNyCDO62HZF9tYt2kPQ2xj7baNdUeHn+ysIcZY19Q1kjdyGNW1jSz4bD3FRyuZMHYE7R0+3v/4S3buPszUSdpYz1ukjfWY3GF43C4+W7mZgi17GZqhjXX++kLyC0JjvXXnQctY7z9UzmcrQ2NdXlnHwiUFlJTXMG70cJpb2vhg0Vp27y/hlAkjAfj3/C/YXljMhLHZuJxOFi3dwMZt+8nO0sZ61dodrN2wm+SkeNJSEtm4VRtr/RmUSI6XFdvKmTwypU+TGL/55pvs27ePtrZWvv3taw3v3saNm1iy5HMyMzO5/vrr+8ye3kJGy0okvUhjUysv/usz8guK2L2/BIDaumbyC4rYtusQAK2t7eQXFLF+8x5Ay8eWX1BEfkERgeA0wYat+8gvKKKltR2AHUXF5BcUUVPbCMC+Q2XkFxRRUlYNwNHSGvILith/qByA6poG8guK2FF0GICm5jbyC4rYuHUfAAG/avSps27jHvILimhr9wGwdddB8guKqG9oBjTRml9QRFllHQCHjlSSX1DEocMVAJRX1pFfUEThniMA1De2kF9QxJYdBwFo7/CRX1DEVxt3G31+WVBIfkERPp8fgE3b95NfUERTcysAu/YcIb+giMqaBgD2F5eTX1DEkRLtuksraskvKGLPgVJtrOubLGPd0tpBfkERBVu06xZq+FgXbNHGujk41tt3Bce6rgmAvQdKtbEurwXgSGm1NtbFZQBUVWtjvXP3EctYb9q2H9DWX+YHhXG0sd6yQx/rFgCK9h0lv6CIcttYFx+ptIz17n1HAWgIG2t/hLHWrtvv1zZR37QtONZN2ljv3K2NdVVwrA8UlzNv4VrWBZ9Tieh5ohUAACAASURBVOR4+cOdp3Px9OG91v5//dd/cfvtt3Hbbbdx2223cu213+azzz5DURTKysq4+uqruOmmG7n++ut48MEHABg3blyv2dOXyIAKiUQikUgkg45IARUul4sHHniQzZs3sWjRIsu5rKwsnnrqT+TlDfxt96S4k0gkEkmXaWhs4V/vr+JHt3+zv02RDHAeeGUjV5wxote8dy+++CIjRozA69WWEQwblsWYMWNISdG2GKusrGTfvr10dHSQkZHB+PET8HoHR0JlGVAhkUgkki6TEO9l/qfrGDc6i8svntnf5kgGMK3tfnyB3vMv3XvvvTHPDx06lKFDh/Za//2J9NxJJBKJpFts2rafpMQ4Jowd0d+mSAYwvZ0K5WRGijuJRCKRHBN+fwCXS76YJScmcocKiUQikUi6QXNLG1fd+jvefv6/yRqa1t/mSAYgf3hvBxedmsXZkzJ7pf2TeYcKmQpFIpFIJN0mMSGOS2dNZ+6C/P42RTJAOVzZTEOLr9fadzqdx/RvMCA9dxKJRCI5Jjp8ftwup9x5RXJMFB5pYFiql/TkwRGheiIhxZ1E0oNcv/gIa8tb+9uM6AgQgCIEqKEffUUIEAJFgAI4hAgeI3g8WFYIFP2rXj1YFxFqR+/LqBs8ppjKK8HzelnF1E6k8uHHotlh+pVmtgvCbDP3pQ+OEnbcOn4nM0IBnE5UtxPhdiI8LnC7eOLKsXz7a72zhZREIuk+UtxJJD3ERwca+dGqsv42IzJmUWcWTyYx5AgKG0eUMp2KOuOYXi6GqDOVtYg6vQ9z+2HHzLaZ7Ygh6ux1zTbYRR0QJuxO0t+SqtuF8LoQbqf2vcsJDs1Lp5jGMklRWffoBfopiaRLvPzpXs6cmMH0MUN6rY+WlhZ27dpFeXk5QqgRyzgcToYPH86UKVNknjuJRBKiLSD43caq/jYjHF2v2Lxq1u81T53DLrBsok4vi02M2T1ukbx84fWjePlMfWHv32Kb2Y4eEHUmG+zjd1KgKKguJyLOhep2oXpdCLcbBfuYWe+hfrxZwJMLdvPw1RP7w3rJAGXz/hpyhyX2Wvtbtmzhscceo7a2pkvls7KyeOKJJ2W0rEQi0fjT5mr+vKVrv0D6BJM+ChN1wRO6qFMMAaUfN4kqU1mrJy3KNGqYIIsi6sBSN6aos9hmt8PWFpHbN7cBtrInm6hzKKhet/bP40L1uFFcToTpoYkkeO0eV+0ehe6FUxWs+vk5pCd7+vRyJAOXzzeVMmFEMqOzknql/ZtuupGjR4/i9XrJy8vD4YgcQxoIBDh48CA+n4+pU6fx/PPP94o9fYkUdxLJcVLa4mfWB4do8Ud2+fc5wXevolq9WpZ1dUFPXSRRB1inYGOJOqx17SLN7uUJ8/IRasMi6sBaTljbDRd3EUSdrY2TUdQJp0Pzwnk92leP5pETEHbPsRzD9uwQLuqM8qGyZ41I5J8/+FrfXJxEEoPa2lquueZq4uPjmTfvAxITY3sIKyoq+O53b0BRFD7/fAku18Ce2BzY1kskJwD/X0HViSHsTKJOsbyYbaIOq7iJGixhE0uxgiXsIq0zUQfhwRJRRZ2tnPE5aEfnwRJ2YWoqaxu/gYxwOVHjPahxQa+c1wNOh8nzJoLDceyiDjC8dUpYWUHBkQY2Haxj5miZ907SOb3pudPFmd/vp6qqqkviTlVV3G53VA/fQEKKO4nkONhQ2cb8A439a4Qu6mwvXHsErD1Yos8jYG19EbENs/3h5TCVi7muzjhnvgas7ZjGbyAhFBBulybg4tyocR5EghfhUCKKYl3UCds9N5+Puq4OrN46+zOC9fkQKDzw1jY+f7j7yWMlJx/z1x7m6nNG9Yq4S05OZuLEiezevZvvf/8WEhMTo6bsUVWVlpYWAE4//XQp7iSSwUpTUxOKosT8a08V8Ni6yv7TBp2IOuh6BKx2jHBRp5+PIQjDRWEnwRIR24hmRzdFnXE9NlFnuk7z+J3oCED1elATPASCXjm8nqCQs48fFoFtiDpCn+2ez/DoaULnbaLOOB/hOTPXKW308ebqYm6+MLf3BkYyKDjvlKGMzEzotfYfeeRRfvObX7Nv3z6am5s7LT916jT+53/u7zV7+hK55k4iicBTTz2Fz9fBQw89HLXM23sauD+/vA+tCmK8sDsPlogZAWsqaxZ1RltdEHVaWbAIr2iizlSv0wjYsDoxRJ2pL4uosxy3jt8JiUMh4HETSPASiPcg4jwE4jym1CPR1jYSJuqM03ZRh/kYluNdXVcXyftnX8sYp8Da316MaxB4QCQDG1VVKS8vp7KyAlWN/MPvcDjIysoiKyurj63rPaS4k0hs7N27lx/+8Ae8+uo/GTlyZMQyTT6VCz84REWrv+8MM73LzcESfR4BG1Y/RgQspj46ESWWsua2iNy+uY2Q4h0gwRJOB/54L/4Eb0jMeVyAEhJxQcJEHdiEN5Z71SVRh7kOlrEOm4K12RIuvm1jHjx+zYwsfnvzqT0xWpJBSuGRBhK8TnKH9l46lJMVOS0rkdh4+um/ccMN340q7AD+b2tNnws7XdR1O1hCf4lD+Avb7nEzv+AjCooTMALWXPYEFHXC5SCgC7ngVzXOA0pIpOv3zzoFGm1tI2HCzLyuTq9rFeJ2MXzs6+qM45HG3FTm481l/OeVE8hKi+uJYZQMQpZtLqWhxccvvjutv00ZdEhxJ5GYWL58OQcPHuJ3v3siaplDjT5e3lXXNwYdj6gDi7esxyJgg2W7EgFrPWayI0K5MLsgzLYTPQJWdbvwJ8XhTwx65BLiEa7g1KT5/qnC2P7NIaz3QTF/Nd2/SFPY/bWuLkwsWspo51Uh+Nmrm3nrZ+cc42hKBjtXnJnDWysO9Fr7RUVF3a7jdDplEmOJZDDR0dHBLbfczJ133sk3v/mtqOXuWFbCZ4c7X5x7XOiiLuzFbBJ1WIMlPA744elDw9am6SLt8331XDY2BQQsLKplf02b8bK+82vDSPI4WFfcyFfFDXidCveek629qE1t6ba99MUR7j4vx+hGAaqaOthT1sTGQ/XGMb39MZnxXDE9i9yMeMrr21i5s4qNB2oB8Lgc3H1xHgAb99fy1R4tGfT03FQumTqU7CFxHK5s4ZMNpewvbwIEHqeDuy8bG1W8vbBwd0StN33MEC6enkV2ejyHK5tZXFDC/rImw467Lo/+S/2FRbtxO0NlNhysZ01JM/5EL/7EOALJ8bi8Ln461bSVks2Iv26oNKZNx6d6uWZ8CnkpbsqafSw92MiGkmYUIbhpajrDEkx/e4vgf8HmPthexXVTMxDAhiNNfHmw3uhrVJqXq6dkMGZIHJXNPvL317Fmv/bHSLzTwd3njjBse39zBWX1baQnuPh/Z2h7w76x9igNrf5woRj8NtIUrI51uYBm8t//43TOnZwZdVwlEtAemyjBrMfMrFndj9pOT0/nww8/6llD+gHpuZMMCioqKti5cyejRo1i3LhxxvHm5mYKCwvJzc1l6NChMdt45523SUlJYfbsy6OWWVPa0rvCToTe42HeHNNLM1KwRJzDwX1nDova9Lwd1fz0nGwUIMnj4InlR0AIRqd5eOiSUQB8v7gQRQi8DoWfXhB9WvpfX5Xwk4sjR0MuL6zmP9/cbixevnhSBn/+f1PxukKL6++clcefF+3h1RUH8TgUfjRbu2cvLzvAV7urufG8XB66fjIO02/7O74xlv9+eSOrt5fj9Sr88IroW139fdEe7H+3fu+i0Tz0vanWNmeP539eLGDV9go8bgc/nBO9zacLylHSEowyz2yr5RPTlnOKEMQp8N8zM2K0UYGqwmV5STw7exReZ8iW/5g5lN9/Uco/NlZw87QMThkaH7WdgsON/PQ8TaT9fW0pXx7QxNsFo1N49rqJxLtDY33X2dm8tq6UJz49QJxH4ScXjTLONbb5eePLo2TEu/jxJZrAXrC5nMbmDq1AmKeWTkWdNhahug+9sZUVv/161GuRSBYXHGXJ5jKevGMmLmfPB+E4nc5OywghUNUTIF9pDyHFnWTAowdAdHR0IITgwQd/wZVXXgnA3LlzeeWVl/nZz37GtddeF7WNyspK3nzzTf74x6ei5jjyC8Gv1vfS/rGxRB0Y3jojWMIyRad780JCoaE9QK1tTWBZfQdbSps5LTuRy8en8cSywyhC8M2JmqepqtlHwaG6oA2heo1tfmpbrG2ZvYONbX7qW/2MHKKtrbpkcgZXnDqMjzeX4VQUHrlqAl6XAyFg6+F6xmclkeh18pPLx7GooISWjoBlHFLiXNx31QQcioI/INheXMe03DS8bgcPfWcKX2yvMKY0ARpbfdQ2dcQc3pQEN/d9e3KozUN1TMvT2vzF96axZsdyS/mGNj+1rX6Ew6G5ExRoGjucBHeEZ0OE0tEoJrsaOgLUtAWMMqBNwTqBX1+QjdepxaNuLmthYnociR4HPztnOPMLayht9JHgduB0KIxM0bbzqm/zU9cWAAEd9qTZQuBE8Pjs0cS7HQhgy9FGJgxNINHj5Nazspm/pZKjta2WauePS+ON/CNhbRlfzaLOOGYWcRGmfG2e45qmdl5cvJd7vznwp7okvcPF04fz4ZeHWbq5jMu/NqJH23Y6nSxfvqLTcg0N9cyZM6dH++5PpLiTDHiWLl2K0+lk4cJFPPzwQ3zyySdceeWVBAIB5s/vmnv9739/gQsvvJDp06dHLfNaYT2Fte09ZbaGaelST2wXpvPW1iqe+qLEKhYFLCqs5bTsRHJSvUwdGseu8ha+OSkdgE92VSPUYHmTSHlnQxl/XnLIMsWb7A39JfzuuhL+8tl+Zual8q97ZgIwY1QyCzeWMiI9jhFB0ffs5/t44fP9jM5M4OMHz8frcjAtN5V1e6pN4yE4JSeFRK/2q+mRf21hUUEJc84YwRO3ncbIzASGpXppavMZVf696hB//bAw5jBPHpVKYpzW5qOvbWbR+qNccc5Ingy2mXjaKOpcbqP863saeWJj50JeWwtpGnuTrvnXzjqe/EpLlaMLc4QgN8VDTrLW1/99Vc4z68oYm+bl8+9PxutUmJGVwL3z96EIyEp0seZeLeL0lYIKnvuyBEUIkj1mkak9C9kpXnKDY/23lYd5fvURRqfHsfhHM1GAs/KS+bC2xWL/mXmpeBxWMU/w/ndlXV0sUWeu8+Kne7n162OJ88jUKJJw4jxOnvvx2TgcCqoQ7CttZMKIlONvNy6OtrY2qquryciI7lEHKC+vACA+PrrHfCAhxZ1kwNPU1MSQIekkJSWRnZ1NYaG2iHbVqpU0NTV1Wn/Hjh2sWrWKN974V9Qyde0B/rKlpsdsBkLr6nooAtay1g6TWDR5XRYXVvPQJSNRgMsnpdPY5mfqcC0NweKdVYaoU2wvcuvCfgGqbXGMgE0H6qhv8ZGa4CYrxQtCkJ0a2kT+QHkzCDhU0YyqChwOhZwhcdZ1cwIyk0Miq6quDUUVHCxrJBC0LTs9nj0lPrpD5pDQL+zipATqZoxma0Yq/uB1Dh2VTnVd94S7JXm0MV7mcREWUaeTkxT6tbu/pg0FOFDbRkAInIrCyGSP4QEMWz8ZYdpIEYAqyDGPdVULqIKDlS2hdtO8VhEHxHuczBiZQl2LaTy7MQVr/mNDtzEsclZAhy/AQ69t4i/3yH1nJZFxBPM5Hihr4q6/fMmtl47l7ssnHFebY8eOZefOndx1151MmTIl6n6xPp+Pbdu2A1iW9QxkpLiTDFref38es2fPZv78+VHLCCH429/+yi233BIzgeUfNlVT2x6Ier5b6KJOCMs0nj1YQp+C7TQCNvh9JK+fXRCWNbSz6UgTp49M4vKJQ2gKTt2WNXSwsbgxVM8m3kLtmV7qxvWErqPNp5IKmhALigqjmBqyQ7fUoWATD4IKk8iaOXYI64uq2HGonpk/WWiMX1J89F9d5ohVf2Ic/sR49g4PbW902oRMVm6tYUt1G3mv7zWOJ3fFq2QTopjFlsB2P63CTk9t4jQ1InQvqX6vFG3a1oiCNWs58/239Ksdd5nGWlWD5Qi161IUy1iX1LUxIi2Oc8cP4ZMtoWTcFs+t+ZmKsa4usriz1l+2uZTi8mZys2ROM0l0xmUn8++HZ7G/VPvDvL7ZR0qC+5iCLX74wx/x85/fT01NDWvWrOm0fEpKCnfddVf3OzoBkeJOMijZt28f27Zt5b777osp7hYvXkx1dTXf/e73opbZXdfBm7sbjt8os6gzvfjMnriubhcWcQ9Yc/b1oDcnkpfvk11VnD4yibEZ8dx65nAAPt1VpSkCm2fH2ofJe2fvK3g+waNN1+4vb47o9dFtveDhpQB0+FQ8LsXS1o4DtTS2+kiOd3P7peP4bGMpB8ubItsGBOI8tIzMMCJWVVf44uktVe00dKikeBz8cOoQPj7UxL762Ov0rHYH74slw3248FFUk0A0xHoEYa5jynN35vNbUYSgzaciInnu9Ppmb6zev01IaX1G8vKFyuTvreU7Z2Rz3rghLN5cFma3pY7lWbT2ZZ+CtazPM85rX+57cQPzfjkrzC6JxMzwIfEMD3rb//rRLnYcquM33z+NSSO7N1U7Y8YM3n77Hdau/ZKKigoCgcgBE06nk+HDh3P++eeTknL808EnAlLcSQYl8+a9zxlnnEleXl7UMq2trfzjHy/yn//5X8TFRU+0+vj6SmP67pjQ38Wi+xGwkXaHiLldWJBzc5P5xUUj0Qs8u+Yoze2al+7TXTU8dOloHApkJWtTeYu2V4W8fFhFwDlj0vj57DHGtTy//KClr3i3g6xkN986bTjJQY/a5oO1YZ4eQxQKNI+hEIDA47T+Gmpt9/P8wt088J2pJMW7ePm+c7nz/75kX72PQJLmjVOHhLw/Z00dxv2Zycbnv2ypocln/SXe4lf585ZqHj9zKMkeB+9dnsN3Pj0aVeBdkB3PL8/INK75r5uqaepQw8Sq2cul3cPQufNGJvHwuQr6A/DM+jKa28MFtD4t39SmBofELMptgs3w8oULeSyXHL67hKGwgqzdW8P1X8tmWk4yKXFuU7GQSAtbV2c5H8WWMG9e6DL2ljTw+aYSLpvZs4vmJYOXR286lU/Wl5CaqD2jWw/UMiU3tctRtRkZGVx55eAJlOgqUtxJBgna20N/nxQWFrJnzx6+8Q0tBcNf/vIXLrjgQks6lDfeeIPs7GwuuuiiqK1+UtzEypKWqOe7YBIikqgLnujR7cJMXqXp2YlMzw4JoFfWltDSptWvaGjnQHUr4zK1v4xbfQG2HWmIPM0GnDoymVNHhsTTP1cV0+4LTVHffP4obj4/lF7jTx/v4YtdVZYxMNo0+rAJU3MZh8I/vyxhVO4QbjprBENTvbz08wu4atFhjjZrAtVtmkI9LTOO0zJD4vyFHbU0RViS94+ddYxN8XDrpFSGxbuYOzvH0qYZe5t/31pDU5hHi6B31DT9aopYnjEsnhnDQmv9Xt5YTrPtPun3OlzUmcbDMn42oWU5brLNLqzBKryAqoZ29pQ1MTE7ibPHplmKdjoFG1HA2W0Fu5AF+M2/tklxJ+kyDkXhyrO0nJqqEPz1o10crmzhnV9cSHqyt5+tO3GR4k4y4Bk2bBhlZWWsWrWSHTu2k5Mzkptuuonm5mZ8Ph+/+tVjXHXVVaSmphp1SkpKeO+9uTz99DMoURZz+FTBbzccY+qT4Lut02CJKKIOrMESMUUdprpBqlt8VDT60AsE/KohKoYmuhiTERId8W4n00Yksf1Io9GPIkLiqaa5g4oGPe8Z2tRGDE/m2eOH8K+VB/D7I4mLkOdKEQLhcOBPCImo9mGp1JwxAaEoPFjYTEpWE1fmJZGV4OL1S3P49ieHaeyweuWq2gKUm1K12LOEmHn0qwoy4pxdb1NohkeczhHaNK3Vq2q6B61+Kkwq0+/XPG/W9YqE1iKa2gmbzkUfM8K8ZZqnVY1Q1i7wTM9L8GP+nhomZidx7sT0UL2ATURGsO1YRJ1OfYuP//uwkPu+PTl6IYkkAg5F4eX7zqPwSAPpyV78AZUn5+7gspnZnDkxw5LDEk7uHSqkuJMMeObMmcOyZUt59NFHSUtL47bbbmXqVG2vQp9Pe7mOHz8ejycUTfjcc88ye/blTJo0KWq7L+yo5UBD96IyjysCFkLeOiEieEtsL2y7l8/kNXp/SyV/Xl4cURB+c3IGDgVqW3ykxLlwOhSumJrJ9uL68N0ogHnrS/m/T/dbpuGS4kK/Oj7dUs7CDSVcftpwrjw9mwsmZ3LFzGzmrztq8VIJh6IFOsTHkTcylUC8hwrhpMGkBFSXCxH8BR0Q8KOVZTx30XCuzEticpqHX50xlPvzQ4v/Ad7Z09CltCXdafPdonqeXF9hOaaoAsUk8szT1/avAHN3VPPUF6XGeBr30xYMod+XMelxIAQ1LX4aWn1h3li9fPjxCFOwYcJOE2qKzWuYv7ua22flMiM3NaxszHV1Wrdhz6dxvBNeX7KfO2ePJyVBvoIk3WdMlhYg1eZT2VVcz5isJKblpRnpjnTuuefubrc9WHaokEmHJAOeIUOG8Oqr/2ThwkV89NF8Q9gBuN1uVq1abUlgvHHjRjZs2MCdd94Ztc3K1gDPbqvtuhHGzJiwbcGkRTYqqsAhtOk7p17GWEwf+qqvq7J4aNTgMVW1vNy1dlWLIAzZE/LsGXWD692+NVVbS/bJ9koKgluFfWva0FDkqmnfUwNVDQZc2Lw4wJHqFpbvqOSxd7bTHnSbTcxJwZecQEd6KEq1eXQWDZNG0ZI7lMW3T2H5jRP43oTYi5f9QvDjVWXG2rjrxyaT6Dq+X1uR2kxyKjgCNrdWEPNat7DpUP28fp/DpkL1e2c6bypiFuuL7jqVT++dwXdOzQxF0FraIjgNrIZ5/yJ6UkWE+2grt2F/LR1+Facj1GLYHxVh9x5ThG/oOevMY2fGH1D5+UsbulZYIjHx5vIDXP7oEvaXNZEU5+LNBy7g5kvGhAk70Lxwx/JvMCD/bJIMGpKTkzsto6oqTz/9N+64407S09OjlvvthioafTHm93R0T53N03YsEbDaMazCzO4ZieLl00SELX2JWSAE62anepk5ShNUn+2oYvzQeM4ek0ZWipeZI1PYeLAuVN64RmF92ds8QEJR8CXF0xrvoaY1QHayg5xxmTQe7KA9I6HzMbRxz5Q0HjpdE6Bj/7UXnyp4Z28Dj3wtE49TYXSKm+JIi+qOo80xSW6KG23BFSKCx9Wc6gRwmMU1WMST2VNmXlcXLtps068ivL5RDhFenpDANJe1PD/GMato7Wj3s+lAHWdPMP8siPB7rtsVoY+uCjo7awurKDxSz+SRqZ0XlpzUtLT7aesIkJ7sJc7j4JkfncVYU3qjaHRlZ4rBivTcSU4qPvroI9ra2rn22mujltlW3c77+ztJfWJ6/9m9cGZB4FQFDlXVRIFJnOleHEsSYlX3kgiLsNA9aSHPj6kfXVzYXrz2QAu9/LemZKIoUNPsY+PBOpbsqDSqXTF9mNUOy/UKhBCoHje+tERas0NioC0zlcaxw2nNTscfVDl6fjvzWrb4YMoTj1Mxzjd0hOcObPYJvE4Fr1MhLrj3amVrqJwz8hLJmIS1KaDKtE7PYYsk1cYh6HFVRSjnoG1MLAI7QnSwHk0rTM9HY1uo33indq88DoeRxLWxzR+egBpQsHl1DVu1so2m7ebiXQ4UVeBxKMY6pHrbdnR6G/lFVeHHI3rlzN48oUXnHqOw05oR/PffpfdOEpv8nZXM+dUyPikoAeD68/OYlpfWSS2J9NxJThoaGxt55ZWXeeSRR3C73RHLCOCxdZVhs1mWAsEv9ulX7UQPR8DG8PJZ61u9PBOGJnDVtEyL3Qu3lvOt4LElOysJBFQqGzrYXFzPzLxUZk8byhPzd6PaLn5s3hC+cfkpqB6Xkb14yZHmKANk5UBjhzZWwO2T06hpU7kkJ8EYg/0R1jQeaAh50B49I5NlR1u4fXKqfhkcaLTWmTzEw3VjrV7bD/Y3WnSHpc2vZbLicDO3TU4z2jzYYPXaTRri4brxqRZBN7+o1vJ5YkYc354YesnUtfrZVNJsOh/PVZM1EazfvwU7qymubTXG5OavDae22cescUOMMTlY3Wp6ZqxJksOeN+Oc4FBlC6oQOBSFG88ZSXVjO7MmZRjJXw9WNIclWVZUwZeF1fzMnCnCPgVr9x7rx3uAI1UtfPjFEb59/sieaVAyaKhr6iAtycPIzAT+cu+ZzBg7pL9NGlBIcSc5aXj11VeYMGEi55xzbtQy8/Y3sq6iNfJJERJ13Q6W0F/KYBVlwc8xI2Dt0342UWe2QefiielcPNE67bytuJ5pOZoI+mxbpZHG47PtlczMSyUjycP0M0exurwNf0oogvXrY1P5+ljr1NnUd/ZHHCJdO+jL4ho6VN7f18h3xiUzMzOONy4NpcDYUdPO+opWEt3WCYSvKlrZWdPOlHQvd0xO447JIQH13r4GGjtUy24Sl45M5NKR1l0PPjrQiHkJnaXNU9K44xRTm3vqaWoPkGyy4xt5yXwjzyoYFxbVWnaG+ProFL4+OrRmcFt5C7fP3W18vmRcKpeMs47bwp3VNLb6mb+9imumZTJjRBL/uPEU4/yusmY2HqrXnococ54R06UIaG7z8WFBKdedOYIZuSm8eNdMo0hFfTufby7Dax7rYBNFR+upbepgSJLHeq4Hp2Bj8eTc7Vx97kgcch5Jgra7zZ/n7WTJ5lIWPP51coclkjvs2HY1ee655wA49dRTOf/883HEeMh8Ph+rV6/C4/FywQUXHFN/JxLyx0lyUnDo0CEWLFjAT3/606hlWv2C30eKutTfpXq0pMl7Yg6WcAprsIRlGtUob0tEGylYwmjXOnVLsC/zlJ1ugz6VG4tvnarl+Ktv9bO61kdr9hAaxmbxfmvo18AV04bij/dyTHv9AGXBqc480/6wv1xXwfv7Q2JLAPllFOb7kAAAIABJREFUrdy9vDSih1QVcPeKUvLLWo1L8gvBe/saeWxdZbdtUoRABAT3LC0hv7Ql1KYqeH9PPb/+oty4DzExi+xI/WDVQxHLBO/T/356gPnbKwkEKwjgq4P1/PTdQkTQY6fda+t1hJ4Ts/AKLQ34/fwi3vvqKH6Tst1WXM8P/rGB1o6ANSAk+GALVbDWPDVrWavZM1OwsWhp9/Pbd7f3TuOSAYfToZCZ6uXNBy7Ec5zBU++88zbvvPM2jzzyMN/97g28/vrr1NZG3iO8tbWFxx9/nKee+uNx9XmioAjR2a8jiWTg8/Of38/o0aP58Y9/ErXMHzZV89etph983VMXbYpUhNJhHNN2YfbprihevvD6Ubx85vYB4VAIxHkIeFwEvB5Ur4uAu/+c9W6HwsgkF+UtAVpiJaMzkeBykJXg5EiTH19n4suOLn4NL6cItZno4mh9B76AarmPFuFunv4Gy33SymDcMxHh3ht1I0xx6nXdToURKV4qGjpo8/nDzoe1Z7JDsd1/cxm3A0akxVPT2E5Tm7/z1CbmdizX2p0BP3YcDoWlT15KhkxKe9Kyans5e0sauXN2z+WYmzXrQhRFIT09nerqakDLoHDRRRdx7bXXceqppxplGxrqmTNnzqBJhSKnZSWDni++WENRURG/+tXjUcuUNPt5cWcw9Yn+zhThL3zzy/dYtwuziDCzqNPbMJ2PKuqC9unlhUPB73Hj97oIeN2ocR7ULm7P01f4VNHtvIEtfpUDDV0TgmbCAg9MwqbVF+BgjeZhtOwugS1fnV3UBb9XbPdMmD/bBJT9DwO9T71Nn0+luLolrG2zLRGn7yHUrt2LJwT+gKC4stlYKmC2KVKdsHHqQ2EHoKpacMVr95/Xd51KThjKalv55eub+fO9Z/R42w6Hg7lz32P16tV88ME8Nm/ezJIlS1iyZAnjx4/n2muv47LLLuvxfvsb6bmTDHqefvpp8vJyufrqa6KW+Y+VpXx8oCm6qAPj5WsES0QTdaayFhGHzeMWVUjYRWHIBoFAdbpQPU5Urxu/x43qcSEcxzaNOtjQpi6DH2wixroO0irqjLoR7qO5jvmeHY+oC3lnRVjbIVttXjTbNdjngHtzy7C+QfDqz87jaxMz+ssAST8Stu6zB5g160KcTqclJcqBAwf48MMP+PTTT2lp0f6wSkxM5OKLL2bhwoWDxnMnxZ3kpGd9RSvXLjqCSqQXZOjlq0+/9uh2YTYvn/1FrzqdqB4nAY9bm151u0AKuXBE5ClY8znzfbRvGRZ5Opww72mYqDO1YxF1lvYJv/dmUWezJeYUrL1PuiDqjHZOVFEXImtIPJ//7hv9bYakj2j3qTy7oJAfXzXZGuzTQ0QSdzotLS18+umnfPjhBxw4cMA4PljEnZyWlZzUqAJ++VWldX9P+j4CViggXE4Cbheq24nqCgo5qeM6JWxHD9s54z5y/OvqBITdf6sws9W1tamLOnPboboxRJ1xzP6MhttqbcMm6kz2Wp/L6OPbl5TXtvLKp3u58/KBv7enpHM+XneYnYfre0XYAeTkjMQZZXlKQkIC1157Lddeey2bN2/mgw/msXv3HtLSBkdSbem5k5zU/KuongfXlBmf7cESRvLaCN6aToMlbJ4S45jDgepyEHA5Ee6goHMNji1v+pJY6+q6PQUbdq+w3G9hv4c6tucj1D7hog5r24adlv5Nz4/JnmieSKOvsDbC60Selo04tP2K2+Xgy79887gjJSUnPoWH63E6FSaMiL0NoaT7SHEnOWlp9KnMmnuAila/5WXZk9uFGR45lwPV7UK4nCdcoMNAQzHGmpjCp9/X1enlurquzmJ/hGtjMKyr6xrfOmMEv7/r9P42QyIZsMhpWclJy582VlHZ4jME2fFEwGoHIeByauvkXE5UtwMhM7P2HCLGujpsU7Bh96v76+qEqa5ZNMVKbWI+3qPr6oTAnBSwS+vqws6Zjp/gLN5Qwk+unsyood3fm1gycHh7xQFOG5fOKaN6Zyr0F794kLy8PPLyRge/5pGU1PmetIMBKe4kJyUHGzp4bUetxcMTEgSEizowygoEqqIEvXBOhFObZhXHmPhX0jldWVcHIa+rfdqzq6lNjFN2b52lHfPnUDu9sa4u4hRsWBvhdcJEnX58gCAE3P/SBt596ML+NkXSi+TvqiQzNa7XxF1+fj75+fmWYxkZGYbQMwu/zMzMKK0MTOS0rOSk5NbFh1le3GRMv8aKgFUVBZwKqsOheeWcCse6g4OkexiiDsJEzIm2rg56MLVJJFFnuYYuiDrjWOSxHQj87YdncPH04f1thqSX+HxTKRNGJDM6q3e8aV9++SXFxYdYuXIl27dvJz4+nra2NiLJnsTERPLy8pg8+RTuu+++XrGnL5HiTnLSsfpIMzcvPBQWAQsC4XAgHArCqSAUB6rDISNW+4HurKuzRL3SxXV16N/3QmqTWKLOYn+Ea+PkWVfXFVIT3Kz+0+X9bYZkgPPmm2/y97+/wP3338/s2Zdz+PBhDh8uprj4sPH9vn378Pl8gyYVilwQJDmp8KuC3+SX4QSEAgGng4DHiS/eQ0diHL54D36vm4DLpQU+SGHXtwiMPVW1/VJVq9DR9+wN7ufrMIkyRQgctv18ESK4N6pVfOn78QrjuMkTFjxvF2CKwLKvr3ZMxdgH1uzB0/uweetCewODXdhpdazeOovQs9loCDjz+V7eB7avqW/x8dzC3f1thqSX+HxTKQfLm/qsv/b2dkpLS4L/Sikr0/+V4fN1b/ecEx255k5y0lBT18Q9D/ydO/7rDhoCkd5+IuK3XTsW+W1qmQ4MqxvjDdyFl7MStd1uNnSiYDfVLHxs5RRzhWjXa/rW4sGL2m8n9984LsI1f6f3MnbbMZ+TSG2EnRu85GYm9rcJkl5i/trDXH3OqF6blp0//yOKi4tZv349oO1WFA2Hw0FWVhZTp07rFVv6GjktKzlpEEKwc/cRpk4a1d+mSCQSyUnPR2sPMyU3tdfy3M2aFR6Q43a7ycnJYfTo0ZYo2tzcXLxeb6/Y0R9IcSc5KQioKk6ZlkQikUhOGu69956wqNicnByczsGfNF6KO8mgRwjBrT/9K/959xzOPE1uaySRSCQnAl/srGB0VhI5GTKfYU8jXRmSQc/i5ZuorWvi9FPH9rcpEolEIgnyzsqD7Cyu728zBiUyoEIy6Lno3KlMGpcTdQNpiUQikfQ9p41NJystrr/NAKCpqYkf/OAHpKWl8swzz/a3OceNFHeSQU1AVUmI9zI2L6u/TZFIJBKJibsuP3GWyahqgOLiQzQ1pfe3KT2C8/HHH3+8v42QSHqDkvIarrvjSb5x4XRSkhNYsmoLy9ZsIyEhjsz0FDZs3ceiJRto7/AzakQm+w+V8/7CLymrrGPC2BHU1jfx5vsr2bXnCNOnjAbgpTc/Z+O2/UyZlIvL5eT9j78kf30h2cPTSU6MZ9marSxdvZW4OA9DM1LZtG0/C5cU0NLWQW7OUA4druC9j/MpKa9l4rgRNDS28MZ7K9hedJgZU7U+Xnl7KRu27mPyhJG43S4++GQtX6zbRdbQNFKSE1iRv50lq7bg8bgZlpnKlp0H+fiz9TS3tJM3cijFR6uYu+ALjpRWM2l8Do1NrbwxdwXbdhVz2rQxALz27nIKtuxl4rgcPB4XHy1ex5qvdpKZkUpqSgKr1+7k85WbcbqcDB+axrZdh1jw2XoamloZPWoYR0ur+ff8Lzh0tJJTJoykpbWd1/69nM07DjIzOP39+twVrN+8h/FjsvF63Sz4bD2r1+4kY0gyaamJrFm3i89WbEZxOMgeNoQdRYeZ/+k66hpbGJObRWlFLe9+uIYDxRVMmTiK1rYOXnt3GRu37ef06eMAePP9lazbtIcxeVnEx3lYtHQDK7/cQVpqEkPSkviyoIhPl29CACOy0ince5QPP/mKmromxuYNp7yyjnc+XM2+Q+VMnTSKDp+fV99ZysZt+zlt2lgUReHtD1bz1cbd5I4cRkK8l8XLNrIifzspKQmkpyWzbtMePlm2EX9AJSc7gz37S/hg0VoqaxoYPzqbquoG3vpgFbv3lzJtci6BgMorby9h47b9TJ8yGofDwbsfrWHthiJG5WSSmBDHZys3s/yLbSQlxpORnsz6zXv5ZOkGfP4AI7Mz2HuwlHkL11JRVc/4MdlU1zby1rxVFO49yqmn5CGE4OW3tD6mTs7F5XQyd0E+XxYUMmJ4BkmJcSxdvZVla7YSH+9laEYKG7dqz2pbu49ROZkcKC7n/Y+/pLSijoljR1BX38y/3l/JTvPPw1tL2Lh1H6dMHIXb5eT9hdrPw/CsISQnxbP8i+0sXb0Fr1d7VjdtP8DCz00/D0cqeW9BPkfLapg0LoeG4LO6vbCYGVO1Z/XVd5ayYcs+Jo3PweN2MW/RWkrLaxiTK/9gG+gUHmnAoUC8t3f8TE8//TTr1q3r8r+ioiLi4+O58cabesWevkR67iSDlm27DnH+WaegBjdcr2topqyijtbWdgAam1opq6hjVI62p2BrWwdlFXXExXkA8PsDlFXUkZQYmjYoq6gD0JLfAlW1DVRWNdDR7gv20UJZRR0twT6aW9opq6gjJzsDgLZ2H2UVdXjc2o+eL9iH3idAWWUtakAQCKgAVNc0UlZRR4fPD0B9sI/mljatj+Y2yirqyBqaBkB7h9aHPg2tqqrWpyf0415eVUdHh59AIKD1Uav10d6hX4c2Vs3NWh8trdp1DMtMDfbhN8YCIBDQ+nA4QxngKqrqaWvrwB+8jtq6Jsoq6mgLjpU+/vY+0ockA9ARHKuAqtUXQlj61PtobmnH79euoybYR2tbBwANTdpYNQX7aA32kZaaaBn/Dl8gOFahPgQCUKiorqexsdXoo7Zef46CfTRqfYzNa9WuI/gcJSXGa9fh9wf79IVdhx7PVlXTQG1dM76gHfpYtbRpz1FT8B7njRwGQFubNjYJ8VrqBv1ZTU6KC7Ybelb157+qpoHqmkZ8fu05qrNdR1NL8OdhhPXnwet1a30E77HeJ0B5Ra2WO1kNPasVVfV0dAT7aGgKPqv6z4N2HSOGa96R9uA9drtcwecoYOkTtOsIBFQCwesoq6jjzy/M59yvTSY+PvRzIxl4PLugkKvPGcVlM7N7pf25c//dK+0OBGS0rEQikUgGFM0tbSQmnBhrtSTHzjMLCjnvlGGcPr53pkKfeOJ3XS7b0dHB0qVLB832Y1LcSSQSiWRA0uHzG15wieR4aGioZ86cOYNG3MnwQYlEIpEMODZu3c+N//GUMW0vGXgUVzbT0HKi7OmqkJqaSkpK7+yW0ddIcSeRSCSSAcfMU8fgdGpBTZKByR/f28FXRVX9bQYAKSkpLFjwMa+//kZ/m9IjSH+2RCKRSAYciqLwu4duxuuVQRUDlYwUL/Gewb8VWH8g19xJJBKJRCIZdBQVFXW7jtPpZPz4Eyf/3rEixZ1EIpFIBjS/f2Ye37vmAkaPGtbfpki6QUu7H7fTgdvVOyvEZs26sNt1BktAhZyWlQwafr+higP1HSjBv1f0v1q0bGUaRhY28580QqCYzyGs5wHFckgYxxRzY1H/TIpxPmirYj4tQraGriV0TYrpfHi7el8ROovxZ5x5zJSwciK8r0h9mj9HOGT/ENl+UPRrDTse4aB90KKZZByPNC6hY0qMWxWy1/R8Cdu12Ju2tRuxf3uPIooBEgNVaMKg2afS0u6j6mg7Z57fzuhR/W2ZpDs8+MrGXs1z53R2f8r3WOqciEhxJxkU5Je28MymKst7UbGJNvN71aG/lEVITJhfqGECUW/LXN5SJ9Se+XOkd7kiRLiIECEBZfQdQXDZBYbl+0hCI4aoUIQIFx+R2hGdjY/92qPb2GVBZy4fSdBFvFa7/DbZam/CMt56nfD7ah4D872KdS3CPh4ivF3Lh4iCWQIgFEUbaIcCiiP4A6ho/0z3EGcav3t/D1+fKdXdQCLe68LtjPan0fGzfPmKXmv7REdOy0oGPAEBl39wgF017RZBZ36ydS9YSCR1UdAFvXNdFXTRxJy5XGeCzi64IgucTgRdFDFn7r9TQWcXYJ0Jugg2RhSaWMfTLOgii9cYNkZoXhH2gQ4J5S4LOttYxRJ05jakoDsGFEBREE5HUMQpiOAx0MfUNG6RhH/w63/OmcTds8f1ne0SyQmKFHeSAc9rO2t59Iuy4xZ0wiTClCjlraLG5m0yEVHQhQkMYfHOmctHFXTmKUSrSccn6CIIIsPGUIWobZg/d1nQxRJrvSTohP0CRZTp1k6upeuCLtI1cfKhKIZww6EgnArCoYk5RZifi9AfFd0RdXoZj0Mh/0+X4+mlNVySgUdLSwu7du2ivLwcISLnRHQ4nAwfPpwpU6bg9XojlhloSHEnGdDUtweY9e4+atq0PTkNz51Z0MXwQOmPvyOGAARBV6dbwbY+z/RC0l9KkQRdV6Zb9XYslTsRdNGmSqMJOrsYtF57dBt7WtB1ebrVdtAs6CJ654Llu7x+LpagizRdHF4p3PDBiu6Bczk1EedyBL1wSkQRFybqQLs3xyDqzJ+/OXM4f7jraz18cZLe4KfPr+vVNXdbtmzhscceo7a2pkvls7KyeOKJJwdFtKxccycZ0Px5QxW1rX4cdC7o9EOqSQA6Ik63ah+Odf2cVWAI45jAKrgM30IMQded9XNGEWMcQuW7un5O/66n1s+FiaZogqg7gs7ehKl9h3F55jVyGOf1tiOJ70jXYl4/1+WADkFYO4MJY/rU6QCnA+FQwOnUjpmfX33cTR5nXdSF1sHaRV3wQ6Tnwua5tos6/ftPN5by46uayBuW1GPXLBmYPPnkE9TW1uD1esnLy8PhiOzRDQQCHDx4kPLycv70pz/x/PPP97GlPY/03EkGLHtr2/nm3P2h7YdieKCOJSAi2k9GdwIihHEs+NVUHvv3xyDo7O1HbKdTD5392iP01w1BF1Y+kiCKeK3dE3QyIKIXURSE26kJOafDmEIVTocWzxBxbITlWeuepy74oauiLmLfofOTclKY++isY7lySR/Sm6lQamtrueaaq4mPj2fevA9ITEyMWb6iooLvfvcGFEXh88+X4HINbN/XwLZeMmhpa2sjLi4uZpn/zS8jEAitobB7oMwBEZE9dF0TdJHWz4Wv5woJOtU4Zp2OtdCZoOvMOxf8xi7gOguICL3/uiboujrdKuzlY7yMu7J+TrH1Zx/vTj10YWPV9fVzYfdrsAq6oFgzBJzLCa6goNNz85iEleEZtT+fnYg6iHBMv1ciWKmHRJ1O0dEGlm8p55IZWV0fD0mfk+DtPQmiizO/309VVVWXxJ2qqrjd7qgevoGEFHeSE47Gxka+//1b+Nvf/kZubl7EMksPNrKyuMkieFSTCLMIuggv52MJiIgk6PRjZkEXcbpV/2w61t31c8J0bebyXQ2I6FTQxfIccuzr56KWMRXrTNDpXldzvj/9mx4JiOjqdKvt0AmPAqrTBW5NxAmXUxNybm1dXPi6xeA3qlXUHYunDrog6vQvEZ9l29h3QdSZeeyNLayeMTvySckJweNvbuHS07K5YGrPJ59OTk5m4sSJ7N69m+9//xYSExNRlMhpV1RVpaWlBYDTTz9dijuJpDd45ZWXmTRpUlRh51MFv8svAyEs6+diRbgea0BEtPVz0AVBF+El1e0IV/1laGuzqwERgp4JiDB75yLZY7+mrk63xhJ0Zu+cpVg0QdfJtRyzoDvRxZwCwulEuBzaV48T4XYFPXIKCCXMI2asg7Nfs35M2Ka9oz3X/SHqjOOxh6W+uYNn5xfx46snxS4o6TeqG9pp7Qj0WvuPPPIov/nNr9m3bx/Nzc2dlp86dRr/8z/395o9fYlccyc5oTh06BD33HM3L730Mrm5uRHL/H1TJU/ml8VYP6d9OJ6EwhBZ0An6eP3c/8/edcfHUV3rb3Zni3qXLMuy5V5wJcbGohgIHSshhUDiQCAQQgmkkJcnCAnwQkIKJab33nuzTXHBBWzjjguyZUuyei+72pVWuzvn/THtTlk1S1pZns+/tabccu69Z3e+Oeeee6X0vZ8/Jx4dawsKy/mjPn9OPhyGv4pk40BOhzgXTpoPJzjsAM8bxkXpZzNSBwwIqVPqUW4PXgRsX0gdC97OYf295yHebdkxhiPKG3xIjnMiMdYxaHUIgoC6ujo0NNRDEMyVx2azISsrC1lZI8eNb5E7C8MKf/zjLRg/fgJuvPFG0/tNHSF896UD8Mpve7qH1LAMiIggyHAJiODYkhgSFMmV2hdCZ7ZciZjUCogwA9lElynxdghOHuTkAd4OgWeiURkLs9nYsNGpLHnSEuuhJHXSSSTdimD91f5Fv8fn9FmZePiGBf3LbMHCMQrrdcbCsMGXX27EwYMHceedd0VMc++mWngDshm/d4Ru0AIimGvHekCEIb100cnbcM3iPOUaAaht7cQ35R6U1LUraa4+M09Tb1N7F4qr27GzrFW6pLZvTFoMlpyYjXEZcWj0BLC5uAlfFjVqCN34zFicPy8bYzNiUdfaiXV767GzpEWt7+wJmmY1eQMorvZi1+EWZbycvA1XnzsxIil4fMVBkADMHp+CM2ZnITs1BhUNPnyyrRolte2atN2lcfI2XH2euC7WjsPN2FLUqOQbkx6LixbkYFxWPBrbOrG5qBFfFTVA4B1wxTvxy7PGi3PhbDa8+20zKr1BpMbYsXRuJjgQXtxej7bOkDgeUlT4wJA6aIkiIpFhRs/JnNQN2LImpnXr7vcDG/Y2oKjCg2m5if0vxMKg4N9v78PiWVlYODU92qKMOFjkzsJRo76+Hvv370dubi4mTpwY8Vp3CAaDePTRR3HNNb9CfLz5+lT7Gzrw9v4mAFo3z9EQuuEcEGE2f45tk6HOSJZDRV4doYtkIWTyOW0cbjh7vKFdgkB4bFUpHltVAgdvww3nTDCkAYC1+xrwu+d2QZDkXjQ1Fcuumge3U92c+8oz8/DyuiP493vfAgAWn5CJe6+cC5dDndR81VkT8MCHRXh+dSmcvA3XXzDZtL4v9tThd09uh0Ai6br+wimm6QDgiRXF+Mnicbj10hNgYyZaX3XuJNzy5Das31sPALh0cV63aZwOG65fItbzzKeHRHLHcVg0MwvLfjUPbgfT1nMm4rkd9fjHuirEuOy48bt5yj1PmPD8tjqkx/C4+ZTRAIAP9jairUPUO1PyBYDTBT+YkzpAIVoDQOqU8tlrMjmXv5tRJnWsbH96Zgc+vPOMoy/MwoCiosEHjz84aOXv37+/z3l4nseUKZF/N44VWOTOwlHh0KFDuP7669DV1QUiwv/+byFmzpyJX/3qGgQCAQDArbfehvPPP7/bct566y243W4sWbIkYpq/ra8CCeKDoidCpz4z2IcYaa5FKyCit+5W+WjQFhQ2lGWUkSWK3o4QPB1BjE6Jgc3G4YZzJmDd/gZUNPoNaXJSYwAAZ56QgQvmZWH59hpwHIfbfzQDbqcdRMCe8lZMHBWPOBePpaePw0dbq1BU5cGtP5oOl8MmpjnSionZYpobL5yC5duq4e8KMfUF4fEHkZMWCwA4Y1YWLvhONpZvrdJ0hrcjiJb2Lk3fJMY68LuLp8HGcQiFCXuPtGLmuGS4HDYUXjoTG/etRXwM322a9QfWIxyrLtkTSoyFf3I2bLwdf146HW6HHQRgd40Pk9NiEOe04coTM/Hht82oagto5Dl1XCJe2FqrHUCSyJt+rNCPeXUjIAK2vyira8cHmyvw/ZNzB7ZgC0eFGwumITNp8Lb7uu66X/c5T2pqKt5//4NBkGZoYZE7C0eF1atXw263Y/nyFbjttluxcuVKNDU1wel04b333sfNN9+Ezz77tFty19LSgpdeehH33PPPiCHoHx9swdeV7YbrkXaIiDR/TraeAQO/Q4T+Wdo/QmdinYsgY78InYk7z7ytxofxG5srsWxFMWaOScRrv10IjgNOmZKG1xrUKLQ3v6rAsuXFmDs+CS/etBAAMGdsMpZvq0F2ihu56SIJe+STYjzx6WGMy4jFx38+HRwHnDQpFV5fEKMlYvjoymI8/kkxxmXG4ePbF8PlsGFWbhK+Llbdnm9uKMeyD4owb0IKXrglHwAwOy8Fy7dUqewdwJvrj2DZ+0Wapi+Ymo44aaL97S/swoqtVbhoQQ7uuWoexqTHIjPZjbGZcUqawreL8NGBFiyZm4X7vjcRY9JjEX9iHnwBNdpPni83OsGJsdJDa9mmGjyyuRbjU1z47MoZ4AAsyInHu61acrcgNwEOm7bPzcZsKIIlhmsE7NHgn6/vRcGCXIyAVS5GDKaNGVxX+bx583pM09TUhPLy8kGVIxqwyJ2Fo0J7eztSUlIRHx+P7OxsFBUdwKxZM5GWloq4uDikp6cjGAx1W8aTTz6BBQsWYu7cuab3O0MC/r2xBkAEdyuge3CphI61zgH9JHRmZkIYCV1f58+p8psQOhOXcG/drfr+6BWh06Uhk+uc1Nl7KzwIhQm8nUNOqltZskTNS9hZ0oo2fxBJsQ5kJrnAEWF0imrhKq0V1ygsr/dBEAg2G4ec1Bhkp+rTAOW17Uqa0akxur4ULU07DzejzRdEUpwDmcndL34tI4OxGNR7uxCKdaHYH0ZYspQlz85FfHqMkqbS7UYgLQHFAVLS5MQ7UBzQ6jdHQE6iUzkvae4EiFDW1IEwEewchzGJTkOfxzhsmJsdh9YOpjxN/w8+qVPqUW4PvwjY/sIXCOPfb+9D4U9OGPzKLPQKz3x6CCdNScPs8SmDUv6yZQ8arnV2dmL37t3Ytm0rtm7dqiF2GRkZOPXU0wZFlqGGRe4sDDjmzTsRU6dOw6OPPopdu3bhd7/7fcS0xcXFWL16NV588aWIaZ7cVodqT4BZ94yxJkhpIs2fO24CInrpbo2YhkmmWX9OU4zaZ2Ei8ODgsHMgXUNlAtHZFUYsBw5sAAAgAElEQVRSrANhaWzsTGOIKVvObbdxsDFpBEFQ+lFNo+sIppzOrjCS4hwRlzuAjUPYwSMc40TY5cARl0rcpp8yAavcDdgKYOJT3yrtPDlGJWknjYrFlop27KnrwORH9ohjQIQEZv6g3Dj2h5XCJOmnJCsH8DYtiapqCyAnyYVT8pKwYn+jrry+BksMHKkbsGCJKJI6Fq+vK8W1509GKkO+LUQPu0qaMTaz+50jjhaCIODgwYMSmduGvXv3IBgU5/m53W6cfPIinHTSfJx00gLk5eUNqixDCYvcWRgUBAKdWLXqcxARxowZEzHdsmXLcOmll2HUqFGm92vbg3hqW71koOkdoRus+XOEYy8gors0rBiRFhRmV0riTOokMraHpId7rEskPaW17Yayxd7Q97eOEDP1nfanTwECuoICnBH2oYx1i/UdbvAjmBiLQJJK3jozktB44kR1SRsibAtw8HSFkei047rZaVh5uA0lLQFN3d/U++EJhJHosuPaeelYWdyK0pZOpa0afZDy6YkUASAzwsmk+aqsDZfMycQp47XkjhMInBwly+Q53iNg+wtBAP749HY8+4dFQ1+5BQMuW5yHvCzzALqBwB13/BXbt2+Hx+NRrjkcDsydOxfz55+EWbNmgufFNfa8Xi/27NkDnucxffr0QZNpqGCROwuDgpSUVLzzzru45pqr8frrr2HWrFmGNKtWrUJNTTXuvffeiOX8c10lOrrCEQMi+uJuBUZYQITB0mcioy6dntDpL+p3iNC7XEFiIIJMsOpbOzXlux12jEpy4YITs5EQI/5o7ipplfiA9sHP6QmPiSXHxduQl6n++Ne3diLI7CfsSIpF4gk5uHB2plLfRs4Nz7RckEPthVNyE/BXOWqVCMu2N8LXFcYD2xpwR/4oJDhteL0gD5d9UIYShrx1BMJY9nU9/nJaNhKcdrz6gwlY+u4hlDYz8+U0BJhMSI7Wtam2lSF3pW348ZxMzMyOQyK74K5Cus1InVTQAJE6pXz2mkKGmbpYufTlym0zrVt3P0rYVtyEnSUtmDdhcFyBFnqPU2YM/LZjLNauXWu4FgwGsWvXLuzatcs0jxVQYcGCApWAAMDjjz+GLVu24Lnnnkd2djbq6+sNOQKBAJ588glcd911cLvN50jtrPFhZVEzxDnmVkBEvwIidMVH2iFCzstu+cW2BwAWTk7Fny6ehkVT0pRr+yvaNGmWLh6HpYvHKef3f1CEjd/Wm1i4jHLo5YbNhuzcFLz1R9XKcvdXNXilRA2sueLk0bji5NHq/W2NWFvpk4iJauGbm+HG3AxVz57c1QQ/gOf2NGNikhM/PyEVmbE8XvteHn7wziFUe4OizER4blcDJiQ7sXRWGjLjHHjlh5Pw4zeKUe0JSH2qa4NApvqhHzs2X2N7EAfr/ZiaGYtFY9VJ5vKYWxGwA4vCZ3fi07vPirYYxz1e+6IUcyemYnpu0qCUv3Dhwj7nSUhIGARJhh4WubNwVMjMzERtbS3Wr1+Hffv2IidnDNLS0lBRUYH169ejqKgIU6ca93Z89dVXkJaWjrPPPse0XIGAu1eXI6w8fMTr4pQrAzvR/B2q+XNK8T25W6XzAQmI0D28+zR/jr3XDaFjC2DbNHNsEmaOVX+Ed5a0YO2eOsS5Iv+MLJichpfXlCCkIzyKWZRZOy4c60Jndqpy3j5xFNrbtMuXCE6HuGdqBOSPisFTe4CgbtwbO0Ko84uBCuJSOqQQ3Ts21CLVzePCiYnIiuPx/EV5uOTtw/B2hZV5dXd9UYk0tx3nT05GZpwDT39/Ai5746C4oLYZuTHT0UiESzr/sqQVUzNjkT+BedAJwoDNqxuJEbD9RU2TH6+uLcPPzsyLtijHNb76tgHpSe5BI3f/+U9kr9BIhxUUbuGosGTJEuTl5eH222+H1+vFL35xBc4773yMGzcOt9/+ZwSDQfz855dr8jQ0NOD111/HzTffDI7jTMt9Z28jvqnxiXPopAcTO6kcROIEGmnSvUxi5IhOCKSxagDaMhRuQcxDUVMOMWWo+aHkF//JS7GwZbAyckyZyoOOREInf4gAEkhcw4/Jo5bHtEkvI1Of8hyV0whqXmX+nHTPxsgr/1NkY/qbnXPX6Algb3kbVn9Th/veL8I1D30NElRyCwCf7qjBzU9ul9aZA06dkYEL5ucg7HQgFKtGp3bkpKF1zgQ0nTQZJKlAKD4GXcnaydWl3iDO+uAIwhEIwkel7bhqVTXePSzOqTlrTBwunpCg9qGENw+04sK3S3DR2yW48K3DaPGHFEISDodx82flWHm4DQAwJc2NP5+WDY5k3RIXbf7tJ0fwyaFWJc2tp+eAk8kXA6MLlpRyIoIIXx0Wy56bo7McKERLGmtJL1mdZxcy1uihYE7s2P5RdUMde8j6IOscdPrGkjfTuiHOmxiGxE7GA+99i5Ag9JzQwqDheyfnYvLokWEpG26wLHcWjgopKSl47rnn4fV6ER8fr5C1Z5551nBNxiOPPIIzzzwz4qRVX1cY/91QpX1ImlgLBmL+nHLOPqzM8kIlMUMdENFbd6tZQIRcPmud0yQjY/3EHLMyf7ClCss+OqApR6xbrbPc04VPajqwqrUaZ8/Lhou3YdyJY9EqxMKfHaukC8e6EHb1vDJ9V5hwoLVLqo8zWIKOeLvw6REv1la246K8BLjsHE5IdeEdInCk9hw7Z1NjZZJIVzhM+N2n5Zj60ymYkOLCxVNTcPcXlfAHBSWdECL8YUUZpl4+DeNT3Pj+9FTcvbpcGyxhpqcy+dKBvcYB2H6kDV1hAU6NZZIhdZLcwyYC1qy9uvEZzggEw7jjxd34+5U9r4VmYXBwzrzsaIswYmFZ7iwMCBISEgwkzuza3r17sXnzJvzqV9dGLOuRr6rR0N7FWB901jnoLHS6B4/W8gXtw4u01jHFQqek01r3VOtcBAudweIH9QFHqoUO1DcLndbip6Zhi5etc5EsdEpARETrHBTrHPsxtEUBQeBtCMW4EExOQMeoVLRPGAXPFDUaOpCWCF9eFtqyktEUEInRhKQBWHaClUNDpsQ2BEMCmjpDSn02gWDTkxGdvlw9Kw0HrpuJoutnwkYCQmEBb0nb2zntHMYlu3DV3Azsu3E29v1mDiDV8/YebRqDpU7Qm6xMiJ0JWQoEw9hxxKNNKMussaBFIHaMHuktc2AsjBpLncAGSzAEktU9eUkath811jtGd48RYidj+dfVqJMDaCwMOT7fWYOyOuPi9BaOHha5szBkEAQBDz74IC6//HKkpaWZpilvDeDFbbWmhM7sAS3DjCQZ3K0smYpI6Fh3K0UkcxEJHcwJnakMYNrTX0IHKGSuV4QORkJnaAvHIeR2oislHh2ZyUofd2aloGXOBLTNyIV34ih05KShKyUBoTjz7YPk+ZJ2ieB7utSdHGJ48ZrTzin3W7vC8HYJxjQ2DnZpATyPfo6bYk0lyB42nhN/2AwWVrmtgjiu/mAYLjsHl52D286BEwhNPnUBYTsAf1cYLt4GF29DjJ0DBEKjT7U48oZZBWLZ3g61rW4pstjFcbDJ7egMaUihPK/uS8k1q4AhdTadTivtYtYD5ASju9V0Xh0NEKljvkfHGrEDAIEIv39ye7TFOG7x4eYKFFd7oy3GiITllrUwZFixYgU8njZccslPIqa5Z/URBEOC1uWqt4xgYAIiSMkqEwQmgb5O+aHHyiWXpXO3kj693oIUSUaT4ntytwI9BEQwZav3CBwnLugruHmE3C4IbifCTgcEN4+ww6EW7lTf/yjC/MjeotQThECAjQN+MTUZDR1hnDUmTqnqcFsQpd4u2QGLK6cmo7lDwJljYpk0AR2pB2w6l6dKjtVrU1LduHhykqY/jjDbfxWeMhrryjxYOjtdbCuA8pZOxDHs7X9Oz8H6kjYsnZuhpDnS3KGtW9LXI80dSluXficLTe1BLJ6UrLSjtLHDaPED4auSFtyCPE1bbDqdUY4Z4mVFwPYfe8tasGl/IxbNSI+2KMcd8qdnYEx6bM8JLfQZFrmzMCTw+/145pmn8Yc/3AKn09xNt6nMgzUHW8STHgidaMXq/fw5OX+vCZ2efOnKG7IdIpSkal7Zwtab+XOCw46Q24mwkwc5HQjFOCHEOCE4+KMmaz1B5lzymsPeoIA3Dnnw08mJODHDjVfPyVHS1vpDWH6kHf6QgHcOe/HjiQmYl+HGS+eoy5zsawpgW60fcQ6tw0HuL4G1FOoIyXfzEvDdPO3E7akP78a3jR2Ynh6Dy+ek4/I56sP9vf1NaO8MYXulF0UNHZiWEYPL52Xi8nnqulzv722EtzOERP0OFQDaA2G8u7seP56biTk5CXjmZ+r80jpvFz7b1wiXxuwnkrWiai+afUGkxjmktsFUL1n3q3prCEidct3Q5GMat72wE2v/ZR65b2Hw8NMzxkdbhBELyy1rYUjw/PPPY9y4cTjtNPN9+8IC4R+ryrQWCUSePxfR5RrB3Sq7Kfs0fw7QuJy6nT8Hc9ew3t2qlYd5TsppejF/Tm4LZPnsdoRjXOhKiYc/OwXevEy0Tc1B85zxaJmZB++k0fCPzUTHqBQEk+IQdjoGndgBImEDgHEJDuXanVsb8MrBNnFpFAm7GjuxdFW1GLxAwF821+Odwx4lQpYAfFXjxzWrKpX+lsGBJBcsoVZyqY5LdGhdipEgADd8XIrNFe0KVwkLhPf3N+EfaypAJAZa3PD+IWwu92jT7G3E31eVGckXVNf5PZ+W4q0ddZq27qny4tcv70MH46IWZSHls/lwi3pdQ+akjxUBO+Bo8gTw5IpD0RbjuMOX++tR1eSPthgjEhxRT7+AFiwcHaqqqnDVVVfi8cefwIQJE0zTvLi1Fn//vAyA1kJnthhwbxcUlm8O1ILChvT6rw6T5mgWFJbL55TmEchuE92mTgfCLskK53Yi7O5+3bfhCt7GYUwcj6ZOZp4dQ5SICA4bh9x4HnW+EDqCIhlSlmmBiZWWISPsNmMyIZfzK2DSxfAcRsXxqPJ0oSvEplczxPAcsuIcqPIEEGLSqOVpAyVk+Xgbh5wkJ5rbg2gPhKFaz0iR+2gjYNlzVRZGMDPd1L1IHU+WOjM4eRs23nc+3M5j7/t0rOKmx77G907OtaJmBwGWW9bCoOOhhx7EBRdcGJHYtXWE8OiGCgNZYx/evSV0vZ0/py1Te9tsh4hIrlSDe8skXW8IHQcAHAdy8Ai7nQi5HSCnA2EnD8El/h1JCAmEMo8UmKAjdYDYT6EwoaxV3QWiX6ROdx1MXpZIdXYJKGWCNQzL8BChows4YgjoQERSJ5cTDhHKmzqhkjq1TDm9tQds9NEVEnDr8zvwwLXzoy3KcYO5E1KRlWy+Q5GFo8PIemJYGHaoqanBwYMHcdttt0VM8991FWj1h46LgAjigLDDDnI5EHbwICePkNspBTTYoaOIIxesNUh2IUJLYFT3uXhNszvJAJE6MXKYGfMIVjNT8gVoFg/WkzqtztKAkTp9P43UPWCjgTU7a1Fe58PYrLieE1s4alx93qRoizBiYbllLQw6gsEgHA6H6b1DjR34/pO7EZY2g+9tQAR6InSm1jSmrEEOiCC7HWEXj5DLKRI4p0jkwi4nyHacEDgz9IHUKccwiYBlSRJDgGQXbG9JnXy/z6ROlkVHnjiD7koH1h6wxwwmj07EO385PdpiHBcoqvQgM8mF1ATz5ZQs9B+W5c7CoCMSsQOAf35aCiEsmDwUjfPnaADnz5FpenNCF8ndKtjtYhSqg0fYaRfdpy4Hwk4nyH4cEzgzRCB1AEPMBoDUydfVerUETQ040J6rF415WPSZ1JmktyJghzeKqz34fGc1zpk3uufEFo4Kj3xUZM25GyRY5M5C1LCqqAlfHm6JSOjko0EjdHqjtf7hCAAch7DdBsHtRMjlgODkEXbwCLscIIdxCQwLOrDWIIVYaQmL+nfoSB1br1n50SB1epl6DpawSN1g4a6X91jkbgiQmxGHxNjIL/8W+g/LLWshKgiGCQWP7sSR5g5oLXTmD2oNuiF0BnerdNBtQAQIYZ4HuUTiJgYwOCC4eIQdx9E8uIHE0ZI6XV6WrPU2AnYgSF1PwRLRIXXSSST9tkjdgOCX503C7y6eFm0xLFjoFyzLnYWo4PlNVTgirW800AERhvTyA95uQ9gpLugrOHglElVwOkAWfxsYDAWp010Hk9d0Xt2QkDpdmQD6M6/OioAdPnhxVQl+ee4kJMZaj8nBQqMngDg3jxiThcAtHB0sy52FIUdTexDnP7QV7YHwgAdEwG4To1B5O0Iu2X3Kiwv3Hs+BDEMB1hpE0Y+AVdObW82sCFgLPSF/Rjoev+nkaIsxYmGtczd4sF5JLAw57l9VCl9n2DjvrRt3q3hdsgSBQ8ghzX9z2kG8SOLCLh5ksxYgHXL0gdQpxxi8CFiS7lsRsBapO1ps+rYJRZVtmDYmKdqijEikJbosq90gwbLcWRhS7K9px08e36HsOxqR0HFAmLcDDjtCTjWQgRx2hHnemgY3HBCB1AFWBKx+Xp0VAXvsYmxGHD7+vzOjLYYFC32CZbmzMGQgAv6x4jAEgZlXJG2rFXbIFjgegpOHwNuHZP9TC/0Aaw1SiJWWsFgRsCxZ05I4KwL22EJ5gw8ffFWB7+fnRluUEQd/IASH3QYHb3lcBhoWubMwJPD5O/HEG+uRmZaHRUkxaBM4eMKAoOdvpg8l6uF+H6F/yHdTLCse+6yPRDvZcjjTqz1kGs5grKogsROUSzryIe/KoZA6mBEPhgBBl18X4SISH2mkiMRjNo3eAaEhh/p7ujTMNY6d26bXO9YyaSjWSOrM5DGc68tgzrvboUVbnkXqBhtbDjZZ5G4Q8L/P7rDm3A0SLHJnYUjgbe9EPA/cf/GUaItiwYIFCxYsjGhYc+4sWLBgwYIFCxZGECxHt4VBx0PPLEdNfUu0xbBgwYIFCxaOC1jkzsKgYvP2A3j746+QnBAXbVEsWLBgwcIwwp+e3YEvvqmNthgjEha5szCoCIUE3HHLpYiJcUZbFAsWLFiwMIzQEQghGLZmhg0GrDl3FixYsGDBgoUhh7X92ODBfuedd94ZbSEsjDy0eXx48OnlWHjiFNhsNtTWt6LV40OM2wm73YbGZi+aW9vh4Hk4HHa0eXxobPYCAFwuB3z+TtQ3tiEYCiM2xoVAVxC19a3o6OxCfJwbYUFAdW0zvO0dSEyIBQBU1zWjzetHXKwbNhuHhqY2tLT54HQ6wPN2tLS1o6nFC5vNBqeTh7e9Aw1NHoQFATFuJzo6u1DX0IpAVxBxsW6EQmFU17Wg3d+JhPgYAEBlTRM87R2Ij4sBx3GoaxDb5Zba1dQitovn7XA4eHi8fjQ0e5R2+TsCqGtsQ1dQbFdXMISa+hb4O8R2CQKhqrYZHpN2xca4YLPZlHY5HDwcvB2tbT40tnjBcRxcTgfafZ2ob2pT2tUZCKK2oRWdAbFd4bCA6rpmtPvUdlVJ7YqLc8PGtMvlcoC325V22e02OB08PFLfERHcLic6OrpQ19iqtCuoaxeR2q6EeLHvaupb0ObxqzrR5EFzm6oTcrsgtUvWiVBYbJesE0q7JJ1g21VdK+mE1K76Rq1ONLdqdUJulyAQ3IxOdHWFEBvrUnTC1xFAQpxWJ+R2RdJ1WSd60nVZJ2Rdl3WiP7ou68RQ6rqsEwOh64pO9KDrsk4MhK7LOhFJ1/0dAdQ2tCJRGm8L/Uesi4fDbjkQBwVkwcIg4IEnPqT55/2RqmqbiIjox9f8m/ILCunb4koiIrrlzucov6CQPlm7g4iIlj31MeUXFNITL35KREQffLKF8gsK6bZ/vExERDv2lFB+QSH9/MYHiIioqcVL+QWFdPrFtyl1nnfZXZRfUEiV1Y1ERHTtHx+l/IJC+vLrb4mI6O7/vkX5BYX06nvriYjopbe/oPyCQvrnQ+8QEdH6Tfsov6CQrv/fx4mIqKyinvILCumipX9T6sgvKKT8gkJq8/iIiOin191H+QWF9M3+MiIiKrz7RcovKKSPPttKRESPPr+S8gsK6ZFnVxAR0fJV2yi/oJD+9LcXiIhob9ERyi8opMuuu5eIiNq8fqUOQRCIiOiin99N+QWFVFZeR0RENxQ+QfkFhbRu014iIvr3w+9SfkEhvfDmWiIiev39DZRfUEh/u/9NIiLatK2I8gsK6Zo/PEJERFU1TZRfUEjnXnqn0q7FF/+Z8gsKqbHZQ0REl//mv5RfUEg7vjlMRES3//MVyi8opPdWbCYioqde/ozyCwrpv099REREn36xk/ILCukPdzxLRERFxZWUX1BIP7r6X0RE5O8IKO0KdAWJiOgHV91D+QWFdLCkmoiIfnv705RfUEir1u8mIqL7H/+A8gsK6ZlXVxER0dsff0X5BYX013+/RkREW3cVU35BIV352weJiKi+sZXyCwrprB/9RWnXd3/8V8ovKKTa+hYiIvrl7x+i/IJC2rLjIBER3XXfG5RfUEhvfvglERE9//oayi8opP88+j4REa3ZuIfyCwrpptueJCKiw2W1lF9QSN+74u9ERBQMhpR2+fydRER0iaTr+w9WEBGj62tEXX/waXNdv/UfLxER0a59pZRfUEhLb7ifiIhaWtspv6CQTvu+quvn/1TU9QpJ13/9P6Kub5R0/e/LJF1/V9T1lyVdv+dBUdc3bN5P+QWFdN2fRF0/UtlA+QWFdOHPjLre2tZOREQ/u/5+yi8opN37SomI6Na/v0T5BYX04adfExHRYy98QvkFhfTws8uJiGjF6u2UX1BI//N/zxMR0d6icsovKKRLr/0PERF52zuUOkLhMBERLblc1PVSSddvvFXU9S++Mtf1Nz7YSPkFhfR/971BRESbtx+g/IJCuvoPDxMRUXVdM+UXFNI5P7lDadcZP7yd8gsKqaFJ1PUrblpG+QWFtH23qOt/+derlF9QSO+u2ERERE+98rmo609+SEREn6zZQTMX30wff76NLBwd7nh5F23YWxdtMUYkLLesBQsWLFiw0AfsO1COhPhYjM1Jj7YoxzRueuxraxHjQYJF7ixYsGDBggULQ47yBh+S45xIjHVEW5QRB8vZbcGCBQsWLPQD9zz4DqrrmqMtxjGLsRlxFrEbJFjkzoIFCxYsWOgHeN6O/zzyfrTFOGbx8EdF2HHIIseDAYvcWbBgwYIFC/3A9b84H04nj1AoHG1RjkkcqPSgyRuIthgjEtacOwsWLFiwYMHCkGPn4WaMTotFVrI72qKMOFjkzoIFCxYsWDgKtLb5UHKkDifOnhBtUSxYAADw0RbAwsjAxmo/WgM9uCaY9wgOgP6tQr8cKBfxtUN7g8iYN1IeTntqkMEgiyFBD+9CvZRZPu1ebjI97BEDILO5XOZt6BN6+S7JGcZHqzuGYnX5+iiU6WFvkvcqg/X6PGIhCECbP4B9+4+gsaYSj1rkrk945tNDOGlKGmaPT4m2KCMOFrmzcNTY3xzA0pXlCJs8IzkicFAfyPpnu/4+p09AxkyysVnOJ+chNg8AzkDoyFQGVhZtQdp8ehlJuS3d1xM2Jh2nK8MgiF54Mzm6k1XXKNN+NK07AmkyK9fQD+YVUIR+MHS8iS5oLlMk2bTpDITObICZS5yJrPq2GXXOvDA9CY2oQ/qCLMI34mCzJaOurRNZSZaLsbfYVdKMsZlx0RZjRMJyy1o4alyyvBybavy9InQsyWGJmYIIZGU4EbrekDk2z3AldD2SOeZ8WBO6HsicWJZF6CxEgPyjQgDMthPrw/jNmZCMl/7n1AEUbmTjy/31yMuKR05abLRFGXGwLHcWjgofl3qxqdoHQAy95mD8LTwaQseZ5CM5y0ASuh6scwJD6FjiakboNPf1ggwgoRsU6xxz3hdCx7EX+kDo2HfL3pC5SETMtJ5BInQEdZxNx84ic8MGBA4cRwppI44DOAIH8a/6HYBxrkg/xnF3SSs2f9uAk6dnDID0Ix+nzMiMtggjFpblzkK/EQgTznjrMKq8QVN3K3B0hI4tR8+JNIQuiu5WNt9AELqouFuZ8wGx0HVD5vRpB9LdKpZ3NITOnMyJ5z086C1CN/TgpP84ABwHsjHnLFNjxteot0x5+u9GP8cyM9mFVfec07/Mxxk+2FyBGWOTMHl0YrRFGXGwLHcW+o0ndjeh0hNUzns1fw7oltDZDARLKmso3K3QErp+W+j6QOZMZY06oYtM5lRZu5fJaGXtPaGLSJIj1RWB0A2qdY4tyCJ0gwOJtMEmWd1sNh2hY9KyY0HSCOr0mdOn094esPGsbw3g2U8P4ZfnTTq6go4DrNpZg1gXb5G7QYBlubPQL9T6QjjjzcPwd4UjE7puyBxg7m5lD4ZDQITecjNc588ZZTOTMRKZ05bTK+uciUyDZqHrJZkzldn01JzQiec9POAtQjcwUKxtnOgitYnHsKmWN3XObncvTSbfIzNSZ7iny6Mr9mjh4G3Y9MD5cPLWPgHdwbLcDR4scmehX/jdmiq8X9x2TAREyG/svSFzbFHDitANB3erXib0jdD1msyZ1WMRumMKBA6cTbK22TjAbgNxAMeJf2HjzMeN+W4OOqkzuzeAuGB+Dv519bzBKdyChR5gkTsLGjzxxBP4zne+g/nz50dMs7OuAz96r8T4m9uNuxUYGEJ3LM2fM5WXJT9D7m7VlnU0hK43ZI7NOiwJnUXm+g+OA9k5wGZT/sLGWOCkEdL0c3djp/t+kglZ0+TR6z6pFyPOqzN7WRrEMeY44MM7z8C4zPjBq+QYx+c7azB5dALysqw+GmhYNmMLCoqLi/H2228hO3tUxDQE4K4va5RpLRBIevuVCZl4zBHBBnEOHSddI0DJJ94XP5yUhgTpQ9rfffk+J0g/+Jq3dVLmRunrEohEeQQCR4CNGKuhdI+kcjgiMT+YuTnKR6pTaTR7Tds/rKycINbN9hHHfJQONWkTSFBusBHDSl1Y0tsAACAASURBVFpdvxv7Qpq/RtpKlCxsXwiC+DG0Vx0rjukPYo61sun7lZVB16esQjHt50DKR+0Kbds4XTnqqVqYKDNbvlSGwOgRC7kQvY4dpyC7DYKTB7kcEGJdEBJiICTFIZwSh3BqPMKp8RCSYiEkuEGxLpCLBznsoqUOHKMzMOiKWIFeb1VrHSnjoxsI/XeRPYfZdxfQ65cx3+CBCPjj0zsGt5JjHB9urkBxtTfaYoxIWAEVFhQ8+OAyXHrppcjJGRMxzbsHWrG71q+5NiICIvSEQ195Nw8CKyCC7ddurJ6R6gJTl/Lf0VnnCOoYWxY6HWyc4i4luw3E8+p8N7tokeNI6n3m+6TVU50eyXqmeWnRjaMmPVMu1O8ta4Ez5jHWJ5M6M1k0x1Ea6wMVHqzdXYcz52QNbcXHCPKnZ2BMurXG3WDAcstaAACsWbMajzzyCF5++RXExMSYpvEHBZz16kHUtosRssM6IMKEzGlk0QsyHAldr8mcthw9odM/UCPJZAVEjBDYOJDdDuJtInmz28HZxWucjYOgX6hXsXjqrKwwI3W6fGakTroX+btGA0LqAO13fTiROhZJsQ5suO+86Alg4biEZbmzgEAggMcffxzXXvvriMQOAB7eXo+69qC4WLHBsiOmGUhCF4nMsQsKA8zcgp6sc3pBhpLQDbh1TlsWS+i0D7zeEzrSpY9s9TS/3209g0ToCL200I0UMsdBQ9xgt4F4O4i3i8d26dtgIF1k7AZGJ01JnXIemXQNDKnTHBgJmUZwE50ZpqRORps/iEc+PoAbl0yNtijDDjsPN2N0Wiyykq0t2wYaFrmzgFdffRVpaWk499xzI6Yp93Th+Z0NsBEdFaGL6vpzmnp7R+iWzEjD+FQ3/F0Cnt1UpVzPTHDiJ/PE1dVf31aLJl8QucluLJmVgby0GDS2d2FTSSs2HmoBQHDyNvzq1DHgAGwv92BzSavmQZQa58BPF4wGAKw70IS9VV5wAK7IH4MElx07yz3YdKgFLgeHq08bqzTrm0oPvjzYrBC6y07OQWqsAwDQ2N6F97fX4JrF48z7AsBjq0qMlj5dvzp5G645Mw8AsKO0FVuKm+HiOfzyzPFK8ve3VqGmuRMp8U5cdkouAODV9Udw3txRSE90GnRBruuDLZX4/oIctVpd/z/+STGcvB1Xf3eCcv+DTRWoaelAapwTl50utu2VL8rg8YsW5dl5yThjdhayU2JQ0eDDJ9uqUVLbDkhtuVpaf2zH4WaMzYhDeqILkWC3cwiHCR5/EK+sLVWuj8uKw4XzRblfW1eG1vYu0/xsfXrUt3Xio82VmvvEcWj0daG4zoftFV7AIRI33mHHtafnwmx7LA7AIxsqQUTITXajYGY68lLdaGwPYnNJCzYeblX6PzXWgZ+eJM6pXV/cjD1VXnAE/GLRaMS7eOw64sG2I2245jSTqRlSIY+tKYPLzuHq01W9em9rNWpaO8UxWST2yysbK+DpCAJEGJ8ZhwvmjMLY9BjUtXZi3b4G7ChtxWWn5CIl3gGPP4RX1pdJ9QDjMuJw4YminK+vL0eLL6C0VZHFjNSZ3RsGeOaTQ/jF2RMR77YeuSye/ewQvndyLs6Zlx1tUUYcLE07xlFfX4/9+/cjNzcXEydOBAC0tDTjm2/2ICsrE9OmTe82f0NDA15//TU88MB/wZntqyjhno016AyLP5rDfv6cXhg9oeuDde47YxLws/mjIBDw8tc1CIbCAIA5o+Pxm8UiyXpxcw1OmZCMhy+dDrdDjVH6ZX4OXtxchX9+UgI3b8NvzhAfhk9tqMDmQy2aelNjHbjxTPF+i68L+yvFScZXnjIGWYkuPL+xApsONcPN87jhrDwl35r9jfiyqFE5//15ExHnsgMAiqrbsWJXHW44WyVhejyxulSxhEaaP+ey23DDuaJuPbOmFFsONiHGyeOG8yYq5bR3hPDS+iNIi3co1z/eVo1L8nMxLSchYv3bDzXj+gsmR5bvk0OIcdhx/YVqmnZ/EC+vLUVqggvXXzRFrOvrSnh8Xbj09DzceukJsDG6fNW5k3DLk9uwfm89nA4brl8i5nnm00M45YRMTBsTeY2tooo2TMtNgkCEj7ZUKgTywvk5uH7JFLT6uvDEyuKI+dn69Nhb6cXHZe0R768+1IIb3zkIgYA4px03nZ4bsZ7HNlTi5PHJeOSSqVodXDQaL26uxj2flkovETx+c4aot62+IPZWeAAAV+aLevbcxgrsqfTgRkbH9HhiTRlieLtGr9o7gnhpYwXS4njccI5IxD/eXg2PvwtnTM/AvVfMhotZ8+2qM8fjgY8PYlxGLH508hixf7dWif1LhAtPHIUbLpgs9u+nh4ZNBGx/EQoTCp/dgYdvWBBtUYYVpo5JRFpC5JcrC/2HFS17DOPQoUNYuvRnuOOOv+Kqq67E8uXL0dDQgKVLl+Kvf/0Lrr32Wrz11pvdlvHYY49i8eIzMGPGjIhpNlW247PDrUqEqybi1CS6FdL9IY1wlYWQ8irzdGS3Eunk6E5WJhK1pLEDgDjXfGyK9CNEQF6q6L5u8gXh6wzirxdOhNthAxGwu9ILX0AkgZcvzMEJ2fHmDxy5XiLYmPuaCFf2IUZG1+/EzFjlfka8UyF2ykUmvbcjhPImv+YDQ7/CPMIV2mL17Vk0NdVgMeGIUNfagfJGP6qbO5Trbf4gyhv8KG/wo0siy6J86nXx41PHha1reroqGyNTYowDv7t4Gmwch1CYsKukBaEwweWwofDSmRrCJ6OuuQPlDT5UN6lBQm2+IMobfChv8OHznbUAABvHYcHUNCXNydNEGTbua4Agy2cDyMEjHOtCKDkOwfQEhDKTlTyeQBhHWgPKp6YzjHBijOZ+ZVtAOf/upBQsmZ7O6IOUrjOE8pZO9dPcCRsR7rhgvKiDkHSwS9bB0TghOw7GgSPtWLOdKY9JZwjlTR2aj9l80EWT0wzXOALsHIdbfzAVLl78bnxzpBW+QAgcB9x4wSTsLmtR+3dSiqJDJ0+V+nd/gxItrfkOm/ymRPp+Dxds2NuAIolMWxDxm4JpOHFSarTFGJGwLHfHMFavXg273Y7ly1fgtttuxcqVKxEOhxAIBPDhhx/hrrvuwieffIJLLvmJaf59+/biq6++wssvvxKxjjAR/r6hShukMAgWut7Mn9Pc1wuit86ZydGdrIYHk3hexjz081JjcLjeLx2Lc0RKGvzITnJhrHT+8BdH8NgX5chLi8GKm+eD44CTxiWJD0WmbI5ps15Y+dmppSKkLlfCIDc1Bk67DV0hAXlmUWdM+jc3V+K/Kw9FtNCZ9YNONMVyy+k6d/7EVDhsnG5MCDc9uR0AkJHoxuq/nQkAeHFNKZ787BAAIIFxU725sRzLPigy1qnD/MlpUl3a69NykxAnlXf7C7uwYmsVLlqQg3uumocx6bHITHajvTOoyXPTY1sBAJnJbqy652xRvtUleEqyxsW47Pj1hZPh5G1YMC0Dn33bDHecE7PGpwAAVlf50JmXJc57s0vbYzEW55BT1djXdjfg3vWya18kJAkMGX9tZz3u+6IcJ45JwOs/F1+25ubE4aN9DZq2vr6jDvevLVeucUQYk+TE2BRRBx9aW47H1lcgLy0GK39zoqSDidgvuWAVmJA08bp67Y0tVfjvJ4cN6TnYNVnmT0g2jAkRkJ3swugUkcA+8ukhPPHZYYzLiMPHt54KF29DR0BAV0iAk7dh4eR0rNpVh1iXDbPHiaR4/d56w0vDcJxX1xsQEf70zA58eOcZ0RZl2KC8wYfkOCcSpakkFgYOluXuGEZ7eztSUlIRHx+P7OxseL2iK2/KlClISkoCz/NISkoyzSsIAh588EEsXfpzpKenR6zj9T1NKGro6JuFjrXOSdY1G2NZE6SPvAbcUKw/Zyqrbq04zRp0UhmlDSopy0t1AyQAJCAvTXyQljZ1YEyy6lYoqRetYWWNfoQli05OistgcTNbf065x/SFAbpLNhuHvLQYgAh5GUZyxxJEmUirVkAmGlJfXzf9aCZajNOOOeOSNDe0xZq0X/fMNq3TpLIYpx2zxydDj4wkdRwa2joBAGV17QgLhLBAyE6NHCzEdpTgdqArIxGdOWloGpWKzRXi92rh7FHoGJ+FOQvGgbdzCAuEdXUBCG4HiLdBJmwcQdIx0o673A8krymo7xYx784KL9o6QgCArHinRKh1IK2+jk5SJ6SXNnZIOuhTdHBMsttkjE063IxIMd8zw/QHCTFOO+aM1f3WEJDNTJQvrfMBRDhS365YOzMSnfi6uAkAsGhqGgDC/ImpSv9+uZ8htrrfl+FuqTNDWV07PtpS1XPC4wT/eXsfthxo7DmhhT7DIncjDN/73vfx2GOPw+/3Y9eunZg713z7m5UrV6K1tRWXXnppxLLaAmE8sLlWSzwYghSR0GF4LCisyNuLBYU5MimHCDVtnegMCgCAvDS3ItO4NJEolDb4NV8idoFfGQ7OaGWSCZ3cDMN8wQhkiyULgZAo14TMWIAI4yXLnewSVuRR+sLE3doNoWMXFNbLxsohu1wXTdW/JKgFmrVPGRdD10hymSworNQ1PcOQrb61UzmeN1F09ew70oZ5Ny7HvJtWYHuFF+F4leCFEmPhnzAKvmm58E8dq15PikMgKwXB5DgIcTFYXS4GY4xPdiE7gccpueJq+ttrfPAEwkyfqGRZWZhb3zwNudb2I0v4O6SxFchI9Dk2r/TSxbqcBUmpWCsdb+MiuGBluXQy6mRWIpKVNjDj3yL2+8mTU3V5SSMXkaD5ygKi3Ov31gMAxmXGITvFrbhkdx5uhrcjOCJIHYt/vPYNBCHaUgwP5GbEWVa7QYJF7kYgiAh///vdSEpKwg9+8APDfb/fj6effgo33ngjnE5nxHKWba5FS0do6OfPMWWbEjozIibBdIcI5mHU1x0iiAhHJJeqaCETJ7enx4v9VtqoXdAZkvw20l81J2rKDhEkGO4bHmByf0korfcBACZlxYmEM0MkLmUNPqY/dDL0gdCpXaEVRE82Nklv3idPS9MIbdghIkJ3sO3raYeIzd82AAAWTdOSO7LZsKu+A55O0eL1i/MmIXN+HjzTxqBlZh5aZ4+Hd0Yu/HnqYrKC24lwfAwEhx2antWQNcLaEnWe1CljEpAvkbs1JW0GUifrstpF+nKZcdePhZycgFgpKOJwo9+kP8yII+nuw5Sk9XTNuKRMBFLHjv9ByfI2Jc1k3PS6Jo7xqbeuwqL//QyvrS/D+n31SpKFk9OwcIo4t1F0ybJ162U7NuELhPGft/dFW4xhgT/9+AQsNLwUWhgIWORuBOKll17Cli1bcNdd/4eEBGOk4osvvoCxY8fh9NMXRyzjcHMnXt3dMCiETi5HdtcOZkCE5n4vCZ38QJM/MoGT3Z/jUhhXU71PQ6BkQsAKqn/GA6Td7stw32jVMbO0ldSJJG5CZhyICHkZcQgLhEpmfh+bfsGkVNxSMAW3LBE/cU5ea52TSYm0DZzSbzrh9Bxh84FGEAEzc5OQGOPQJNSMix66ghZOTccffjhd+cjz52BTrT8bK9pBAGbkJYGfNlq53jYjF3UTR+P+Xc0AgASXHa/+dBryshNg422qrpkQZjPSw45jlTeAg02idapgagqmposkem2Jx0DqZEuaomBMuamxPKakuTE5zY28FJfBkubmbchOcOLqhdlIlNq+s8Jr0IWFecn449l5+J9zxE+cU3IJy7IrLmFdO41vC8bvlI4ULpyYilsunCR+LpqMOKfdUPbmA03S+CciMYbXFmYoWzxo7wjC1xFCMCSgusmPQzWi6/vC+TmYPFqMXl63p54ZH4wovLauFM0e8+Vzjic0egLo6Ar3nNBCn2EFVBzzEH/15N/jhoYGPPvsMygsLDSNgK2qqsK7776Lxx57vNtS/76uCqGw9i3dLCCiLwsKa+6zQrMJ9W/6ETDQO0R0t6BwqRQxmx7vRJzTpsy36woJqGnpRG5KjCazvmrD/DnS/dWDVIumphydnMV1ortwQmYcHDYOY1JjUNncgaDk0tOXP2tsEmYx86Je+KIUPtmTqRtjoz+RlVl7r6ktgOJqL6bkJGDh5DRtWlNSB5GA64qamZeMmXnqXLqHj3SiVeCAOHUuXXlCAoqaA5ie6sLJE1N05RKe3tOECYkOXDEjBZmxPN64aBx++F4Jqr3aQAqljSbkTiRdgnIMiFa6KWlunDpWfFmqaAugRCLRyveB7RsT0n7J7AxcMlu0OFa1BXDWozs1Ca44aRSuOEnd1/neVUew8VCLgdzNzonH7Bx1o/Vnv6o0kFZTyx1g0EPOhDixOjYrNxGzctWlYl74ogz+TmgsnY3eAIprvJgyOgELJjORj6YymG8X9sWeOkzKTsAiKQq5stGP0lrviCN1MgQB+OMz2/Hs7xdFW5So4q5Xdlvr3A0SLMvdMYzMzEzU1tZi/fp12LdvL7KysrB9+zYIggCXy4V169bhm292a/I8/PDDuOCCC5Q18cywpqQN60vblIdKdwERQz5/rrcWOrYcYuuVXaCyxYpxRZmUCSKUMm7O8akxyEsT57YdaepQ5jcpYPuCRQSyqXHR6duqaz8RY/kEUFIryjUuIxZ56bGw2ziU1ft0mdTD5vYuFFV5lU8oJKjWNTAklCErRtHMl8/4qkh2l+pcLEQguw1ht+r+DybFwTtlNNpmjUPLiROU642dYexrDiifQFwMBId+Pg5hXZXYxtNy4rTtlOS6Y2MNVkiu1Kw4Hs9dOA4JTrsiDyub4lbV1aFv45qSNk2KtSXq90PtI6NuG/RAW03kOXAAFuYlwsEZx6DJF0RRrU/5CGGTlweDpc5ExzRpzdHc3oWiaq/yCYUFKEE5DL46wLhmlSr16Uj3G6CKuH5PPZsQ6/bUjVhiJ2PbwSbsLGnpOeEIRoyLh8MeeX1VC/2HZbk7hrFkyRKsWbMat99+O5KTk/GLX1yBXbtEMnfHHXcAAObPn4/7738AALBjxw58881uvPrqaxHLDIYJ/1xXKZI5sNxIJlA6C5KJhW6gdogYaOscDHKZl6u3YpUxEbPj0mOUYIqyRr+Jt4tgOluaScMxD1rWTa2RUS87wUA4apr96OwKw+204zRp7beyep9mUVDWpfrelir896MDmrbp+1BP5MzS6NmGwNuxscyDKwHMHq9a0zxTc9CcRyCbDc5Y9acmmBiDrlTRAqZslwXg9WIP7tnRqMzVk3VJv/31hkofrpuVihMzmS2LSJwiYJPku3lVJbizx+CCCYmYkurCn/OzULi2ytDPivs1oqVSvL67xofWzhCSJXfp2sNtTBb2ZQDaPmPKfeebBry4tQYgICiQbpyBlfub8PGeBpw/Iw0FszJw2qQUXDgzAx/s1hKfd3fW4oHPyzTlc8RGShuU0pxsSsTONJhHwntfV2PZimIY94DVkuRNBxpx5Zl5mMNYXg1WXobU5WWJxLzF24U2XxDflLSg1deF5DjxJUBP9kYqbn12Jz65+6xoixE1/PuXJ0ZbhBELi9wdw0hJScFzzz0Pr9eL+Ph4cByHE06YiaVLlxrSikufLMNVV10VcXkUAHhhRz1Km0Vf3cASup7JnFyWJk2UCB1LosoaVWvYuLRYNVK23q8GRLDlGGTSyk2MtUSpTyOKaPk0nR/GFC4QUFLvw4wxiThrprgVmkjunNoszElvyByYugXerrW6xcegfcIo2ONVYtU+MRs7GzvRFSY4mbfwsNsJCpq4QyOAA8AJrJvTSJAAYEud31CXnQh2RnfCYcJvP6/E1EsnYkKyCz+Ykoz/21Bt0Et1fmQEfZD7gQibyr24YEoKwgJhS4VXzcOMuZ7UsWPY5AuiqM6vJXXM/cqWTqw90ISNxS04d3oaXLwN07Li8IGZzpuUb4CByGp108w6rM8HkM5SZ17h9sMtynp1bF7Dd0/K/t6fF8Nu43Dfu/vxwqoSCAR8faAJ556YjbBA2CYtjzLSUd3kx+vrjuAydotACxYGAJZbdgQgISGh263DAOC9995DOBzGxRcbo2dlNPlDeGRzNSIFRChuQenTt4AImD5DgcEPiDB1uSouOdl1LLVV98AnIvgCYdR7xJ0DxqfHYFy6vAyKz4Qkqm3SXNY/aBXZRDnY5LJFybRg3aXD0p6pc6RFX0vrfZoHsZlbUNMFvA2hWBe6UuLROSoV/twMtE8YhbYZuWieNxEtcyegbbq67VUoPgaBtEQEE7VrxnWGCV/Xd+ir6huITPVMn6YzKODrWm2Uso0Iv5yVhqJfzUDRtTMAIgTDAt78VnR7Oe0c8hKdun6VdIV0/a3oATR60tElkviQIJbN6ro+AtYssAZgxxxKPrZiIqArLKBF2uZMnN9pUo5GPkF7n7GQafsO5i81hhcoQxdpZdDnIUIgEDK4GM2Jo64pzHlHQIx0DoVJnTd6HOC+d/YjdJyujXLTY1/j85010RZjRMKy3B0H8Hq9eO655/CXv/wFPB95yO9bXwlfZ1hxbQHq7/BAulvl8jRp+mWh0xImQ9o+WOfYsuRsLAErbfAjM9GFuWMTkSRFhJbWi8tUeKQFZwEgxmEDiODgbcoaX20dQZNFaLXWuXamDLdUhnhsV+/rHowcCIckcidz+yNSkIUMwcG4Q+Pc8I3NRNjJQ3A7IDgcoAGc7rKu2o9Ts012yYgEEi117DmZkA1DHgI2VLbjVN2cO19QgEuy5rntHDpDAhp9quXQzhn1ijPRFdaypsypkysBk54lZwZLGhnGiyVdHFM+2wY5nbz4sF1en45ZjkYbLCH+9Wp00A4Q4LJzig42egIAEdo7dXom1Scft3cEDW5wDamTT/UEDYSvihqUZUzk9O1+tf9jJF12MnKxch+vCATDuOuVPfjb5XOiLYqFEQSL3B0HePrppzFr1kwsXLgwYpr99X68u6dBeSYBQ0voouFu7YnQsTfKGvxYODEFOUxkbFmD6JataPRDIHHB1ksXjUGjtwunT0tTCVe91sI3KSsOFzHRYW2+Lnx5oBGBoACXw4bvzR+N4pp2nDAmEUnSAp9HGnyGBYUFmw2HmtSFe72BMMrSUxBMEAlWOMaF1hmq1W1SbhIuXKA11r9X4oXDzuE3M8W5cmur/NjZ2In+YH21H3/+Ti8SMqSOHfepKU78YKJ26Z73i9vAjpPsfv2yoh1YmKVJW9aq7st666JR+OKIB5fPSpOrRHlLhHaRcdkQ0whYfRuI4LRx+PWibICADSVt2F3tVe/DaL2SSZq2fG3dBh3XyTc5KxZL5mRq8qw70KTo4GULc9DkCWh0cE+FBxyAek9A1bPvZKO4th0n5Kh6Via9sMiYlB2Pi76TrSF0K7ZX6QQXfyc2FTXi99/T9lF5vTgvleOAyxbnoaW9C6fOyFTkKtO9jByv+GhTJX6zZCqymGWWjgc8dP2CaIswYmGRuxGOsrIyrFy5As8882y36e5eXY4wjcyAiP4SOjZ5aYPWDdjgDYj7lBLB2xHE+1tr8MMFozFnbBKevEbdFaS+LYBPv6kDz7jNF8/IwOIZ6iK8+yo82FjUiDe+qsAVi8dh0qh4PPYrdaJxracLK+u70DE6DTwTLOGZPBo1QdX0ddgbRFdyPASHdt9PGWePicPZY+I01z4o9cJl53DLXJEEebqEfpO7fc0BNHWGkeY2r18GG03MdvXZY+Nx9th4TdoPi9s04yfOyyPsb+hEc0cIqcq6aoSt1e34trET09PduGJ2Gq6YrVqR3vu2Ge2BsGYvV9lNaVg2RGM8NLckcpIbzW234aZTxwAAPIEQdld5I+7koLpqIxknRQbFkbpSjGht1GZYPDUNi6emaXLOvv0LvL+9Bj+cPxpzxibiyavnau5PzIrD5uImhMKENzZV4IrTJT27WtXVutZOfLGvXhO9qNdVAFi5vVpnQRblO1DZhpb2LqRIC3yDAG9HEB9/XYmChWMwKy8Zj96oPsyLKj3Ydfj4jhaVIRDhD09twyt/OjXaolgYIbDm3I1wPPTQQ7j44h8gNzc3Yprl3zZhW7nHfMmSnhYU1j2kojJ/jsmnLq5sPn+OOVXlEATtosI6mTgiwxIjZdIesrJc//7oAN7ewqwNCGBPeRuue3oHOgPdL9Ip8DZ0ZCbjP9+04LV9zWA8cPi2JYAr1tWiJSMZnRlJ6ErSkrOK9iA6pToPtfU+eCESGPH7DAKwoca4Ywegn8cljYXc593ARkyghFyJ9GdjJTMmRBAEwvUryrCpsl1Rp7BAeK+oGXevM+7nKRNF1lKnqUi/ByxLaEhuk3pREHTfHcP3w3x/ZrZKmcjJczxzU2MM1jzzvIR/fVSMt7+uVnSQCPBLC8T+8aLJiHfxABEe+eQw3tlSpaxRCQAHq734zTM7EAj2ZkFZk5cyqbs2FzVqbxDhn2/sw8dfVyn7yRIBXx9swu+f2KaR4XjHntJWbNp/fO2z+qdnd+CLb2qjLcaIBEfGCRYWRgg2bNiAe+/9D1599TXExcWZpukMCbjgqT2obmOsNX2wzgFDZKEbAOuc5kIPMrELNevTm1k15bsOG4fRKTFo6gijTQCItyHM20FOHmGXA4KTR5jnQbw9woxzca5UXoIDjZ1hNHUOzertc9Pd+PDCXOS/W4rK9oGbB8UuawIAkSJgNdcIyouGTa9bmnTqX3n85XpiHRwy4xyo9nQhqF+Mm9FToyWNfVnQlqnNr8o1Kzseb1x5As55ZCeq2wKGfMatwtgKCfp5f9pzc73Xzvdj2gOAt3MYnexGoycAl8OGf/50Jk4cn4xz/7YBrX51Tp3LbkNueiya2gNoae8ylK/vB/lAa5lkZTPKyMLB25CdGoOGtk509PDCc7wiPdGFNf86J9piDBlueuxraxHjQYJF7kYowuEwfv7zn2Pp0qVYsmRJxHQPbazEwxurhpbQDaG7VXNhoAgdCILdjrCDBzl4hJ28SN54O8hhR9jpBB1jC3PeMjcNSJitQgAAIABJREFU05Kd+NUXAxS5Rno3ZN9InbJMRw+kDtDWoxAQk3xGEkVHReoAUS9+c9oYTM2IxU1vH9DkM3XBmsk5AKROlsVQoXRsAxTLmfl3fQBIndk9C33Gzd+fhmvOnxRtMYYEjZ4A4tw8YpzdT+Ww0HdY5G4EY+/evZgxYwZsNnPve623C+c/sRsdrCumn4RuOM2f01zoRq6IZI7jIPB2CC5eJHC8HcTbEXI6QE5e3Gi+h6VnjjUsGhWDal8IR8y26eoL+knqZCudKamT05qSLdb1fpSkTpHfvB6AIX5MHQvGJaK2rQsVzWbbkena2iOp0zVe953TrFXXC1LHETsGujablK89j1C+iZiRrHUW+g4nb8PG+86H22nNmrLQf1jk7jjGHz4oxvL9TRF/kI+lgIi+WOfIbkNIIm0CbxNdpU7JCsfzoAgBCRa6AWnJVp9JHXTExZBWJXc9kjopvRmpU0+NpE5J00tSp7bbrHxdOr2cJvL1m9Rp0mvr6XYBYpMy2bQWqYsezj1xNO791cjfveHfb+/D4llZWDg1vefEFvoEK1r2OMXOKi9W7DOuAj8cCF1vrXNmWzyB4xC2i+5Rstsl0ia6UAWHHYKDB9lGltUt2jCdVxfpnVEiFDKZs6G/pA4AyJTUqTJFIl1kICURSZ30JxLRYYODDE02I5/9IXXyeV9JnVLOAJE69tgidYOKz3dUo7xuKsZmmc+VHimoaPDB4z/6QDALRliWu+MQAgE/eX4v9tRIC+AOJqHrBZkT6zCvQE/oiAMEibyFZbLmsIuEzslD4Eeey3S4oj+kDlD3gDXonZxO99eM1Cn16/L1i9Tp6mFJHaC3DGvzRQ6WMJI6vXzdka5IwRL69upl75HUyZdNSF2kturlMBPdwsBjSk4i3r799GiLMagoqvQgM8mFVGaJJwsDA8tydxzi3W/qsbfaq53b1BdCN4juVrLbEOYd4pw3h108d9jVwIUI8wctDB2iFQHbI6lT8pmQOvmCCalT8/ed1GlVWJVzoCNgjXUAkUmd5sBIyExctf2NgLUweDhY5cHqnbX47rxR0RZl0DBtTGK0RRixsCx3xxl8XWGc/+guNHgDmutDMn+O4yDYbWKAgt2OsNMubkzv4EG8TQpUsMjbsAX1L1jiWIyAjZRvOEXA9itYoq+kzuyehSFDYqwDG+87L9piDBoe/qgI+dMzceKk1GiLMuJgWe6OMzy6vlIhdgNN6MhuE12mdpvoHnXwYsCCXbK8WYEKxyb6SeqiEQFLcuV6WSLUg4EOloggX3ekq78RsCwv7ZHUKecRyjcR07LWRR8efxDLPvgWv/3+9GiLMig4UOnB1DFJ0RZjRMKy3B1HKG/pRMGjO9EVZnZr7wOhk8kb6zIVeBsEXiJulst0ZIEGMQK2r6ROSmtFwErk2ozUyWlNSZ14YJG6Yw+83Yb1956LePfIs8XsPNyM0WmxyEo+vvbUHQpY5O44wo1vfIs1B5rNH7YcB8HOifuSSpY3gecZImcHWXEKxw2sCFgTUqdcGABSJ5/3ldQp5QwQqWOPLVI3bHHqzCw8euNJ0RbDwjGEkfcqYMEUH28txZZKH9yJMQjZxeVCQnYbwjYbwnY7wj0QN44E40O3rxg2D40oCzJs+sEIhdRJ5zKpM1UPhlAMagQse6wjXRxYUqMr08zCxVrrzEiddJ3YdEoiI6lTzs1InU6G/2/vzOOsKM98/6uqc/r0SjfdDU0DzdLI5gLRDEajMzoak8xVTG4nH83MJHrTJnODxmTyiVu8ZhITJ7ZRY4gL4KCA4i5xRUVcQNkEFUF2aGiarTea3vdT7/2jzlLrOae7z9Jd/L5+sE9VvfU+z1NVp+p3nnep6IMljPuZRZ35XbaWuGxEnVOsZj/sXCdDh02763G4rg0TR2en2pW48tyaQ/jKlHzMLGHTbLyhuDtNeG7Jq3julmsxtXRsql0hhBBCsGF3PQpz0ynuEgCbZU8ThBCQOP8bIYSQIcLqrScwdWwOJhW5KyM5FKC4czlHT5xEmteD0YX8ZUQIIYScDnB4o8v5r/uexeurNqfaDUIIIcTAa5uOYP/xllS74Uoo7lzMkeMNaGxqw3XX/HOqXSGEEEIMvLf1BKpq21Pthiths6zLUVUBWWZfO0IIIUOL1zYdwZkTcjF1LF9DFm8o7lzKzr3VmD5lHDwevhWCEEIIOZ1gs6wLaWhsxXU3z8fTL68BADz10hqUlVdg+Yq1AIBVa7airLwCDyx4DQCwbVcVysorcOsflgEAauqaUFZegetunh+qs6y8AmXlFejo1F5dNu+2hSgrr8DBw7UAgN/d/zzKyiuw8dO9AIAFy95BWXkFXnl7EwDg729tQll5BRY+tQoAsGHLHpSVV+DuB18AAFRW1aCsvAI33rEIANDW3hWweV/Ihx/9/K8oK69AbX0TAOCWu5eirLwC23dVAQAeWPAaysorsHrtNgDA0y8b43537Re2cd9y91IAQG29FvePfv5XS9ztHV1a3LcvMsT9+we0uDds2WMb9ytva3EvWPaOIe7fP/A8AODg4VqUlVdg3u1a3O0dXSGbTnHf+odlKCuvwDZT3O+u/QIAsHzFWpSVV4TO/+q12wxxb48p7vtQVl6BtnYt7hvv0OKurKoBANz94AuGuBc+tQpl5RX4+1v2cW/8dC/Kyivwu/tNcd+2EADQ0dltifu6m+ejrLwCNXWR4161Zqsh7qde0uJ+7yMt7vsfexUA8OXuw4a46xqaHeNubes0xH2g6gQA4A9/eRFl5RVYH4h70dPGuF99+xOUlVfgsaX2cR+q1uL+2W0LLHEHf2df/4u/GeK+7Y9a3F/sPAQAeHChQ9wvfmiM+9FXAAA79lQb4q4/aY37ezfYx73/kDHudZt3AwAef/pdlJVXYMXKjQCA197ZbIh702fBuJ+zjbuzsycUt6pqcf+fX2pxn6g7BQC4/Z6nDHH/ZeHrWtwfanE/4xD3n01x//r3SwAADSdbUFZegR/e9FAo7u//5M8oK69ASyDum37zuH3cn5jiflOL+/VVgbiXvA0A+OTzfYa4q47Uoay8Av/31uhxH69tBADccc/TKCuvwNYdWtwPLTLG/ezfP8K/znsw5PNwZv2uOhw72ZFqN1wJM3cu5FRzG47XNKKoMA+FBSNwvKYRNXVNGDM6D2PH5KOhsRXVR+sxMi8LkycUobWtE/sPnkBmpg8zzhiH7p5e7NxzBB6PjFlnTgIAfL79IABg9tmToMgydu6tRnd3H2ZOHY+MjDTsP3QCra2dKJ1YhLzcLFQfa0DDyRaMK85H0ag81NY34diJRhQWjMCEcYVoam7HwcO1yMnJwNTJxejs7MHu/Ufh83lx1vQS+P0qtu2sgiQB555TCkATY/4+FWfPnIA0rwd7DhxDR0c3ppYWIyc7A4eqa3GqqR0Txo9CYX5Ov+Pu6e3Djt3VUDwyZic9bg/Omj4BflXFth1VAIDzZqUu7q1fHoQQwOyzJkFRZOzcewTd3b1JjXv7rir09ak4a0YJfGnelMY9Y+o4ZGb4cKDqBFpaOjF54miMzM1OStx7DxxDe0c3zigtxojsDFQdqUPjqTZL3EWjcjGuuCApcR853oD6hhaMHZOPMaPzUNfQjKPHTyYn7nGF2n2tthE1tda483KzUDqxCG3tXdhXeTwpcRfk52Di+FFobmlHZVUtcrLTMbV0bELirmtoxhPPvoerv3U+zppeMriHRYq5ecFmXH1BCa44tzjVrrgOijtCCCGEJJ0nVh3AnGkFmDV5ZKpdcR0Ud4QQQsgwQwiB9Vv24OLzZ6baFTIEYZ87QgghZJjR1+fHH/7yIj5cvyPVrgyYrZWNqG3qSrUbroTijhBCCBlmeL0e3DLvO1j6wgepdmXAPPnuAWw/dCrVbrgST6odIIQQQkj/+eYlX8E/XXBWqt0YMNPHj0BBji/VbrgS9rkjhBBChjFCCHT39CHd5021K2SIwGZZQgghZBjzxHPvY9HTq1LtRr+prm9HS0dvqt1wJWyWdQG/WHsCKw5oL1+WAMAmGSuZ1gUXpeA+ujJSaJsIbQuWF6aylgrtbOpsGWvRfdTtb3lZWmBb2LapnF3yOWTb7Ke1aLCM+TgImzIW/4RNLCbMx6G/toXufGhlDBWY6rOvP2Z/9OV0BYTpPNn64GDb6Xya9jb6ZlOfsKkv7IfpuFmuOViuI2f/zIu6c293Yiz72V2PzpsIGTSqH6VjR+CXqfajn9z/8k7Oc5cgKO6GOZ/XdeKV/c3WBxQiCzrZVMYs6PTPf72gcxQ2ZptOgs7h4ehUr17Q6YVoIgWd+eHv6F+EB/VABZ1Z6wbPx2AEXSTBZChn2ugs6CLUNxhBZ3tKw/U5HQdHQWdzHdn6Z6vFbASd7TXnUIlw+ExIIpAVHKxpx+qtx3HFuWNT7U3MFIzwISONr8hMBOxzN4wRAK5+/TC21oVfQxMtQ6ffHhZMwlDWMZOiL2S3PZqgM+9rU6/RtqlcJF+iCToboWbJksXg34AEXQy2hSHWCNkxJx+czkuUb7dtdk63YBF0MYhVO3/Mu8Yq6Gx90H9yuEaMhy7Jgo53VJIicjO9+PjBb6XaDTIEYOZuGPPy/mZ8UdthyZIIEX6QybDLzhkFnT5jZMnOBQvpsHswx0PQSTq/owq6iA9dY1ljM54pSxZDc/BgBF0k25bsnKWeJAo6k+g3VJRgQSdM58CYobMTa+Gyert2Ij2SoBMwHz/r/o7GzYsUdO5Hgu5m5bA+xddBc0cvHlyxG7/+3vCY2Lijuw9eRYbXw+7/8YaZu2FKe6+KS16sRG1HH4CwoItL/zl9IXMZ84NVv9JOKDjUqxd0lnJxFHT62KI+/A22rKbM9Q3EduT+c6ZKHeq39WcQgq4//ee0upx9Mu8WTdD1p/+coTz7z5E4IyBBkgQgBdSaJGt/DeotWNh8z0uam1FRFAlr//wtjMgc+rkbvls2cQz9s09seXhrA2ra+8KZDjgLuoT1n9N/HO7955zqRhQBleT+c1H90ZeLSdDFLladfNIvxTogot/953R24yLo+tPcql81hB7iJAakoGgDhCRBgoCQAldgULNJ+h+/gatJBP+G/hdYHrqiLojfL3Dr4s+w6BdfS7UrUcnweeBV7HqMk8HCzN0wpLqlF5e/VIluvzAIumB/LbOgCxKXEa4O2Y5B95/TrxukoLOrI1kDIsym4zHCNWEDImKIzc4f866J7j9nLGPnn43dwQo64fCZDA2kwP9kCSKo0yRJy7oFs2+SXqDBRpgFryWHc+/YgoAhf01IkoQX7rwYM8bnptoVkiIo7oYQQgjU1tZizJgxEcv9x7tHsOpQa9QBEf1qbtXtGK/+c5ZykcRlNEFnIySH5oAIG1FhrjSCqIrqi9lnu+ycbmEoCjq7w5K0ARGxiGzeEVOHJAVEGgA5kHGTpXATqSxBCv6MtVyDUURaPESdjZmhyvjCTLz1x8tS7QZJEezFOIR4773V+NWvfgVVVR3LbDzWjtUHW6EIARkCEAJCAKoItiBo2TzJLJyC/4DQdim4k4BJKAbLI1Cx9s/QBKyrVwgRar2QBCALXTmT7dBnVbX4FfpFLIx+SzrbcjC2gE0hovsHXZxm7I5FrLaDh0azLQLbEfpnCMgcW4znxQ6tCUn7F6pCf57UoB+mcymsdvXxmf0Rpn9O/ongNaA7D3LoOGgFBYLnK1xh6JozXUfC0T/jMRSm/0LHXjXGEd7PHJHuo2pzfkjcEMEsm0eB8CoQPg/UDC9Epg9qlg9qdjrUnHSo2T6IrDQgMw1I90L4vIBHARQJkixDgqS71hC86cFw4vTnW18udH0Ko7Azlw+tN++PYXV9HG3owKvrj6bajYjcvGAzVm89kWo3XAn73A0Rurq68Pjjj+NnP5sHWbbX3H4h8McNNWFhE1g/uP5zupX6hz/syoW3hW3rxJSDbcfmVn1FprJOgxJEJP+E6YZtw2AGRIhwEYf+c6ZKHeq39SfKQyMVEwpH8s/cf87oh/Easb3mzBk6R//Mi7pzr9/mmKGLcM0Nowf1UEVAgiRLEEqgGVTRsmxChpaFk4NNpZL1Wgr9KIz8fQ6eZ2bq+k/FSztw9YXj4fBIIS6G4m6IsHz5cowaNQqXXeacRn925ynsaugCMFhBZyNAYhBMcRF0djdKB1Fl+KEczb8IN+DhOCAi5RMK29THCYVPHwQCQk2RNZGmSIAsa02mihxI0QcyaYE9gn+E7jOgz94HK7feGyjqEkNHdx/ueX47/uvfZqXaFVvuKz8PXoXKMxFQ3A0B6urq8NJLL2L+/PmQJMujGADQ3O3HQ5trrc2tOvrVf860fywDIiIKugh+DUhUmWOzs5UgQac3HVXQRajf4ks0n/sr6GKIzc4f864De0OEnViD0bbNdZR0QeeCB3Q8EZLWPApF1ppJFRmQFS3TJstaps3wsLURanC+Fm2FnW45rsKOoi4m/r7+CG6aOx0FOb5Uu2Ih00cJkih4ZIcAjzzyMC6//HLMmOE88eRft9ThVJffWTgYBEkQhxurpVx4W7BEoiYU1teXNEEXg21zdk4rY6jE9qOdjYi+mH3WiyQb4T0UBZ35sORlefFvF08IrTrS0IE3Pj0OAEhTJNzwjVKDf80dvdh/vBVb9jeG9vF6JNxwxRQAwOeVjdi89yQA4Pyp+fjqGfkAgKc/PISeHhU3fHOK1ekAC9/aB68s44ZvnWFYf7K1G/uPtWJrpWYzzWMtY64nzaOgXGfr1Y1HcKKxEyOz0/CDSyYBAJ758FDoxeeTx2Tj2/8wFhNGZaG2qQtrv6zF1gOx27P7GsWMBAhZBhQZIvAPik60Kdq28Hc5+NfhOz2URZ1tvaZ6BiLsXCbqgqiqwK8WfYanbvl6ql2x8PtntuEbXynGxWeNTrUrroPibhDU1dVh165dKCkpwZQpxgeOqqrYunUrzjvvPMdsHABs374dW7ZswfLlzziWOXCqG8u/PKm7AZpupIbSzoKu3/3nTPsblvsh6PT1xfMNEf3pP2dnO3Jzq6nSCILR4s9ABJ3+OEQTdDE0odvtFpc3RNj8iDhzXA7mfTssXKrq2vHGlmOQAPi8Cm78l6mw45N9J3HTok/R3etHmq7cE+9WYvOeBgDA+dMK8R+Bul/beAQtohfzrpxmWx8ALHprP9K8MuZdZV9mzfZa/OfCTyOWAYBFb+9HRppiKNPa2YvlHxxCfo4vtP7NzUfR0tGLS2YV4YGffBU+bzjr9eMrpuChV3Zj6erKmOzZTlwQEG1CkSE8skGohdYHloFgEygs17+j2IJ5+TQUdTZm3MYXlY3YtLceF0wflWpXDJxs6UZnjz/VbrgSirsBcuDAAcyb9zP09PRACIHbb78DV155JQCgpaUZL730MpYtW4o1a9Y6ijtVVfHww3/D9ddfj4KCAkdb96w7Ab9fDY8YxAD7z+m2OQo6W9HmIOjsbohODxXEIOhiaL4cSHOr3nZkQRclvgQJuuE+IGJSUbah7pLCTKQpMnr9qsFua2cvTrX1ojg/HV5FxtemFeC6Sydh8buV2ghX20CcD6xWX4/j9mCZlvZejCvMBABcOqsI/zJnLNZ+WduvegDgwpmjsPyDQ5b1sizhN9eeDZ9XhhDAl1WnMKU4B1npHtw0dzpWbj6Gzp4+G3tS6KCqORnok6VAti0wqlSRQ9OCRLvOKOoo6qLx22XbsfpPl6faDQO/+/fZyEqnDEkEPKoD5P3334eiKFi58i3ceedv8Pbbb4fE3TPPPIMVK1ZErePNN99AW1sbvve97zvbOdSCj6paAAxQ0JkEDpA8QSf0xaP5F+EmO5QGRCSs/1wE20N9QMSU0VkAgPbuPmT5PFBkCRMKM1FZ02aw/+K6asx/fS9yM714+Tf/iKK8dFw0cxQWrzpgDtDqfHC1bpagFz86jPmv7rGWg7XMuVPysSzQLDVr8kiDuIulHgD4h6kFtu/AHJufgbH5GQCAx1buw8J3KjGxOAdv/r+L4fPKmHnOGGyubg2Vf3ZbAx74+Jjx2ObnGM8ddOcr4vUfFHYUdbblTXZPR1EXpPZUJ55cdQDlEboHJJvCEUOvH6Bb4DCVAdLW1oaRI/ORnZ2N4uJitLaGb97z5t2In/70pxH3b29vx5NPPomf//xmeL1e2zK9foF7150IPIwDD7zgL3RVOM5BF1wXmjcMCDwEdHPQifC+0O0DIYxz0AX2tailoF0RnNfMef45J/8GM/9cJNuGac6EdQ46Q0ACEeNz9MXOZxjn0ApVE3Ao4vxzJtuO88+ZxKuI4l+0+ee0x7VxDjrH+ed051Xv3+RA5m7j7obQsZg8JktXczA2zUhzew/2HNV+sIzNz0DYOExlTcd5EA/krZWNaG7X+saNzksfUB0ZPgXnTB8Ff2b4gdRTmIuCaUWh5T2SF52lRdiTkQl/IKbicbnoy8kIVyRJhvNqnpcyeM5C6+2uN4HA9aS7ToPVJ0DYhc5l6Box+WZzjVp+QOq+g5yrLjU8+uY+9PQ5z6OabP788k58srchekHSbyjuUsSSJU9i8uTJuOiiixzLLN1Wj0NNXeGbk2p/87QTdKGHtIhB0LlwQuGYBR2MNiIKOhtsJxQWiE3QmWxHmlDYfEoi+RfzhMIIHrMIgk5/Tg3+hf+VjtEydx/vroca8Ld0dDZCEwrrCezj92sPGC0TZl8m3g/hrkDfHtXskyRB9Xnhz0pHX14WegtHoHvMSHSPzQ8VOdaqNdvOOX8CeorCr3Tqy8mApBN7QjWJMgAKYCs44iLq9N81J8Flsmv+HoSuJfN3JfRHd09AvLN15ovX5LtpmaJucPT2qfjtsi9S7UaII/XtoQFJJL6wWTYFHDt2FK+//joWLVrkWOZkZx8e3VynqZYAqR4Q0a/+cwZbVlPm+gZiO7iKAyKM9fV3QIT5OjIfeyeHBARyMryhKRb2H2vBicZOjCvIROmYbJtj7PCEFTA0t8YToSjoy86A6lWQkaHd7vZ1CnRODmfbegty0HlGcdiXAH6fEvq87nArrj27ABdNyMYbe8OjfENCPGQw/HHOo9pDtKdXhU/XnBsS0cFddD8ozHXoYb+6KOVNdino7Hnns+P4+dUzUDIqM9Wu4Ka5MzA6l02ziYDiLgXMnz8fV101F5MnlzqWeWD9CbR29w2ZARGG+2Qs4iSaoBug7ciCLkp8CRJ0iRoQ0Z/+c0Y/7AWd04CIyP6ZF40idopuMEVVbRuqats1cVeUbVTgEeo0L585ITc01cjZE/Os+weYc+Zo/DLLF5qf7W+batCmAsgKPyyUohHIPWc85p6RixGBjtufNvZATQ+XuXB8Nu74enFo+ZHNNWjvUQ2ieX11K645uwDnFGUiTz83lyn7FlwHAG1d/tCyTwkf2QsmjsBt/1wSivvRdUfR3uOnqIunqLMxQzSEAG5Z/Ble+M0/ptoVzBg/ItUuuBaKu0EReED24yayceNG7Nq1C3fddZdjmV31nVix66QlK5AyQWeqI5kDIvSmXTEgwuZc2Qo621NqFHRD4Q0RpUVak+zJ1m60dfShqq4dF505CpOKsiCZU6kCMWXoLpw5ChfOtE7Z0Dx9HJrUsLezSkZgVkn44bBgXxvUjl4Ibzjj9uNzCvDjc8Ij0Ss21GBtdStG6KYsmV2UidlF4SzGE5/Xoa3bOD1DQ0cv9jZ0YkZhBi4sCQtai7CDsBwjc/PrrOIszCrOCi0/uek42rut00FQ1FHUJYrd1c1Ys70Gl84ak1I/nlh1AHOmFWDW5JEp9cONUNwNkNGjR6OmpgYffbQWO3fuwLhx46Pu09fXh0cffQQ/+clPMWJErmO5P645ClUVpod+FEFnEC2xC56kC7oYbJuzc1oZQyW2H+1sRPTF7LNddk63MBQnFDZ8chB0xkM3eEGnJziY4nBtOwCBw3XaCNn0NAXFIzPR0h6eYkT1edCTnwO/zwN/hpY5Ex4FTbNL0ZMZHlTU4xfoCvTJS1dkpAWyXsLrgaSbE+tkZx9qO/pCMaiqqruA7blwXBaWfFFvWHeysw91bb2hQ9HrF7D24dKaZmcUZuCiCTmO9dsJOzMnO3pR1xo+Ln02/RLD14SgqKOoSwi/XbYNHz+YWnH3xcFGTBidFb0g6TcUdwPkqquuwgcfvI+77roLeXl5uP7666Lus2LFCsiyjLlz5zqWeXPvKWw+1hYSc0AMgi6mpi/rQz2eEwrr6xuI7cjNraZKEy3o9MchToLOvFtc+s/pFqL1n7P6Z7IL8/Gz7m/eT8gSJo/VhE5lczc6i0Zirz98Sym6cAoON4ZFTHdBLlqnjgUA+NM1MSckwJ/mMTj3+I5G3LtFE2C3fbUQvzy3MOS/Xiy9sLcJf95Ua/DLnCVbeaAZr+1rwpVTcvGd6Xm4ZGIO5k7Nw3sHW0JlXtrZiPvXH7ePNxSswLqqFvzkq6Nxri7rhmB2zbCs+TA5XxuV29jRB78aTlmu2FaPBz+strFhFHXBmINx6eOMh7CjqDu9ae7oxWMr9+HGCJOCJ5ofXDLJMk8miQ8UdwNk5MiRWLJkKVpbW5GdnW2ZqPjaa3+Aa6/9QWi5qakJy5Ytxd133w1FUczVAQC6+lTcv+44ZPPDAjbLAxB0HBARtmepxvIQ1FUUwXY8BV1/+s8ZbDsIuv72nwutlyT40xSoaR4Ijwf+NA+ER4HqU6B6vFDTFKhpXghFxqQSrU9cd04mzpozERmZ4Wu7dFQWPmkOT95r8EFvzyyQoBMlhn2FwU8pdBHbZ8gA4EhzN94/2IyPD7fg22fkwqdImFmYjvcrm41OWX4cwGLrs6Ot6PGLUCYx5IN+P50vK284B4osoeKDarz8RS0cSbKo0/4kUdhR1A1Znnj7AK67vBTZKZpI+KIz+dqxREFxN0hycpybaPQsXvw/OO+8r2LOnPMdyzy+pRbHm7utG5wEnd3NzeHhIPTFYxEn0QTdAG0uceCxAAALJElEQVRHFnRR4ku4oItdrDr5pF/qz4CIfvWf09mNKOjMNmUZfo8MkaZA9XqhehVNtKV5oHo9ob9CiW2GpDRFQkm2loH74bRc/HCasavB1Dyv0Qe9otehHSejYJL0+wTXw0ZM2WRsrQMcgJ4+gcbOPhRnezE5zwfL/Hs629o6q+Dr6lPx6bFWfH2CrhO4TTlttf47ZhWvBv91x8VVos62XlM9AxF2FHVxo9ev4s4nt+JvN85Jif3n1hzCV6bkY2aJczclMjAo7pLA/v37sWrVKixZstSxTE1rLxZ/qvt1H09BZ34A2uwb6YaZtAEREeq3+BLNZ9PGqIIuhtjs/DHvmuj+c8YygfpkCaonINg8ClSvoom0NA/8aYFMm0cTcvGkdEQaZIvaDTM1N820JnBtCIFcnyYgG7uc3ytpJ9yM1QnLNltxF1jvD/Rt06bWM9dtrFOb08+kTIXA+kMtBnEnCYG2rnB2Mt0jQQgBnyxBDhyclk4OlmC2buiy9sta7DvWgmnjkj9ydcPuehTmplPcJQCKuyTw8MN/wzXXXIPx450HXdz30dHwC5SjCTqbGzAHRDhk53QLQ1HQ2R0WvW3VI8PvDTaPagJNeD3wexUIrwK/16uJtggiK1FMzdWydqoApjxzAD1+LYCFlxRj7qRsTdzpApyel4b/XZqDswt8+FpgdGplU49FkEnQTaqrNxi6uAP15afju9PyDILh9b1NFj/tMnl6phWk4zszdKP1hMAbuxsNZYLNtOurmnHrJcbvcfWpLghovv77eUU41dGLfyrNC/le1dhptFeYgblnhfsRAsDK7XWB723YB6PPFHUkMQgAty3+HK/+7tKk2776ghJMHRtb6xfpHxR3CebDDz/E4cPVuPfeCscynx9vw8rdJ40rHURVogZESJHKxGA7cnOrqdIIgtFc/4AEnSGjYzIag1i188m826AGREgShKIERJsSEGoeTbR5gqLNkzLRFivBzNyRtl5N2AXirGzSBlHk+RQU6iYCvmJCNq6YEO48LQA8tu2kcRR4gNAbNUzZOb1Qu2xSDi6bZHwwvLm32XhORPicBP8qpnTjZaW5uKzUmDlYueeUreDYXduBxo4+5GeGb53NXX14bUcDvnt2IWaPzcb/XDMjtG13bTs+P9qKLN30LJdOHYlLpxqnfnh7e732ujKKOtN2kCRwsKYNb3xyDHO/Ni6pdq84tzh6ITIgKO4SSE9PDxYseAzz5v0MWVn2w71VAfz3B0eMv9qDODXZIAZBF0Pz5ek+IKI//eci+RfKzkkS4AkLM9UbaA7VZ9o8HgivbGd92HFGQNxVtvQYsmqVzT26Mtb3Jjd1+7G3sRsPfFaP7fWd1sxdSNgNzC9jpi4smGraelGS68PEXJ/NtWpCGAdvQOfjhqpmXHVmQXA1JCHw36urIAO48qwCKJJ2hW4+3II736yE8AtInhiCiYOwo6gjA+XeF3bgyjnjICfxpaSrt57A1LE5HDGbACQhbJ6yJC4sW7YU69atw6JFj0N2+Ma89GUD7nynKrzCQVQZNUsUQRfhjA60/5zZRPCmPagJhWP12bTRWdDFLladfNIvGQStHBRrckikqWmegHjTluGRIaThL9pixvwgNmXInPrMma+v4PkzX5uO+zv8KJFM9mPpV2eMR8RULtLrwryKhLG5PtS19ITeZevKfnUUda7kR5eX4tbvn5k0ezcv2IyrLyhhBi8BMHOXIOrr6/Hss8/i/vsfcBR27T1+PPTxsYiiSgD2oihIAgWdMJmO64CIKDfxZA2IEIqijSANZNmCAw+0gQnhDNxpJdqiQVFn8SFIr1+g+mSn4cvjKlFnW6+pHgq7YcuzHxzCT799BvKyzYOhEsPXZ47C+MLUv+PWjVDcJYgdO3bgsssux6xZsxzLPLLhOBraegxzY9kJukRMKKyv140DIqDIUD0eTZgpstYc6lGgerX1mpjzQFCz9Y8ECrvhLOpC2ynqnMub7FLUDT38QuCWxZ9j8X9ekBR7/3rp5KTYOR1hs2yKqG7qxpWLt6PHr5txaxCCrj/95/Tlzfdf++ZWU6URBKPFn4EIOv1xMD1ohCzrsmvhz35PcCRpoImUoi2+JFDURdw/EcKOos5QP0UdMfP0bRdj9uS8hNtZv6sOk4qyMa6A2bt4w8xdivjT+4fRHXyHZYBkTCgcLK57Fg2NCYUlwO9RtH5rSnjaD79HhvB4IDwyRVsqcJOoM6yPXC4mYSf02/kOWIo693D7E5/hnXsuT7id59dW4eoLSijuEgDFXQrYWNWCD/afAuAg6CLc/AbTf05vIh6CLmK2MIgsQVVkCI8c6N+mNZOqHgWqokAEm0kjzYZLkg9FncUHvV+SyQ++AxbOsVLUDTuOn+zE82sP4weXTEyona+U5qMoLz2hNk5X2CybZPyqwHeX7MC++g5txWAEnc3N3Km5VStjfoCYKo0gGC2+SBL8iqw1hSqBUaRKoE+bokB4KNqGJRR1Fh/0fiVT1Gl/kijsKOqIjvQ0BRse+hY8yZwbhcQNZu6SzDOf12JfXbu2MAhB158JhbUyhkpsPwLQMm2SpA1EkDWxBlnW+rcp4abSpE6GRBIPRZ3FB4u/ui+Xq0Sdbb2meijsTju6evy455kv8fsfzU6YjT1HWzA614f8HF/CbJyuMHOXRJo7+/DNhV+gqbPPsq0/AyLM/ed0RZwHREiACL6DVAlM+RFoLlXlwFQgigxB0Xb6kUBhR1FHUUeGL7IsYdWfLkdRbmKaTjnPXeJg5i6J/PWjIwZhF5f+c5IEyICqKNr0H4F/whMQa0q4mZQQAwkUdRH3j4Owk8zbKeoM9VPUkXigqgK/XvQZlt92UULqLxmVhRGZ1rfYkMHDzF2SONDQiasXb4fqV7UVUQVdWLSpOtGGkHgLiDZZNt3lCYnCMBZ1dvUnsl8dRZ2pvMkuRd3pweO/+BoumDkq1W6QfkBxlyRueG431lc2BZpH5VATqKpIEIoMKMFMm6SJNoWZNhJnKOosPuj9SslgCYo6MgwYNSId79/3jbjX29DSjax0DzLSlLjXfbrDZtkk0O1X8b3zxuAb54xGc6+WuYv4SqzA3wEn5OKp1wdYVSTfzVU6lRVOD7aBEnMsLntiRQsnyvVinVDbvN1BGERzKMbDbBF1Uap1XBGrvVD5WK+D/sVj9Se6nxGv//5836Mdo5j3I6cbPX0q0vrZvef1TUeQneHFZbPHYP2uOryy4QjOmZSH678xBYfr2lH+0Abccc3Z7HOXACjukoBPkfG/po9MtRuEEEJI0pg4Ohu+QFZuzMgMXDCjMDRhcXa6B/OunIYzJ+Sm0kXXwmZZQgghhBAXwY5dhBBCCCEuguKOEEIIIcRFUNwRQgghhLgIijtCCCGEEBdBcUcIIYQQ4iIo7gghhBBCXATFHSGEEEKIi6C4I4QQQghxERR3hBBCCCEuguKOEEIIIcRFUNwRQgghhLgIijtCCCGEEBdBcUcIIYQQ4iIo7gghhBBCXATFHSGEEEKIi6C4I4QQQghxERR3hBBCCCEuguKOEEIIIcRFUNwRQgghhLgIijtCCCGEEBdBcUcIIYQQ4iIo7gghhBBCXATFHSGEEEKIi6C4I4QQQghxERR3hBBCCCEuguKOEEIIIcRFUNwRQgghhLgIijtCCCGEEBdBcUcIIYQQ4iIo7gghhBBCXATFHSGEEEKIi6C4I4QQQghxERR3hBBCCCEuguKOEEIIIcRFUNwRQgghhLgIijtCCCGEEBdBcUcIIYQQ4iIo7gghhBBCXATFHSGEEEKIi6C4I4QQQghxEf8fU97NzoV8CzQAAAAASUVORK5CYII=;fontFamily=Comfortaa;fontSource=https%3A%2F%2Ffonts.googleapis.com%2Fcss%3Ffamily%3DComfortaa;" vertex="1" parent="1">
          <mxGeometry x="270" y="60" width="551.83" height="460" as="geometry" />
        </mxCell>
        <mxCell id="vaTgJTLyDpVTGSEm01bZ-8" style="edgeStyle=orthogonalEdgeStyle;rounded=0;orthogonalLoop=1;jettySize=auto;html=1;fontFamily=Comfortaa;fontSource=https%3A%2F%2Ffonts.googleapis.com%2Fcss%3Ffamily%3DComfortaa;fontSize=15;" edge="1" parent="1" source="vaTgJTLyDpVTGSEm01bZ-2" target="vaTgJTLyDpVTGSEm01bZ-7">
          <mxGeometry relative="1" as="geometry" />
        </mxCell>
        <mxCell id="vaTgJTLyDpVTGSEm01bZ-30" style="edgeStyle=orthogonalEdgeStyle;rounded=0;orthogonalLoop=1;jettySize=auto;html=1;fontFamily=Comfortaa;fontSource=https%3A%2F%2Ffonts.googleapis.com%2Fcss%3Ffamily%3DComfortaa;fontSize=15;" edge="1" parent="1" source="vaTgJTLyDpVTGSEm01bZ-2" target="vaTgJTLyDpVTGSEm01bZ-25">
          <mxGeometry relative="1" as="geometry" />
        </mxCell>
        <mxCell id="vaTgJTLyDpVTGSEm01bZ-34" style="edgeStyle=orthogonalEdgeStyle;rounded=0;orthogonalLoop=1;jettySize=auto;html=1;entryX=0.5;entryY=0;entryDx=0;entryDy=0;fontFamily=Comfortaa;fontSource=https%3A%2F%2Ffonts.googleapis.com%2Fcss%3Ffamily%3DComfortaa;fontSize=15;" edge="1" parent="1" source="vaTgJTLyDpVTGSEm01bZ-2" target="vaTgJTLyDpVTGSEm01bZ-33">
          <mxGeometry relative="1" as="geometry" />
        </mxCell>
        <mxCell id="vaTgJTLyDpVTGSEm01bZ-2" value="Adherence" style="rounded=0;whiteSpace=wrap;html=1;fontFamily=Comfortaa;fontSource=https%3A%2F%2Ffonts.googleapis.com%2Fcss%3Ffamily%3DComfortaa;fontStyle=1;fontSize=27;" vertex="1" parent="1">
          <mxGeometry x="422.96" y="620" width="225.91" height="110" as="geometry" />
        </mxCell>
        <mxCell id="vaTgJTLyDpVTGSEm01bZ-18" style="edgeStyle=orthogonalEdgeStyle;rounded=0;orthogonalLoop=1;jettySize=auto;html=1;entryX=0.5;entryY=1;entryDx=0;entryDy=0;fontFamily=Comfortaa;fontSource=https%3A%2F%2Ffonts.googleapis.com%2Fcss%3Ffamily%3DComfortaa;fontSize=15;" edge="1" parent="1" source="vaTgJTLyDpVTGSEm01bZ-3" target="vaTgJTLyDpVTGSEm01bZ-17">
          <mxGeometry relative="1" as="geometry" />
        </mxCell>
        <mxCell id="vaTgJTLyDpVTGSEm01bZ-3" value="Time Frame" style="rounded=0;whiteSpace=wrap;html=1;fontFamily=Comfortaa;fontSource=https%3A%2F%2Ffonts.googleapis.com%2Fcss%3Ffamily%3DComfortaa;fontSize=15;" vertex="1" parent="1">
          <mxGeometry x="-50" y="870" width="120" height="60" as="geometry" />
        </mxCell>
        <mxCell id="vaTgJTLyDpVTGSEm01bZ-9" style="edgeStyle=orthogonalEdgeStyle;rounded=0;orthogonalLoop=1;jettySize=auto;html=1;entryX=1;entryY=0.5;entryDx=0;entryDy=0;fontFamily=Comfortaa;fontSource=https%3A%2F%2Ffonts.googleapis.com%2Fcss%3Ffamily%3DComfortaa;fontSize=15;" edge="1" parent="1" source="vaTgJTLyDpVTGSEm01bZ-7" target="vaTgJTLyDpVTGSEm01bZ-3">
          <mxGeometry relative="1" as="geometry" />
        </mxCell>
        <mxCell id="vaTgJTLyDpVTGSEm01bZ-11" style="edgeStyle=orthogonalEdgeStyle;rounded=0;orthogonalLoop=1;jettySize=auto;html=1;entryX=1;entryY=0.5;entryDx=0;entryDy=0;fontFamily=Comfortaa;fontSource=https%3A%2F%2Ffonts.googleapis.com%2Fcss%3Ffamily%3DComfortaa;fontSize=15;" edge="1" parent="1" source="vaTgJTLyDpVTGSEm01bZ-7" target="vaTgJTLyDpVTGSEm01bZ-10">
          <mxGeometry relative="1" as="geometry" />
        </mxCell>
        <mxCell id="vaTgJTLyDpVTGSEm01bZ-7" value="Realistic" style="rounded=0;whiteSpace=wrap;html=1;fontFamily=Comfortaa;fontSource=https%3A%2F%2Ffonts.googleapis.com%2Fcss%3Ffamily%3DComfortaa;fontSize=15;fontStyle=1" vertex="1" parent="1">
          <mxGeometry x="260" y="980" width="120" height="60" as="geometry" />
        </mxCell>
        <mxCell id="vaTgJTLyDpVTGSEm01bZ-14" style="edgeStyle=orthogonalEdgeStyle;rounded=0;orthogonalLoop=1;jettySize=auto;html=1;entryX=1;entryY=0.5;entryDx=0;entryDy=0;fontFamily=Comfortaa;fontSource=https%3A%2F%2Ffonts.googleapis.com%2Fcss%3Ffamily%3DComfortaa;fontSize=15;" edge="1" parent="1" source="vaTgJTLyDpVTGSEm01bZ-10" target="vaTgJTLyDpVTGSEm01bZ-13">
          <mxGeometry relative="1" as="geometry" />
        </mxCell>
        <mxCell id="vaTgJTLyDpVTGSEm01bZ-16" style="edgeStyle=orthogonalEdgeStyle;rounded=0;orthogonalLoop=1;jettySize=auto;html=1;entryX=1;entryY=0.5;entryDx=0;entryDy=0;fontFamily=Comfortaa;fontSource=https%3A%2F%2Ffonts.googleapis.com%2Fcss%3Ffamily%3DComfortaa;fontSize=15;" edge="1" parent="1" source="vaTgJTLyDpVTGSEm01bZ-10" target="vaTgJTLyDpVTGSEm01bZ-15">
          <mxGeometry relative="1" as="geometry" />
        </mxCell>
        <mxCell id="vaTgJTLyDpVTGSEm01bZ-10" value="Schedule" style="rounded=0;whiteSpace=wrap;html=1;fontFamily=Comfortaa;fontSource=https%3A%2F%2Ffonts.googleapis.com%2Fcss%3Ffamily%3DComfortaa;fontSize=15;" vertex="1" parent="1">
          <mxGeometry x="-50" y="980" width="120" height="60" as="geometry" />
        </mxCell>
        <mxCell id="vaTgJTLyDpVTGSEm01bZ-13" value="Choose the schedule fit your life, how many time you have" style="ellipse;whiteSpace=wrap;html=1;fontFamily=Comfortaa;fontSource=https%3A%2F%2Ffonts.googleapis.com%2Fcss%3Ffamily%3DComfortaa;fontSize=15;" vertex="1" parent="1">
          <mxGeometry x="-390" y="965" width="200" height="90" as="geometry" />
        </mxCell>
        <mxCell id="vaTgJTLyDpVTGSEm01bZ-15" value="Don&#39;t choose 5 day / week plan for your free 4 day / week&amp;nbsp;" style="ellipse;whiteSpace=wrap;html=1;fontFamily=Comfortaa;fontSource=https%3A%2F%2Ffonts.googleapis.com%2Fcss%3Ffamily%3DComfortaa;fontSize=15;" vertex="1" parent="1">
          <mxGeometry x="-390" y="1100" width="200" height="90" as="geometry" />
        </mxCell>
        <mxCell id="vaTgJTLyDpVTGSEm01bZ-17" value="Don&#39;t choose 8 week plan for your 7 week before meeting your friends" style="ellipse;whiteSpace=wrap;html=1;fontFamily=Comfortaa;fontSource=https%3A%2F%2Ffonts.googleapis.com%2Fcss%3Ffamily%3DComfortaa;fontSize=15;" vertex="1" parent="1">
          <mxGeometry x="-390" y="740" width="200" height="90" as="geometry" />
        </mxCell>
        <mxCell id="vaTgJTLyDpVTGSEm01bZ-19" value="consistency &amp;gt; perfection" style="ellipse;shape=cloud;whiteSpace=wrap;html=1;fontFamily=Comfortaa;fontSource=https%3A%2F%2Ffonts.googleapis.com%2Fcss%3Ffamily%3DComfortaa;fontSize=15;fontStyle=2" vertex="1" parent="1">
          <mxGeometry x="-30" y="1055" width="160" height="130" as="geometry" />
        </mxCell>
        <mxCell id="vaTgJTLyDpVTGSEm01bZ-20" value="&lt;div&gt;You have to start with what you &lt;b&gt;can do&lt;/b&gt; before you decide what you&lt;/div&gt;&lt;div&gt;&lt;b&gt;should do&lt;/b&gt;.&lt;/div&gt;" style="ellipse;shape=cloud;whiteSpace=wrap;html=1;fontFamily=Comfortaa;fontSource=https%3A%2F%2Ffonts.googleapis.com%2Fcss%3Ffamily%3DComfortaa;fontSize=15;fontStyle=2" vertex="1" parent="1">
          <mxGeometry x="-20" y="700" width="230" height="170" as="geometry" />
        </mxCell>
        <mxCell id="vaTgJTLyDpVTGSEm01bZ-23" value="You will put more effort into training if you enjoy" style="ellipse;whiteSpace=wrap;html=1;fontFamily=Comfortaa;fontSource=https%3A%2F%2Ffonts.googleapis.com%2Fcss%3Ffamily%3DComfortaa;fontSize=15;" vertex="1" parent="1">
          <mxGeometry x="340" y="1190" width="200" height="90" as="geometry" />
        </mxCell>
        <mxCell id="vaTgJTLyDpVTGSEm01bZ-27" style="edgeStyle=orthogonalEdgeStyle;rounded=0;orthogonalLoop=1;jettySize=auto;html=1;entryX=0.5;entryY=0;entryDx=0;entryDy=0;fontFamily=Comfortaa;fontSource=https%3A%2F%2Ffonts.googleapis.com%2Fcss%3Ffamily%3DComfortaa;fontSize=15;" edge="1" parent="1" source="vaTgJTLyDpVTGSEm01bZ-25" target="vaTgJTLyDpVTGSEm01bZ-23">
          <mxGeometry relative="1" as="geometry" />
        </mxCell>
        <mxCell id="vaTgJTLyDpVTGSEm01bZ-29" style="edgeStyle=orthogonalEdgeStyle;rounded=0;orthogonalLoop=1;jettySize=auto;html=1;fontFamily=Comfortaa;fontSource=https%3A%2F%2Ffonts.googleapis.com%2Fcss%3Ffamily%3DComfortaa;fontSize=15;" edge="1" parent="1" source="vaTgJTLyDpVTGSEm01bZ-25" target="vaTgJTLyDpVTGSEm01bZ-28">
          <mxGeometry relative="1" as="geometry" />
        </mxCell>
        <mxCell id="vaTgJTLyDpVTGSEm01bZ-32" style="edgeStyle=orthogonalEdgeStyle;rounded=0;orthogonalLoop=1;jettySize=auto;html=1;fontFamily=Comfortaa;fontSource=https%3A%2F%2Ffonts.googleapis.com%2Fcss%3Ffamily%3DComfortaa;fontSize=15;" edge="1" parent="1" source="vaTgJTLyDpVTGSEm01bZ-25" target="vaTgJTLyDpVTGSEm01bZ-31">
          <mxGeometry relative="1" as="geometry" />
        </mxCell>
        <mxCell id="vaTgJTLyDpVTGSEm01bZ-25" value="Enjoyable" style="rounded=0;whiteSpace=wrap;html=1;fontFamily=Comfortaa;fontSource=https%3A%2F%2Ffonts.googleapis.com%2Fcss%3Ffamily%3DComfortaa;fontSize=15;fontStyle=1" vertex="1" parent="1">
          <mxGeometry x="475.91999999999996" y="980" width="120" height="60" as="geometry" />
        </mxCell>
        <mxCell id="vaTgJTLyDpVTGSEm01bZ-28" value="Sometime you train harder, sometime don&#39;t.&lt;br&gt;Don&#39;t make it feel you need to train hard all the time" style="ellipse;whiteSpace=wrap;html=1;fontFamily=Comfortaa;fontSource=https%3A%2F%2Ffonts.googleapis.com%2Fcss%3Ffamily%3DComfortaa;fontSize=15;" vertex="1" parent="1">
          <mxGeometry x="570" y="1190" width="280" height="110" as="geometry" />
        </mxCell>
        <mxCell id="vaTgJTLyDpVTGSEm01bZ-31" value="" style="shape=image;verticalLabelPosition=bottom;labelBackgroundColor=default;verticalAlign=top;aspect=fixed;imageAspect=0;image=data:image/png,iVBORw0KGgoAAAANSUhEUgAAAbEAAAGHCAYAAAA+82wBAAAABHNCSVQICAgIfAhkiAAAABl0RVh0U29mdHdhcmUAZ25vbWUtc2NyZWVuc2hvdO8Dvz4AAAAtdEVYdENyZWF0aW9uIFRpbWUAU2F0IDI5IEphbiAyMDIyIDA3OjA4OjA5IFBNICswNzsYVS8AACAASURBVHic7J13eFv1vf/f52hLluW9Vxw7cWxnb0hCIEAIo5TVllKg7W1pb7l03d7yowvourf7tr3QssreYa9ASCAJ2XGm7XjEe8tDe571+0OObHnEki37HB19X8+TJ7Z8JH0sS+d9PpsSBEEAgUAgEAgxCC22AQQCgUAgTBciYgQCgUCIWYiIEQgEAiFmISJGIBAIhJiFiBiBQCAQYhYiYgQCgUCIWZRiG0AgSAmOFzDk9GPI6YfTy8LhZeH0snB7WbgZDi4vC5eXhdvPwcNwwHCDip8TwHE8AEAYvtHH8NAoFQAlQK9WgqYoGLRK0BSg1yigpGlo1DSMGiVMehVMehWSDGok6VVITlBDp1aI9TIQCDEDETFCXGFx+tEx6IbZ7sOA3YcBhw+DTj8sTj8GHX7YPAwEADQFUBQFCgBFzY1tghDQREEQwAuAkqZg1CqRZFAjzahGpkmHrCQNspN1yErSIjtJC5WSBFMI8Q1Fmp0JcoPnBfRYvWjrd6F9wI0uiwedgx50Wzxw+zjQNEBT1JyJU7QRBIAXBECgYNIrkWnSIjtFi4JUPeZlJKAkKwEmvUpsMwmEOYGIGCGmYTkBzWYnznbZ0djjxLleJ3qsXvCCACUdu0I1Xc4LnFGnREGqAfMyDChKD4hbUboBSkWcvSAE2UNEjBBTDDh8qG63obrDhmazC639LvA8QJOo2gXheQAUkJ+qw8JsIyrzTVg+L5l4bISYh4gYQdK0D7hxosWC0+02nOmwwePjoFTEn4c1G3CcgKxkLRbmGFGem4iKfBPyU/Vim0UgRAQRMYKkGHL6cbrNipNtVpxstcLi8kNBE8WaCzhegFGrQmWBCetKUrBqfgoStKT2iyBtiIgRRIXjBZxus2J//SCOt1rQb/MRT0si8AJQkpmAZUVJWD0/BaXZCaDJH4YgMYiIEeYcL8PhaJMFhxoGUNVihdfPkZyWxOF5wKBRYvk8Ey5emI5V85OhUpA/GkF8iIgR5gS7m8GBhkEcahjA6XY7BAjE24pRBAHQqGisKk7BRQvTsLo4mfSrEUSDiBhh1mBYHkebhrCrph9VTUOgqLlrHCbMDYIAKBU0lhSYsKYkBZeUp0OrIpNGCHMHETFC1KnusGHXGTMONA7Ax/AgdRnxAS8AagWNi8vScNXSLCzMMYptEiEOICJGiApmmw+7zvTh4+peDDoYkuOKc3geyEzSYvOidGxbno0kA+lHI8wORMQI04YXBByoH8Tbx7pwtstO8iKESaCwcl4SrlyahZXFyaTCkRBViIgRIsbuYfDBiR68f7IHNhdLvC5CWPACkKhVYtuybFy7MgdGHelBI8wcImKEsGkfcOPtqm7srjYjuIOEQJgOArCmNBVfuigfRekGsa0hxDBExAgXhBcE7K8bwFvHulHf44CKDJAlRBGeBxYXJOKGNXlYMS9ZbHMIMQgRMcKE8LyAXdVmvHKwA2a7l4x+IswqPA/kpGhx3cpcXL44gzRSE8KGiBghBJYTsLumD68e7ES/w0fK4wlzyvm82fWrc3HdyhyoSbEQYQqIiBEAAAzH45MaM17a3wGLy0+akgmiIgiAkYgZIQyIiMU5fpbHm0e78Naxbrh8LPG8CJJCEACjTokvrM/H1qVZJMxIGAcRsTiFFwR8fLoPz33WDruHIeJFkDS8ACTqlLhlXT62LcsmG6oJQYiIxSFVzRY8+WkLOoc8RLwIMQUvAKkGNW7fVIjNFRlim0OQAETE4oi2fjee2duKqmYLaVAmxDQ8DyzIMeKuLcUoyUoQ2xyCiBARiwMG7D48s68Ne872g0RhCHKC44F1pam4a0sxUo1qsc0hiAARMRnDcDxeOdiB7Yc6SbUhQdZQAG5Yk4db1uVDoyJhhniCiJhMOdlqxUMfNmLAQcrlCfFBoPhDhbu2FGNDWZrY5hDmCCJiMsPuYfDE7hbsqTWDJlUbhDiE4wUszjfhnm2lyDRpxTaHMMsQEZMJggDsPNOLJz9phY/lxDaHQJAAFG5Zl4cvrs8nF3QyhoiYDGjqc+JvHzSird9Nqg4JhFHwApCVpMEPrl5INk3LFCJiMQzLCXh2byvePNYNMsiAQJgcQQC2LcvGHZcUQqtSiG0OIYoQEYtR2vrd+P3bdeiykIZlAiEcBAEw6VX4z2sXYnGBSWxzCFGCiFiMIQjAe8e78dSeVvDkT0cgRAzPA1cvz8LXLy0m46tkABGxGKLP5sWf3mlAQ6+DeF8EwgzgBSAvRYd7ry9DfqpebHMIM4CIWIzwaY0Z/9jZBIbjxTaFQJANggDctqEQN63NI/2UMQoRMYnj8LD407t1ONFqJduVCYRZgOMFVOab8KPrFiLZQEZXxRpExCRMbacdv3urDnYPQ64SCYRZRqNS4MfXLcTyeclim0KIACJiEkQQgNePdOL5z9oBkD8PgTBXcDxww+oc3HFJEWhy5RgTEBGTGHYPg9+/VYfqDjtpXCYQRIDngSUFibj3+kUwaJVim0OYAiJiEqKpz4lfbq8l4cMYYvX8FBi1Sui1SvRYPKhqtgR/lpeiw5LCJLh8HNw+FtUdNnj8ZCRYLCAIQJJBjZ/duAjzM8m+MilDREwi7Ko246EPG8U2gwBgxbxkXL44EwaNEgaNAi8f7MDRpqFxx62en4L7Pr8IQCDo+6NnT6LF7Ar+/PLFmfjOlSXB79840oln97VN+JyXVWRg06J0uHwcXD4Wrx/pRK/VG91fjBAxPC/gm1vm45oV2WKbQpgE4iuLDMcLeGxXM94/0UMaL2eZnGQdCtP1SNSp4PSyaB9wo2PQPe646g4b7rykKNg/9J0rS/C9p07A7mGCx1AAvnxxQfD7PbXmEAEDAIMm9ON1zYocvHeiB0NOf8jtuSk6fHPL/JA9WB+c7Bln139sLUVpdgKazS609DnRbHahtd8Fp5cN/0UgRARNU3jk4yY09jpx99b5UJH5bpKDiJiIOL0sfvVaLep7HETAZgkKwCXlGbhpbR5yU3Tjft415MFLB9qxv34geJuf5fGnd+vxh9uWQqWkYdKr8O0r5uP3b9cFj9lQlo7CdAMAgGF5vPBZ+7jHHptPUStpfOmiAjz80bngbQqawg+uXjBukaPbNz7sWJKVgPxUPfJT9bhkUXrwdrPdh+Y+J1rMLjSbA/+PFUrC9FEqKHxaa0bnoBv331wBo46cNqUEuawQiW6LB99/+gQayfSNWYOigLu3luK720onFDAg4AX957ULccu6/JDb2wfcePLTluD360pTcUl5BgCApih86aKR49+u6saAwzfusQ2a8YNmL6vMQN4oW758cQGKJ8i5uHyh3pVKSU/6O2QkarCuNBW3XlyAn95Qjse/tZrkcaIMTQHNZie++9SJCb13gngQEROB6g4b/vOZU+RqeZqolTRWFifjW5fPx72fK5vwGJqi8L1tC3BZZUbwNoblceTcEPbXD6ChxxFy/K0XF+DmtXkht+041YvDjYPB779x2TykGtW4rDID2ckBQbF7GLxxpHNCG0aHE88nnmmKwm0bCwEAlfkmfH513rj7CRjviRWm6YPN7gKA5z9rw766fnQOeTA2q80LAtrHnGjTjBqsLU0lE9xniM3tx4+eO4XTbVaxTSEMQ/ziOWbHyV78c2cTKZ+fAWtLU/GDqxcACJzQk/QqWN1MyDFXLcvCplEht09rzfjXJy0h+aOFOUbc+7kyJA1Pabh1QyGqWiwhua2HPjqH+VkJSDNqYNAocc9VpchJGvGIXj7QAfckFYejRWzn6V5sqcyEgqawtiQVK4uT8e3LS4JVqB2D7mAOzuPnxg13Ls4Y8ax6rV68dnhEODUqGoVpBhRnGDAvIwF6jQIMGzqebENZGu7YVASWE7DnrBkPfXgOhOnBsDzuf7UG39tWis0VGVPfgTCrkFPpHPLa4U48/NE5ImAz5ESLJXiSpwCsKA6dsEABuHHNiIdzrHkIf9/ROK4Aor7bgQe31wRP+BSA61bmhBzj9LL43/cbgs+3pCAJaYkaAIGQ8Eeneye1c3ROrKHbgR0nR4697/OLkGoMiGfbgBvbD42IknuCQo15GYbg1y1mZ8jPfAyPhh4HdpzqxT92nsOf3q0fd/9VxSkAAvmdyyozkWnSTmo3YWooCvjzew14alTImSAO5HQ6B/C8gL++34hn9raSAo4o4PSyqOsaCQeuHj5Bn2d+VgJSEkZm4L1+uHNcyO08bQNuHBoVMlwxwcih2k47Xj00PmT47N42cPzkHSqjc2IuH4eXD7bD4QkI1PlpEF6Gwx/fqYNq1PvC6buwiBWmGXDrxQVYV5oalhglaJUoyx3ZakwBIWHW0dy2oRAby9KRQJp8p0SpoPDG0S784Z26C74PCLMLeafOMgzL47/frMPxVgsZ4HsBMk1a9NnC74s61jyE8rxEAMDSoiSoFHRwwn9O8ki4jxcE1HU7JnyM8xxtHsLG4dBjok4FvVoxLkT46sEOLC0woSw38JwtZhcOnxsc91ijGR1OdPlYOL0sXjrQjm9uKQ7e/o+PmtA15AmZ1ze2qIOmKBSlj4hYbooupBDF5WOHKxNdePtY17hc6/J5yeNGKF1anoGXDrSHiHuyQY0b1+aBQqD144fPnCRFDFOgoCnsrx+E1VWN+2+ugFpJ/IK5hrzis4jLx+LeF87gRKuFVCBOgFJBYXN5Bv50+zL85c5l0E9QzTcZx0Y1H2tVClTkJwa/H93LQ4Ux+oThQq+ilRP0AvGCENLw7PZzYDkh+I9hA//8LB/8N1rEbG4GLCfgveM9aB8ICMOHp3qxr64fwBjB84YKaG6K7oInR4NGicp8Ez43JhR6nlXF473LtEQNFhckhdy2sjgZ518tp5dF51CogJGLsImhqYC3/otXquFlyESWuYaI2Czh8LD4f8+fRovZSUZITYJaSeOuy4sxL8MArUqBLZWZYd+3c8gT4rmtGhVSHO2JUAAWZBtxITKHc1xAoEds0OGD18/D5ePg8LCwu1lYXQzM9pHH1akUsLmZ4D+7J/DP4WHh8LDw+LmQ3q9eqxc2NwOLy4+/ftCIxh4n/vhOPSwuBlYXA/Uo4bR7GPhZHhwvQBBCQ4lWN4MfP38K/9zZhA9P9aKhxwH/cE7P7mHGeWEKmsLyouSQxz7PljEhxdGvYVWzZVwI9pdfqMS915ehIs90wdczHqGoQI71vhfOjPOkCbMLCSfOAhanH//vxTMw27xEwC6A28dhd7UZVy8PjPS5ZkUO3jveM64ybzKONg3h2hUB72P1/BQ8vrsZAFDfbQfHC0HPYdvy7JCSel4AOE4AxwvgBSGkwuxY0xDsnolPQo5RAjBVzmjsz0cXlRxrGsIPu0fEB0CIF2p1McHcGRAaHm3sceBspwMNPc6gd09TFHJTdEhOGL8La2GOMWiLAOCRj5vwX9cF2hLWlaTCoFHC5WOhUtBYUjgiTseaQ8dslWQlYNFwKHVtSSpazC68e7wbn9UNkEWtw1AU0Nrvwo+fO43f3roYJr1KbJPiAuKJRZk+qxc/eOYk+u1EwIDAB/tC69/fO94d7KHKSNRgdUnKpMeO5dioYbvpiRoUpAWex+3ncGDUBI5LFqXj6mXZsHtYWJwMLE4/7B4GHj+HH16zICTf9Oax7kmfb7QQTTW1wagdOYEJwvi+r9EeUeD4kccbW0VZkjVSXl/baYfdE/gdLE4Gdk8g19bU58TJ1vG9S6O9q6ZeJw42DKLH4gEQaKDeUJYGINCzdr6HjOUEnBrTB7UoNzHEM5uXYcA9V5XikbtW4Yvr85FETtgAAu/3HqsHP3qO9IHOFcQTiyJ9Ni/ufeHMuBNUPKJW0rhiSSauXZGDTJMWJ1uteHpPC9oGQvMsPVYvjjUNYfX8wMn2uhU5IQ3GF6K2MzAVXqcOnHwr8kxoMbvAcAIe392CJYVJwavhb2wpxkUL0/DByR64fBwyEjW4bmVOyBSMj8Y0N49ltLjo1AooFRRYbmKvcbQn5vaxU3qXo493eEPfP6NF7Orl2ShI06Oxx4nGXgcae52wjDpZKmgKKgUNhYKCSkEFX1dgxLvaXWPGbRsCDdeXVWbiw1O9WD1/JORY0zl+2v47Vd042jSEq5dnY0tlZvA1T9Kr8MWLCnDj2jzsqxvAe8e7x82QjEcGHT58/+kT+J8vLwnxpAnRh4hYlOizevHj50+POwHFK4HRTAXBgoVlRUlYWrgcu6r78OL+dlhcIyfed493B0+25XmJKM5MQHOfc8LHHQ3LCWjsdWDJcIFCkkEFqyvw+ru8LH7w9En85c5lQSErz0sMVjSO5YOTvfj9W3UT/uw8ZrsXbx7tgtMb8H4CRSMTi9O5Pidu/7/DMOpUYVWsOX0crC4GCVpliFhmJmmRqBvxctITNbi0IgOXjgqBDjr8AUHrceLFA+1weVmAAXJSdCEiffRcQMQ+rTXjyxcXgqKA0uF5jKM9trGhxPP0Wr341ycteGl/O371xcUhuTqVgsZlFRm4rCID1R02vPBZ25RVoXLH6WVx34tn8MevLEX6qLwrIbooHnjggQfENiLWMdt8uPfFMyE5k3iH5QUk6lQoyxkRDYoCijMTsHVpFhQ0haY+F1hegNnmw7oFacGQlFpJ4/C5iU+kQKD828fw8Ph4bFyUjrzhcGX3kBd7z/YHj7O4/DhybggV+aaQvrHRuH0cnt3Xhoc/OjdpL9l5PH4OhxoHcbzFguoOG/gL9AbxvACbm0G/3RfWSpVdZ/rw0oF2PLO3FU2jBFytoOHwsnB4WagVNBK0qnFhar1GgbxUPRbnm/D0ntZgz9LWpVlYW5IKABhw+PDXDxrBsALcPg4VeYnB0VnZSbqQ+Y2P7Wq+YHFCol6F2zYUBsv2+2zeEE8yw6TF/oYBskoGgUKhz+oHsLEsPei9EqIL8cRmiNnmw4+eOwVnHHtg+al63HlJEd4/0YPjLSN5qvdP9OC6lTnjepS0KgW+dFEBrlyShRf3t2N3TR/ererG3VsDu7c2LEzHM3vbYB3lrfF8oIfriiWZeOd4N3gB2FiWGhIuq+6wjbOtqc+JbzxyFCvmJWNdaSqyk3VQ0hQGHD6cbrPiYONgSBGFFBgtphaXH8+N2kFm0ChRkpWA0uwElGYZUZqdgKJ0AxQ0hbYBd0ixyEUL0oJfH2wYhCAADMeD4Xi8U9Ud7E1bVjRSat8x6J6yX+/qZdnBohm3j8MPnj6J7GQtrluZgw0L09Fr8+LUBPm5eMXq8uO+F07jD7cvDfGqCdGBiNgMsLoY3PfS6bgVMJNehS9dVIArlmSCpihkmLQ41WYNegL9dh8OnxvC+tKAN+BneVhc/uCUiZQENe7eWoJrV2Tjhf3tsHsYJOpUUCooXLU0Cy981g4fy8HP8mA5AV/ZWIib1+Xh9k2F42yxexh8Vjcw7nYgIApVzZaQrcuxisvH4lSbNaTwQqWkUZxhCLnS12sUWFo4Ik6jC10AYF/dAJxedlwV5bGmC79GGhWNK5ZkBb/feaYXXoZDi9mFv33QiGf2tCLVqJkkyBq/9Dt8+MmLZ/D725ZG1A9JmBpSnThNXF4WP33pDIYc8VeBpFLSuGltHh7+t5XYujQr6GmlGNTBCsHzvFs1Uu2nVtJ4+KNzeOrT0EG8hekG3Pf5RSEn4SuXZMHpY+H2BZqKTXoVrl058XZdp5fFvc+fnnAdSjzAsDzqux0h1YnJBjXOtAcuKPwsj+MtoZ6Rn+Wx60zfuMfaXWOG3cPCx/AThlc3l2cEhY8XBLx/InR5p9XNhIRDCSN0DXlw3wun4Z1kYDRhepCc2DTwMhx++nINOgbdcVVGTwHYtCgd931+EdaVpgYnY3C8gB0ne/G7t8+izxYqJAMOH1bNTwnmpLQqBZ78tAU7z/RBpaAxPyshKIKjJ0Jo1Qp0D3lwrtcZfI72AQ9MehXSjBrwgoAWswvbD3XiV6/XonvIMwevQOzg8LDYcaoX2w934liTBV0TvD5WN4NrR035sHsY/O2DRnBcQPh8DA+eD/xdaIoCBeB7Vy8IhsQONQ5h5wRCSJgYigpMbjnVZsXm8gwyASVKUIIQZmcpAUCgIu5nL59BfbcjrgSsIs+Er24uGrds8WjTEJ7e04puy+QicsmidHxveHUKLwj498er0G8PiF2qUYM7NhYGZxeO5lyvE//2z6MTPiZFYcpCDMLUPH33mmCf3M7Tffj167UTHqdS0Li4LBUP3lIZvO0nL51BXZd9TuyUE4IALC4w4YGbK0ATIZsxJJwYAYIA/OndetTFmYBdVpGBX32xMkTAmvqc+PnL1fjvN8+GCFheim5cI/D+hoFgST1NUbh6eTZ8DA+ri0FDtwM/e7ka//Gv4zg75oRYkpUQUnQwGiJg0eHvO87hyLkhMCyPgw0T5xSBQEHINctHvLamPicRsGlCUcDpdhv+/H6D2KbIAhJOjIAndjdjV3Vf3IUB+uxeXL44E5rhiQ4tZhf+67lTMNtHQocmvQp3XjIPd28tgV6tQNWoKkVeADRKBRYXBMYa5afq8dKBjpBKOrPNh/dOBIbjLswJTId4/UgnDjUOTbp0kjBzui0e7Dzdh1cOdaKt3z3pSpHCdD3u3loavHj7x0dNaOpzQkHTcXVBFy0oCmjrd0OhoMgsyhlCqhPD5N2qbrxV1R2y9ylecPs4vHKwA9+4LLBCZF6GARX5JlR32KBS0rhuRQ5uXJsH/XBhxpVLs/DByd7gGg9eAN482oWb1uZBraRh0CixbVk2Xj8SuqNLEIBd1WbsrRuAgqLIRPA5ZKpig5vX5gfFatDhx+6aPrCcAC/DQaNSQKdWkE0NEULTwHP72pFl0k4YTieEBwknhsGBhkE8urs5LgXsPB+e6g0pDrjzkiJsWpSOh762Al/ZWBgUMI4PVKxZXH7wQqBB2Oryo9fqxc7TI0UAN6/LG9c/dh6G5YmASYhEnQpbl46U1b9xtDM4bksQAgJodfnh9nEguyEjQ0ED//t+IwnNzgAiYlPQ2u/Cn9+thzLOLzM5XsAze1uD38/PTMD3r16AtFHjdA43DuK7Tx7HE7tb0G/3weZi4PZxwfzV9sMdwWNzU3RYtyB1rswnzAAvw+GhD8+hfbiZ+u0JhiQLoy5YiJhFhgABv3ytFn1kwsm0INWJF8DmZvC9p07C7om/XrDJ+OUXKlGZHxrDP9frxFN7WlDbaYeP4YdPYgKSDWrcsakQT+1phc0daAj/y53LkJ+qx+tHOvFuVQ8ZlhxDUBRQlG4Ia8AvTVHQqRXQqsl1crikJmjwlzuXTbnmhxAKEbFJ8LM8fvTsqXHbbeOdeRkG/PEry4L5kYONg/jj23XwswJcPhYcL0CtpPGF9fm4bUMh9BoFXj/Sib++3wgASDNqYHH5Jy0gIMgLpYKCXqOM61B8JJRmGfGbLy2GkrxeYUMukybhj+/WBwsTCCO0mF34tNYc/H55URKUChp2DwNeEHD54kw8d89afHNLcXC8ztXLs4MNsgMOHxGwOILlBNjdgSWfPNmdOSX1PQ48tqtZbDNiCuK3TsArBztwuHEw7krpw+X5z9pw0YI0aFQ0tCoF7thUhB2nenH3lfNRlhu66mRf3QD+ufMcCRvGOX6WB8P5oR2uZCRl+RNDU8AHJ3swPysBVy7JFNucmICEE8dwpt2GX7xSA4oiL8tkMJyAW9bl4Y5NRQACSf2xJ6X6bgce+vDcuA3BBIKCpmDQkhDjhaBA4Y+3Lw3Z2UaYGCJioxh0+HHPk8dJefckCALg9nPw+jlo1Qq8cM86pBpD93SZbT48tqsJO8/0kakahAuiVSmg1xCvbDKSDRr87WvLgotlCRNDcmLDsJyAB7bXEAGbBD/Lw+pmgk2xXj+HJz4Zid27fRwe392Mr/zfIXx0mggYYWq8DAermwHDkjfLRAw5ffjTuw3kszQFxBMb5pGdTfjgVC+ZOjCG0d7XWGiKwqN3rUJdtx1PfNICi5O0IhCmh0YVmORCvLJQeAG47eIC3LI+X2xTJAsRMQAnW614YHsNEbAxsJwAp5e9YDWhUkEFpzcQCDNBQVNI0CpJefkYeAF48JaKkCWnhBHiPpxodTH44zv1RMDG4PXzsHuYKcvhiYARogXHC7C5GXjIwOcQaAp4+UDH1AfGKXGdMTy/WsXtZ6c+OE7g+cCmZIYjTT0EcXD7ODCsgASdklxcDnPdqOWlhFDi2hN742gnzrTbxDZDMjBc4EqYCBhBbBiOh83FgCGePnKTdVhbmiK2GZIlbkWsxezCs3vbQMftKxCKl+FhdwembhAIUoAXAtM+4j28eOOayTc+EOI0nOhnefzurTpSCYVASNXlY+FjiPdFkCZuHweOF+KyejE1QY2N5WTX2IWISz/k4Y+a0Gcjaw94PjCpnwgYQer4mEChUbzNX/zc6ty4XwM1FXEnYkebhrC7ui/urujGcj7/RYbxEmIFdvg9Gy8VsQlaFa5cTOYnTkVciZiX4fDwR+fivg/Fz/JweEj+ixB78IIAuyc+ogfXrsiGRqUQ2wzJE1ci9q9PWmB1xfc0da+fh8PDklE2hJhFEAJtIHIu+NCoFNi2LFtsM2KCuCnsqOuy48PTfYhnJ8zl5chsSIJsCGwQBwwa+XkrW5dkwaiLm9PzjIgLT4zjBfxtR2PcCpggAA4PSwSMIDu8fg5Or7yGFSgVNK5ZGb4X9vq+BjCs/MOrkxEXIvbSgXZ0W+KzGvF86MUfx29ygrwJVC7KJ0S+eVE60o2asI51uP149O1TePaj6lm2SrrIXsQ6Bz147XBnXI6vEQTAQQSMEAcwrDxyvTRN4/NrcsM+/vU99fD5WTyzowZdA85ZtEy6yFrEBAH4+45Gsc0QhfMhxHgOMxDiC4aLfSFbX5qKnGRdWMd6/Sze2Bc4v1EU8OeXj8ymaZJF1iL23oke1Pc4xDZjzuEFwO4hMxAJ8QfDBZqiY1XIblgT/qDfdw6cg83lC35/tK4Xe06260nBhAAAIABJREFUz4ZZkka2Iub2cXhhf3vchREFAXB62LhpCCUQxsJyQkx6ZMuLklGckRDWsSzHY/un9SG3KWgKf37lKDw+eRW6TIVsRey5fW1x98cMhhCJB0aIcxiOh8MbW0J2YwS5sI+OtMJscY+73eb04V/vnY6mWZJHliLWY/Hig1O9cTVa6nwRBxEwAiEAw8aOkJVmGVGRbwrrWF4Q8OLu2gl/RlEUXvmkDq298bNiSpYi9tjuZlCIgXduFHF6SREHgTAWhuVjoo/s5nV5YR+792QHOs2T5/ppmsL/vnI0GmbFBLJrCa/psOF48xDoGEmGqRQ0jDolkg1qpBjU0GuVSNAokJKgQbJBhQStEglaFZIMKqQkqPHbN2pxeswiT5eXI2X0BMIk+FkeLi8Hg1aakz3yUnVYWZwc9vEv7T475TFVDX04crYHaxbJf3SVrERMEIDHd7eIKmCRiFJaoibiNQvfv3oBfvTsKQy5/AAAj5+MkiIQpsLLcFDQFLRq6QWfblqTH/bSy2N1vahvH5ryOKWCxsNvHMfqsmtkn1aRlYjtqu5DS78rqhWJKgWN1AQNkgwqGLXKC4uSUTPrE/KTDGr84JoFeGB7LTx+Fm4fETACIRxcPhYUpYRGJR0hSzdqcfHCtLCPf37nxLmwiWjpteGjoy3YumbedEyLGWQjYn6WxzN7W6cUsIlEKcWgQnKCBgkaBRK0SiQnqJGcoEaiViXJtS0V+SZ86aL8uG3kJhCmi8vHgqZVUEnkc3396pywzzFn2wZx8lxf2I9NUxT++dYJXLaiECqldIQ72shGxI63WLE434SkBDUSdSoYdUqYdCok6VUw6lRI1CmRqFeF7bZLnRvX5KGq2YL99QNim0IgxAzn+ygT9UooRM6bm/RqXB7B0svnd9ZE/BwWhxfb99Th1i3lEd83VqAEIRYKUAkT4fSy+Oajx9A95BHbFAIhplDQFEx6laj5ots2FOKmteFVJbb12fH1/35/WotsNSoFtv/qBiToVBHfNxaQr48ZByRolfj1FyslFeMnEGIBjhdELb3Xq5URLb18YWfNtDexe/0snv7gzLTuGwuQs1+MMz8zAd/dtkBsMwiEmMPP8vD6xWlNuWppFvRhLvPst7qx+/j0ZyJSFIXX9tTDPmrOopwgIiYDrl2RjW3L5d8PQiBEG5ePBcPObUZFqaBx9YrwP68vflwLdoaTeHhBiKiyMZYgIiYTfnjNApRmhzc8lEAgjOD0suDn0CHbsjgTKQnqsI61Orx4/1DzjJ+Toii8ua8BLi8z48eSGrKpTpQDPC/A7mFg97CwexjMS08Ie8qAWknjgZsrcdejx+CKs8HHc4VaSSM9UYP0RA0yTVqY9Of7BJUwapVQD5cxUxQFnVoBt48FLwSu9v1sYEWIzc3A7mYw4PCj1+pFv8MHnie1VWLCC4H8WKJ+9k+HCprG9SvDX7eyfU89fFEaZuBjOLy86yy+fs2SqDyeVCAiNsu4vBwGnT64fRycXgZOLwuLi8GQ0wenj4Pby2LI5YfF5YfNzYIbdUm4cl4K7ruhLOy2gLxUHe69vgz3v1IdZ5Mjo4tKSaM0KwGl2UYUpetRmGZAQZoe6YnhrYyPBJYTYLZ50THoRrPZhWazCy1mJ5r7XOCIuM0ZDMfD7ePCzlNNl4sWpCIrSRvWsS4vgzf3Ra8XlKIobN/TgC9fUQ6tWj6nflJiHyFjRcniYjDk8sPpYeD0cbA4fbC4GLh8LKxuFvwM4hQMJ+CWdXm4Y1NRRPd76MNzeOVgx7SfN95I1KuwoigJS4uSUJ6biJIso+hN7l6GQ323AzUddpzpsOFkq4VMZ5kDEvWz1whNAfjznctRmKYP6/gXd53Fo2+fjKoNgiDgm9ctxW1XVET1ccVEPnI8TeZSlCKBFwKx+ic/acWi3ESsnp8S9n2/dfl8nO2y40x7/KxjiASaolCel4gNZWlYVZyC+VkGyTXBa1UKLC1MwtLCJACBkvCaDhuONVtwqHEQ9d3xt7F8LnB6WSTNUv/YquKUsAWM4Xi89mld1G2gKAov7a7DLZeWQa2U5kDkSJGdJxaRKLmYafdezDZOLwsfExDMZIMaj31rVUThrAG7D9945Bgsw4OC4x2aorB8XhI2l2dgQ1la2Il1qdJr9WJPbT8+rTXjbKedhI+jiEZFI0Eb/ev7335pCcpyjWEd+/Zn5/CXV2dnnQovCPiPG1fgls1ls/L4c03MiRgvCHjhs3bY3cxwopyFw8PA6mHglklBg48ZvwNpcYEJ/3vn8ojCXCdaLPjhs6fiunCgIE2PyyozsHVpFnKSdWKbMyuYbT58fKYPb1d1ocfiFdscWWDUjRTqRIPyPBN+/cXKsI7leQG3/+ZddA84o/b8Y0kxarH9VzfIYsJ9zInYgYZB/P6tOtAybQ7gBcA2iYf4hfX5uHtrSUSP9+zeNjy+e+YlurEETVO4eGEablqTi+Xzwt/TFOvwgoBjTRa8drgTR84NSTbKEAvQFAWTQRW1jRg/u6EcK8LcGbarqg2/fuZAdJ54EjhewO++dQnWV+bO6vPMBTGXE3unqlu2AgZguCx74pPPKwc7UJGXiM0VGWE/3m0bC1DTacPBhsFomShZdGoFPrcqBzeuyQu7AkxO0BSFNSUpWFOSgo5BN14/3IX3T/bA6ycFIZHCCwLcPjYqYcWidENEF1Mvh7H0cqYoaAqvfFovCxGLKTnoGHSjtkO+xQoMKwTzYJPxP2/Voa3fHfZj0hSFn95QLttQGgDoNQrctDYPL353Hb5zZUlcCthY8lP1+N7VpXjl++vx1c1FMMxCjkfu+Bg+KtM8blqbH3bY7lBNFxo7LTN+znA4Xt+Lzv7YLxCKKRF740gXFBLZAxRtBAFwhpHT8/g53P9qdUTbnI06JR64pUJ2O4W0agXuvKQI239wEb67rRTJMV6sMRuY9Cp8bfM8vPTddfjKxkJoVfKoSJsrnD4WM4nKZpm0WF8afmXxCx/P3Wgomqbw6ifRr4Cca2LmrOb2cdh3Vr67s9w+LuwCjBazC394uz6ix1+YY8Q9V0WWT5MqNEVhc0UGnvnOGnz90nnEywiDRL0K39xSjOfvWYvrVuaAFnmXVqzA8wLcMwjH3rAmL+zX+nSTGWea5/Yc9/6hJnhivCAuZkRsx6kesHM54GwOYTkhIs8KAD4+04d3qrojus/1q3Jx5ZLwl/BJkcUFJjzx7dV48JYKZJKwYcSkJWrwo+sW4rG7VmFxgUlsc2ICr58Dy0XujqUkqHFpBPnrFz+e/VzYWBiWx3sHm+b8eaNJzIjYx2f6ZFEOOhHTncTw1w8aI256/dF1ZSjJir1BwUadEvdcVYq/fW05ijMNYpsT85RkJeDvX1uBn9ywCEkGeS5LjCbT+YxeuyIn7JaY5m4rDp+N7KI0GlBUIKQYy4WsMSFi9d0OdA7Kc3uxj+HBTHPNAsPy+Pkr1bC7w59MrVHRuP/milmfERdNLl+ciefvWYeb1+VJbrJGLENRwNalWXj6O2uxZXFse+izDcPx8LPhf04NGiW2LskK+/jndtaIJiTdg06cae4X58mjQEyI2AenekWfZTcbCAJmFG8HgD6rF79982xEH4CCND1+/Dnpd+snaJX46Y3l+PlN5TDpibcwWyQZVPjFTeV48AuVSCSv86S4fFzYn7NrVmRDF+aFYvegE3tPdc7AspmhVNB47+A50Z5/pkhexHwMj4P18izo8DLhF3NciIMNg3hhf1tE97m0IgM3rc2b8XPPFqvnp+Dpu9fEfA4vlthcno6n/n0N1pSEX00XT/B8eLlrjVKBq5dFsvTyLLgZLr2cKZ+eaIefjc1+QsmL2J6z/RG58bECzwfK5aPF47tbcKIlsv6S71xZIrnkPk1T+OrmIvz+K0uQZoz+6hPChUk1qvH725binqtKoSAVjOPw+DlMdd15+eKMsD1ai92Lj46IP1HHy3DYczI2N19IXsQ+qTbLsqDD4w8/NBEOPC/gwe21GLD7wr6PUkHh/psrJJPYTzKo8IfbluBrm+eR3JeIUBRw87o8/PmOZUg1kt670QjChS8+lQoan1sV/hSMVz6tk8RFOk1R+OBQbFYpSlrELC4/znbbxTYj6vA84JsF193i8uMXr9ZEVA6cnqjBz28sF100ynIT8a9vr8GqCFbOEGaXZUVJeOSbq1CaHXvVrLOJj+EwWbfPxrK0sLdNuDx+vLNfOsJxrL4Pg7bYK6CTtIh9UmOO2gBOKRFtL2w0NR02PLYrsvDEqvkp+OrmotkxKAwuKU/HX79KrvqlSHqiBv/3tRXYuChdbFMkw2TeGIVAL2a4vL63ES6vdFYlKWgKOyQQ2owUSYvYnlr5FXRwYSaHZ8LLB9qxpzayktnbNxWKktC/bUMhHrylkoxDkjBatQK//EIFbr24QGxTJIN3Am9sTUkqCsJceuljWLy2N7KpO3PBjsNExKJG95AHLebZ26cjFtEs5pgMAcD/vHUW7QORDQr++U3lyE6emykYFIC7t5bgrsuLZZnzlBs0ReHbV8zHd7eVgvy5Aoz9LN+wOnwv7L2DzbA5w89fzxXN3TY0d1vFNiMiJCtiu6vNsusN4/ipp9RHC7ePw4PbayJ6vkSdCvffPPuDgmmawo+vL8MX1ufP6vMQos9Na/Nw3w2LSOUiQr2xxQUmLMgJb2szy/F4RaKDd9UqBXYfj6xdR2wkK2KHzslv/5XXP7dVSOd6nfjDO5F9WBblJuLuK2dvULBSQeGXt1Tg6uXh99EQpMXWpVn46Y3lZIgwAM9wauCmteFfkH1c1Yq+IddsmTRj9p6KrVJ7SYpYn9WLjghCYbEAL8xOReJU7Dzdh/dP9ER0nxvW5GJLZfiDS8OFpin8/MZyUiQgA7ZUZuC+68tEr2oVE5WCRnqiGpsWpWNJmP2WggC8vEuaXth5Wnqs6BmMnVSOJHdYfFY3ILu9Yd5ZrEicir+814CSrAQsyA4v3AEAP/5cGZr6XGjtj84VIwXgR9cujGgrNUHaXLk0Cxwv4Pdv10+6jTzWMeqUyEnWITtZh5xkLXKSdcPfa5Fl0kbsje4/04nWXmkv9lUqFPjkRDu+fHm52KaEhSRFTG6hREHAnOXCJsLP8vjZy9V4/FurkKgLr7FZq1bgwS9U4NuPVUWlGOUH1y7ANStICFFubFueDYeXxUMfxubsPbWSHhYmLbJGCVV2UuBrrTq6VbMv7pq7pZczYd+pDiJi08XmZtDQ44RCkoHO6eFjedGvVPusXvz+rTr86ouLw64GLEo34MefK8OD22tm9Ny3byqMqH+GEFt8YX0+zDYfXj0kzVzKBb2pJO2chUSPN/SitjU2LtCrWwZgcXiRbJT+zj7JidihxkHZNTh756CsPhz21Q3gpQPtEfX7XFaZgdPtVrxxpGtaz7llcSb+7dLiad2XEDt8Z+t89Nu9+DTC/sRooFbSSDNqkD1KoHKStchO1qEgTQ9dlL2p6fLCztjwwoBA4/PeUx24fkOp2KZMieRErKrFKqu+IYYVwEVhUn20eGxXM8rzErG0MCns+9y9tQR1XQ6c7YpsBNiSwiTc9/kyWf09CRNDUxR+ckM5em0nUBfh+2TKx6YpZCRqgt7Tea8qOynwtVRmf16I+vYhVDX0iW1G2FBU7IgYJQjSycjygoCv/P3wrE+0mEucXlbUfNhEJCeo8fi3VkU0Jd5s8+EbjxyFLcwFnKlGNR69K7LnIMQ+ZpsPdz16DBZXZOOUzof8UhPUSDVqQryponQDNKrYzi/c/6/PYq50nQLw0Z+/CKXEczuS8sTquhxw+zjQ0n7NwoYXIIkJ1WOxOP341Wu1+PMdy8JuWs0waXD/zRX40XOnptyBplRQePCWSiJgcUiGSYNffbES33/6RMggaqWCQkaidsKQX06yDkadpE5FUaXD7MBnp8VbejldGI5HTesAls6XdkWxpN45R5uGZCNgAOBneNHK6qfiZKsVT+xuwV2Xh5+vWlmcjNs3FuLpPa0XPO6eq0olt6eMMHcsLjDhwVsqYfcwwRBgulETt83RL+ysEb2wazooFTQO13QTEYuEE62xNbNrKqQeFn3hszZU5ifiooVpYd/nq5uLcLbLjiPnhib8+brSVFKJSMCGsvDfU3JmwOrGx1WtYpsxbarqe8U2YUokI2IeP4dWs0s2nhjDSaugYyIEAL954yweu2sVclJ0Yd3n/KDgbz5yDL1Wb8jP0hI1+MkNi0ghByHu8PhYdPY70GG2Y9DmRe+QA92DLjR3WyPa7yc16jqG4PGx0GkkIxXjkIxlp9vkVZXol1gxx2Q4vSx+9nI1/vGNlWEnzxN1KvzipnJ896mRvAcF4CefXwRTmGvZCYRYw+7yDQuVA539DnSaHejst6PD7EDXgCOYOtBplEjQyWM3HoVAf9vFi/PENmVSpCNiHTZ5iZgECzomo6nPib/taMR/Xbcw7PtU5Jvw71eU4O87GgEA167Mwcri5NkykUCYdXwMh36re1ik7MMiFRCt5m4rvH42vMfxc0gIL7AheSiKwtG6HiJi4VDTEd3eEjFhWCHmErnvVnWjMi8R2yKYLn/zujzUddtxvMWCb10+fxatIxBmDsvx6B1yhYiU2erGQFC4HFF5Hl4QwLAcVEppNFnPlGN10s6LSULEvAyHtn63bDyxWPLCRvPn9xpQkmVEaXZC2Pf54TUL0dDjkHWJNCF2uFDIr2fIBY6bm8+mj5GPiDX3WOFw+2HUSzNEKokzT02HHQIE2WyMjVUR87M8HthejUfvWgVDmIlcvUaBZUXhT/8gEGYCw/Los7gmDPm199nh9ETWZD1byCmkqFQoUN0ygPUVOWKbMiESETGbbOYlxmIocTSdgx785vWz+M2Xwh8UTCBEkwt5U92Dzimb7aWAnEKKCppCdZOZiNiFaOyNTixaCsSqFzaa/fUDePVQB76wPvxttQRCuPhZDmbLxAUUbb02uLzhjTaTOnIKKda2S3f6viRErNksny3O/jmKuc82/9zZhLIcI5ZEMCiYQJgKp4fBFT98CQ63NMJ+s4kcLmjP09BhEduESRG9tbjH4oVTJldeHC/ERKgjHDhewP2v1mDQIf+TDWHuSNCp8NVti8U2Y07gOF7yAw/Cxe7yoWvAKbYZEyK6iNV22cMeQit1GFYeb9jzDDn9+NXrtbIRZoI0uGNrJVJNMql6mAK/xEfPhYtSQeNMk1lsMyZEdBGTVT5MJqHE0ZxoseBfn7aIbQZBRug0Snz96iVimzEnMKw8RAwAalsHxDZhQkQXsZY+l9gmRAVBCDRTypHn9rZhX50038CE2OSWzQthMsh/VY+f5SChlY0zorZVmsUdootYx6A8ijpYTpDs2pWZIgD43Vtn0WPxTnksgRAOeq0Kt15eLrYZs46cLm5be21imzAhooqYxemHwxvePDKpw8jkjToZDg+L37xRK7YZBBlx2xXl0KolUSA9qzAyqVL0+FiYrdJzOkQVsXN9TtkUdcTyuoVwyUmOj2Q8YW5INmqxbV34S1ljFbmImFJJo7lbejsfRRWx5j6nbCZ1sLw83qgX4nOrpNmxT4hdvhwHIUWGk0dxB01RaO6WXr+YqCLWMegR8+mjhpzzYeeZl2FAZb5JbDMIMmNRYSoq5sl7C7Sc8mItPdLLi4kqYj0W+YiY3LluJfHCCLPDzZvD32MXq8glpNjWK72VWaKKWK/NJ+bTRw25F3WolDSuXJIlthkEmbJ19TyoZTJjcDLkElJs7yMiFsTpZWH3yGPcFCvziRar56eQfWGEWSPRoMHGpdLdHBwN5BKtcbj9GLRJK4Immoi1D7ihkMGuD0GA7McyXbIoXWwTCDLn2otKxDZhVuE4XhZNzzRNoU1i3phoItY56AYteqv1zJG7F6ZUULhoYarYZhBkzsYlebLvGZPDMGAFTaFnUFqDgEWTEblMf5DDG/NCrJiXjESdSmwzCDJHq1Zibbm8i4fkUNxBURR6iYgFGHDKo6iDk0msezI2lpFQImFuuHR5gdgmzCqcTHpJ+6wkJwYA6LfLY0+V3D2xVcXJYptAiBM2LZX3JnG59Ir1DRFPDAAw6JCJJyZjEcs0aZGTQkZNEeaGjGQ9irLl21Avl6iN2SKt+YmiidiQM/Y9MV4AeBlUHE3GCuKFEeaYtYvkmxfjBUEWFYr9EhsCLIqI2d2MLBZIyr20fsU8ImKEuWXNomyxTZhV5BC58fpZONzScUJEEbFBp18Wg3/l7IUBwLLCJLFNIMQZy0oyxDZhVpGDiFEUhd4h6SwzFkXErC4/KBk0Osuk2GhCkgwqZJjkv3mXIC0yUwzISNKLbcaswU9x0lApaSQbtUg1STcXTVEUhuzSqVAUpbvQ6mZk4YnJ4apqMkqzjGKbQIhTFs9Px66qNrHNiAqrFmYh1aSDUa+GUa9GaqIOyUYtEnTqwD+9Cgk6NYy6wM9VyoBfcaKxDz/8v90iWz8xNAXYXNIpzBNFxGxuecxM5GQcTizNThDbBEKcsqgwVTYidv/XLsa87MjD8gk69SxYEx0oioLdFec5MbmImBwqjSaDeGIEsSjOkU8u1j7NAogEiU/Jsce7J2aViYjJOSdWnGkQ2wRCnDI/Rz5VsX1DLnSbnHC4/bC7fXC4/fAzHC6qzEWiIZBzfvSdU2jrtcHpYeD0+If/Sfsc6fRIxxMTRcTcPnns1hEgT0+MApCTLN3EMkHeFGYlQqWkZTFrcGxei6KANJMe//f9K1AxLyBiJxp6Udc+JIZ508YqobGBooQT3X5WjKeNKoIQ+CdHUo0aqJUyWDFAiEmUChqZyfKMBATOG0KIJyPl/NdkSMkTE+VM5fXHvicmVwEDgKwkrdgmEOKc7FT5FhbxAkKahWNRxOK+2dnHxH6YQM6NzkTECGKTkyZfEQt4YiM5L6kXcUyEyyudnJ0oIuYhnpikISJGEJuMZDk3PI8JJ+on9sSkPA9CSvlKUQo75CBicvbEyBJMgtgkJcjjQkqjViAn1YhEvRqJBjWMeg0ykvVYkJ8SPObqdcVYuTBruAFaFfz/gSf3Y/+ZThGtnxwprZURRcT8bOyLmJxJ0Mp7TTxB+iQlyGPk2coFWXj0v6664DH5GYnIz0gcd7uUw4yMhM7hooQTWRns1Yn932ByiIgRxMZkkIeIzWSyhXGSMKMUkNI5XJSzFQdAIcYTE8KCiBhBbAwS9kIiweEO9FPxvACHxw+H2w+Xh4HbywSbmh3nG5zdI7c5PX509DtEtn5y4j6cyPMCFAoJZy3DQToXIlHHoCGXGARxUSvl8R7sMDuw7tvPwOVlgsVgCToVdJrYFum4DicKgjyWScp1WgcQaDYlEMREJRMR44fL6eVWByalcOKcn61Ynpd06ShB3u0DhNhArZLHhZRSQWN5aWbIbXL4fLE8L5nfQx7vFAKBICvkEK0BAFOCBs/+7Fo89l9XYdkYMYtlKFCScUbmPCemoCnJKDiBQJAmUgpXzYTzFYbrK3OxvjIXB6q78OT7p3GuyyqyZTNDIaGtxnMuYjRFQTq//vSRx28xMXLO9xFiA04me45UChq8IIAedlsuqszFRZW5OFrXg6c+qEZt64DIFk4PlVI65z9Rwol0rFcmyhw5zLYkxDZ+RjrVbzOhsdOC6+7djjf2NoSUpa8uy8ZDP7gCv/v2ZiwqTBXRwumhVEin8EYcEZNKMHUmyOBXmAyHN/ZX5RBiGylNSZ8pbX12/PyJfbjp52+M+9maRdl4+IdX4n++dQnKYkjMpFTBLEqfmIKK/TYrGWuY5LfKEuSPnETsPB7fyMWh1eGFWq2AfrhfbG15DtaW5+BQTTee3nFG8ksylRKKpokipyqycFHSEE+MIDYOCS1djBajx0idPGfGlx54G8/sqA6ZaL+uIgf/+M+t+O1dm5Bqku52dYWEPDFRLNGqpBNPnS5yiIhOhsNDRIwgLgM2j9gmRJ3RIuZwB0ZQPfnBGXzxgbfx+Lun4R218X59RS6yJLzdOu7DiXq1EvYYD1lRMlaxoRkMLSUQokG/xS22CVEnUT8y1Pi891WQmYhLlxfgshWF0KpDT8dOCXujGgk5IqKImEYtnRdgukioTSLq9Fq9YptAiHP6LC6xTYg6iYYRT2xJSQaeuHcbinOSJjy2e8AJi9M3V6ZFjFEnnQn74oiYDHJicvbEeizyC+UQYgu5idi87CRsXJIf/L6iKG3cMRaHF58cb8fHVa042zY4l+ZFzGTbqMVAFBHTymAumpw9sR6rN6RBk0CYS3heQKdZumtIIuHLl5fjlkvLUJqXPOHP3V4Ge091YFdVG4439sXMuK2498SMOnnsq6IpCrwMZ2gxLI8hhx9pifJYTEiILboGHPDJpNn5K1dWoCAzdGszw/I4VNOFj6vacKi2OyYbu00S2rxNRGwapCSosX5BKlITNLC5Gew9249zvU6xzYoqHYNuImIEUWjrs4ttQtQ4X5HI8wIOn+3BjsPNqGrohSvGC9sS4t0TM+ljdyFceV4ifnZjeUibwO2bCvH8vnY8vrtZRMuiS0OPE8vnTRwCIRBmk3qJN/pGQluvDY+8fRI7DjdjwOaBWqmQlBczXRIN0vkdRBGxRAmp+GR858oSmG1evHeiBx5/wN1X0BR+eM3CcX1uNEXh9k2FqO2y40B9bA70HEtDjzxyEoTYQ+pFDZHwlV+/G/I9LZNk+uhKS7ERpcLCpFdByvnLRJ0Kl1Zk4MsbCvHQv62Earixb9X8FKQkjPzxPqkxo6rZEvz+9o2Fc27rbEFEjCAWde3yELFkoxZFWaYQ4ZLSCpPpwgtCSOO22IjiiSXpVRAEQbJjLzYuSgu+2Rp7HGCGp08vyDYGjznVZsUf36mH28/h6e+sQUGaHmW5Rpj0KtjcsR3vBoDOQQ/cPg56Tez39BFiB6eHQXuvPHJiV66eh5/feRH8LIfWHhvOdVnQ2e9Ep9mO1l47ugewEcWSAAAgAElEQVQc4KR8NT8JPC8gTUIjsUQRsVSjGrwASPX0WJA6Mu7lYMPIVWFhmj749el2G2iaAs8LqGq2oCBND5qiUJyZgBMtFsQ6vCCgoceBZUUTN2MSCLPB8YZe2VT8luQGPjtqpQIL8lOwID8l5Ocsx6O9z462Pjtae2xo7Q386+qXtrgJgoDs1ASxzQgiioilGTVSdcIAAFr1SJTVOmqadnbyyNVHj8UDxfAv4WNHSmR1MphGcp7jLRYiYoQ5paq+V2wTosbY0vqxKBU0inOSAlM7lo/cznI8Pv/T1yVbwajXqmHQSqc4T5xVLDQFk14Nl1eaf6TRA3ANmsBLpFMrkGkaqcjpHHSDpgMR0dyUEQ9NDqHE81Q1W/D1S+eJbQYhjqhq6BPbhKjx7T99iJzUBMzPTcb83CSsXJiFzcsKpryfw+2XrIABQJpJK7YJIYjWsJWaIF0Rq+m04erl2QCAa1fkoL7bgU2L0oMTLFhOQM/wfME0owZrSwJhAkEIiJtcONtlh8vLwqCN7b4+Qmzg9PhR3dwvthlRQxCArgEnugac2HuqA31D7qCIfXCoGXtOdaAoKxFFWSaUFaaiKMsEAGjtsYlp9pRkJElrur5oZ6eUBBXaJVqNfqrVCi/DQatSYGGOEY/etSrk51XNQ8GY9Y1rcqEengVZ02mTlSfG8QJOtllx8cLxc94IhGiz/0wX2OEiKjlSMmr01Jnmfhyu7cbh2m4AwBWrivCT29cDAFr7JC5iyfqpD5pDRBtimCrhhj+3n8M/djZN+DOG4/HWsa7g93tqB3Cy1QoAeP1w55zYN5ccbZJP4ylB2nx2Wn6fHwDQqpW49fJy3LipNHhba2+oUBUOe2EA0Cbx6szMFOKJAQCykqQVVx3LvrP94HkBd2wqQvrw+KWGHgdeOdiBuu6RHqpuiwffe+oENpal4TOZNDqPZk9tP757ValsmjQJ0oTnBew93SG2GVEl1aTDrVsW4dbLy2EaM+GiZzB0TF1h1kgRSIvkw4nS8sREE7H8VD14QdrT4PfXD2B//QC0KgWUCgpO7/iNxwpF4BfYVyc/AQOAIacfp9ttpEqRMKscq+/FoIy2Of/HjSvw9WuWQK2cuFp59O0URaFy1GqWtl7pihjHC8hOk055PSBiODEvRRczawe8DDehgAEBEZb7ypLdNWaxTSDInB2H5TN3FABu3lwWIlRWpzfEw7pzWyWUw5OAbt2yCEnGQGSqoWMINpd0l2HyPI/5kyzyFAtRw4lyOfkrFBR4NjYEeTrsqTXje9tKZTEyhyA9OI7HzmOtYpsRNUwGTXCiRVe/A0/tqMa7B87h0uWF+O1dmwAAV6+bj0uWFsDLsEhNHOk/3SfxvGCCXo1ko7RSQaKJGE1TSE/UYFCiK7gpAAXpBlTkJUKpoPH2qGKOsagUFJiJHTVZYHUxON5iwer5KVMfTCBEyJ5THbA4vGKbETVK85Jxtm0Q/3r/ND480gKeF2DQqnCotgsnGvuwvDQTAGDQqWDQjTQNd5odeH1vg1hmh0V+hnHqg+YYUVcsZ0u4uCPDpMVf7liGb1xWjBvX5F7wWCUd+jJqVLSkJ5JMh3equsU2gSBT3pD4iTtSqlsGcMsv3sQHh5qDKROVkoYgAL944jPsPt6GsZO1Gjst+NkT++CWaO/seYoypRVKBET0xAAgL02H6k5pJjH7bF4MOHxIM2qQqFMhL0WHzqGJE89GnRJluUYsLUzC0sIklOUa8c1HjqHF7Jpjq2ePz+oG0G/3BSs1CYRoMGjzSD6EFile//iwzPn8l9Pjx6+ePoCH3zyBxcXpoABYHF6cPBcbeefRVZRSQVQRm5eeAAkPs0dtpx2bFqUDACryTUERS9AqsSg3ERV5iSjPM6E40zAuv7e0MElWIsbxAt493o2vbSZjqAjRY/ueetk1OBdkJmLQ5glOJFIqaFBjzg+DNg8+PdEuhnnTRhAEFGWbpj5wjhFVxIozDeB4AUqFNFWsptMWFLFLFqUjP1WP8rxEFKYbMJXFy4qS8ObRyfNoscg7Vd24fWORZP9ehNiCYXm8tOus2GZEnQe/vgHLSjJxrK4Hn57swJGz3bBKNPcfCSwnvcpEQGQRK0jTY0o1EJHazpHO+bLcRJTlTu5Kc3xgdcnJVitOt1lxul2aYdKZMOjwY+/ZflxWmSG2KQQZ8MHhZvRb5TNrFACMejVWlGZCoaCxvjIX6ysD+fS2PjsOVnfhYE0XqlsGYqa9aDRqlQJZKdLqEQNEFjGVgka2SYt+hzSvUrqGPLC6GSTpx68dYDkBjb0O1HTaUdtpQ22nAz0W+TRrTsYze1uxuSJdNu0RBHEQBODpHWfENiPqXLw4DwrF+Hq5wsxEFGYm4ktbFsHh9uPI2R4crOnCkbM9cIxa9yRlirOTJJn6EX08eWG6QbIiBgC1nTZctCDQTd8x6Mb++gHUdtpR3+MAw4bG8pUKCiwXe1dYkdBidmHf2QFcUp4utimEGGb38TbUt8tvLufmZfnBr0+dM6MoywTTmDmxRr0aW1YWYsvKQnC8gOrmfhys6cInx9thlrBnuqgoVWwTJkR0EVuQk4BjzdJ9M9d02IMi1tTnxCsHJ5/vplLQYLnAgkyTXoVLytPx/oke2Qnbk5+2YOOiNOKNEabNY++cEtuEqEPTFDYsCYiYIADf+9vH8Pk5rFqUjfUVOVhfkYt5YwojFDSFpSUZWFqSge4Bp6RFrKJImheuootYWU4ieB6gRe1Ym5zaUS0A5XkXrsxRKWl4/By+c2UJbl6XBwVNod/uw8GGwdk2c05pMbuwv34QG8vIihZC5Hx6oh3VLfLZG3aesoJUJA17XbWtAxiweZBs1KK6uR/Vzf147J1TyEoxYF1FDi6qzMWykkyohtc4sRyPYxLeas3xAirmSdMTE106SrOMECBdT6V9wB2cm5iRqEHaBfqkVAoKNEVhwOELjmi6fHHmnNg51zz5SUtMJqcJ4sLzAv66/ZjYZswKFaOG+Na0DICmqGB/2Hl6h1x4c18jfvyPT/HrZw4Ebz/R2AePT7pjf3QaJfLSpdcjBkhAxDQqOlClKFEEhFYpll+gQhEAVEoKu6vN4Idb8jcsTINWPfEk61imqc+Jd46TKR6EyHhtbz0aOy1imzErJI3KfZmtbqhUFz69ri7LCn59sFran6Wy/BRJFnUAEhAxAJifJb15XKPZXz+A94734Pdv1+F4y4U/gCoFjQGHL7goU6tWYINMNyM/vqsFdhltsibMLm4vg4ffOCG2GbOGn+WCX8/PSYJGNXm2Rjlcgn+eQ7XSFrGFBdIMJQISEbGybOO4WWJSYl9dP574pBmHGgcnXclyHrUyMDdx5+m+4G1XLJFnSNHuYfDknlaxzSDECP9866Ts+sJGc67LGvx649J85KVP3lO1bV1xcHr92bbBcUsypQQvCKgslu6FuCREbEmhSTYVfBQV8Mb2nu0PluCvnp8C0wS9ZnLgzaNdaO6Tz3gtwuzQ1GXFMx9Wi23GrHL0bE9wMkeCToX/+dZmZKeOF7Il89PxzWuXBr9/eoe0XxeO47G4WJqViYBERCwnWYfkBPmc5NVKGk4v+//bO++4pu71j3+SnOxAwt4bZMoQtIp71j1atbZqrd3D23n7627t1tp6rV33Xjtua1trtWrrqrbujVtBlrKX7E0IyTm/P4IHIghBCMlJvu/Xi5cSvoEnjPM53+f7PJ8HJzP1VYkCPg9jI63T5YKmGazemc6eARIIN8MwwLs/HLM6j8Sb0Wh1+HRTW9FKoKcK61+fjtcWD8OC8eGYOTwYbyxJxCdPjYOdTAQASM+rxCkLTyX6uiktboZYe8xeYn+DCC97JF2z3H6xniCXUEgIcoCTXdtB74SBblbnpXiDy3k1+PVEPhYk+po7FIIFsulAGs6kWW75eF+y6WAaIgOcMHdMGAD9DeyEBH9M6GRtU7MWq3893b8B3gZxAyz7BtxiRCzKV8VpEePzeBjoq8SocBcMDXGC9KaKxCgfJdxVEpRUW8/wv/Z8vT8bdwQ7IcBVbu5QCBZEYVkdPtmYZO4w+pWPNyaBYYBZI0IgEnZemVxa1Yh3/ncMGfmWf80bHOph7hC6xGJELNZPBa3Och3tb8UADzuMDHPB8DDnTj0WAUCjpXE8owIiyiKytyahRUvjg62p+OrheM79DAmmgWYYvLbuMDuSxFbg8/j4ctt5bDqYjoUTIzA4zAPujnK06GhkF1Xj4IU8bD92DY3Nlv990dEMEtq1AlgiFiNi3k5SKGVCNFhww98NfJxkGBHmjFHhLnBTdp4rphkG57Kq8Nfl6ziSWs6J19VbMorr8NPRXCwZ7W/uUAgWwDc7Llm0C0VfEOHvjNTccra6ms/jQdy6+yqrbsSaTdxu7A7yUkIhFZk7jC6xGBED9IMkj2eUmzuMLhkU4IDX74q45ccziutwJK0Mx9LKUVilhlqju+Vaa+R/B3MQ6W2PhCBHc4dCMCMXr5Xii63nzB2GSXFzlGPDmzNQWF6PH/emYNvRTHOH1OfEh1j2LgywMBGLD3TA0fRy8C04G5WcX4Mmjc7gzKugsglHUstwJK3M4MxLIuTbnIjRDIP3tqTi68cSurToIlgvVXVqPP/5fquvRrxvQgQEAj583ezx6uJheHpuPHYcv4bfj2aipJL7bSc0wyA+lIhYj0gIdARNM+Bb8JmKRkvjZGYFon1VOJpehsOpZcgu7fwXVsDn6Z3taRoiio8WLWMTpehVDRq88Wsy1i6Ng7CT2UoE60Wno/Hilwdw3Qou4l0hEVGYOybU4DGFVIQF48Mxf2wYjl4uwG+H0nHpGoeNjhkgboDlGzVYlIjZSSkEuSuQW2bZfwDfHMhCU7OuS9tiAZ+HO4KdMDrCBRFe9pBLKKhbdDiZWYnP/sxEea3lzlDrC64U1OLLvdfwzJQQc4dC6EdW/nzK4i2U+oKZI4KhlOszDdcrG6Cyk7BnYXw+D6NifDAqxgeZBVXYfDAN+8/lcW5nGhviConIoiSiUwTLly9fbu4g2lNao0ZaUZ25w+iSli7cRcRCPu6Mccc/p4diQrQbvBylbFUiJeDD30WOaXEeyCltQH6FdU+CTi2shZ1EiAhvy3S/JvQtmw+m47MtZ80dhsnh8YAVj41mG4Cf/3w/1vx6BgwYBHioDC78TvZSjIz2wfRhwZCIKOSW1kKt4UaR191jwgyc+S0Vi8v1DA1x4qQFlZ2UwvxhPvjvI4Px8LjALs+DFBIKr86JgJOdZVf99AVf7LmKI2mWXaxD6D2HL+bj3XajRayZ4VHeCPBQAQCyiqpxIqUQTRot1u9JuaU3pKO9BEunDsSvy2dh9kjLz05odTqMjvHpfqEFYHEiNsDDDo4K7lzcne3FeHBsAP7zSAIWJPrCTmq4/T6fU4W1uzPx+LqzWPF7GirqNAD0ovfC9NDOPqVVQTMM3v0tBSn5Nd0vJnCS5Owy/PPLA9BxLF12uyy+M5L9//o9KQD087aig1wR4u0AQD837PnP9+Po5QIw7c7BhRQf2cWW/7cQ7O0AVwfLHZHVHotMeA4JdsLfly2/v8RRIcJXD8WzAzBvoKMZHE0vx7akAuSW6+/MGtQ6pBbW4lpJPdsQPDzUGX4uMuSWWa+zNwA0t9B4ZcNlrFkSh0A34uhhTWQXV+OJT/ai0UYamgM9VUiM8gYAVNc344/jmRALKfB5PINCjy2H0nE+8zrOZ17H9MRgvHDPYADA1cIqXLxaapbYe8KIKG7swgAL3IkBwPBQJ+g4MDW4sl7Dzg0D9BfrXeeL8eQ3Z/HprgxWwABAItJ/qzOK65B0tYJ9fLiVzhq7mZrGFjz3w/lbVnISuEfu9Vo8tGI3quqs00qtMxZNimSHQ246kIZmjQ5SMQUPJwVGDNTPB2tq1mLXqSz2ORPi/dj/bz6Y3q/x3g5aHY0xcdzxQbVIERvoq4RcbJGbxA5sSSpAvVqLTSfz8di6M/h6fxbKOqk8FPB5ELYWeLQXNz9n29mZVDe04LkfLlj9ztMWyL1ei6Uf7kSpFc8HuxmJiMK0YUEA9K0EG/ZdgVgoACXg465RA8BrVbfdJ7PQ0KTfmQZ7OSAmWG+gW1Wnxv5zueYJvgc4K2UI8lKZOwyjsUgR4/N4iA9wMHcYRpFaWIuH/3MaG47lobap65SKtLUEt321ni30jbWnql6DF9YTIeMyVwursPSDnSitsq2foVqjxexXt+C7XZex6WA6SqsaIRVTkImFmDo0EADAMAy2HM5gn9M+xbjtaCY7Y9CSubGj5AoWKWIAMCrChRMpRUDfAG0MIiEPD40NQIxf213OlYJaU4VlsZTVNmPZd+ds8rVzneTsMiz9cJdN7cDaU1xRj082JuG9H45DSPEhpAQQUnzsPZ0DtUaLEylFKCzXtwg52EkwvjWV2KKl8cexq+YM3Si0Ohp33hFg7jB6hMXm7OIDHCAX6xuErYFoXxXuG+GLAR527GOV9Rr8dfm6GaMyH7WNLXju+wt4e34khoY4mTscghEcTy7Es5/ts5kijhuIKAFiQ1yRlFps8Lhcop9aUdPQjE83n8E3Oy9BIW2bZDFrRAioVseav8/moJoDZ4duDnJEBVjuFOfOsNidGJ/P43zRA48HDBvghFWLYrB8XqSBgDVpdHhjY7LNeSu2R92iw2u/XMbuC5ZfiWrrbD6YjidX204VYnsemDoQ3748FWv+MR6ezgoAemETUoazwuqbNKxnopDiY9bwYPZjvx2y/IIOAJg02N/cIfQYi92JAcD4KFfsvVTSoYTd0hEK+BgT6YLZg73hoeo4quXa9Xq8+9sVUqkHQKtjsGJbKlLya/Ds1AFkFpmFQdMMu8uwRdwd5Xh0RgwAYEKCP0ZG++DrnRex5XAG6C6OO5yVMpRUNUJlJ8H5zOu4Vlh9y7WWgj6VGGjuMHoMj2Esu7Lgkf+cRkW9xtxhGIVYyMfUWA/MiPeESt6xYTu3rAFbkgpxNK0MNU1aThzy9icxfiq8PT8SDp187wj9T1WdGv/374M4kVxo7lDMRlSAC1Y9OQY+robWacUV9fhy63kcvVzQ5fMj/Z2ho2mk5Vn+BOdALxW++b8p5g6jx1i8iP1wKAfbznDjj0giFOC/jyZAITHc4KYU1GBrUiHOZVexj2l1DGoabS810x2eDlIsnxeJUE+77hcTTEZKdjme/3wfCsvrzR2K2RFRAjwwdSAenRHTwRD3TFoJ1v52Fvml3C9SenxWLO4ZF27uMHqMxYtYaU0zHvnvGXBloseCRF/MH+YDBkDS1QpsTSpERnHnhsY0w2B0uCsmDHQDzTDIut6A7w/noIojO09TIeDzsHiUH5aM9gefR9KL/QnNMPjhz2Ss2XSGc67rpsbdUY7Pnp2IcD/DQiStjsbmg+lYvycFjc3cvDHV0Qx+/+Au1tSYS1i8iAHAqxsuI62IG3c6dlIKC0f4YfvZIhRW3tql3lEhwpt3R8LX2dCfrEGtxau/XDZwArFVBgU44LU54WS4Zj9RUFaH19cdxpl0UmjTGY72EuxcOQ92ss7T3RW1TfjP7xfw15mc/g2sD4gJdsWaf4w3dxi3BSdE7OCVMqzZmQE+R3ZjxvDijDAMG9B5aXltUwseW3cWRV2IoK1gLxXiyTuDMTnGHWRTZhoYBth8KA2rNiTZZPVhVwgEfCgkQiikQjw9N4F17Dh1pQhn00vwwJSBkEmEBs9JzirDp5vP4mphVWef0uLQ0QzeeXAEp6ym2sMJEWvR0bj/8yQ0a62jHJ3P42Hjs8PYqsuDV0qx/Wwx7h/lxzZCn82qwvM/XDBnmBZFjJ8K/5wR2mHnSugd+aW1ePu7YzYxyNJYXlk0DBMH+8NOKoK0E/s7rY7GAx/sQmF5HRzsJHh0RgzuHBJocJP14Y8nsfd0dj9GffvYy8XY+t4c8DlWBX4DTuxthAI+xka6mjuMPoNhGIO2gT/OFOHMtUq88vNllNfpfRfjAx0Q6aM0V4gWx8Xcajz8n9P48Uiu0Q4phFuj1mjx5dZzmP3qFiJg7YgJcsV9EyLgqpJ1KmAA8OuBNNaVo6pOjZU/n8LBC3nsx1NyyvHXGW4IGADMSAzirIABHBExAJgS5w6t1uI3jR2QiykEuMrh4SBlqxYZ6N06buDhIIGQ4qOhWYvNJ9tKdkeHc6tz3tQ0t9BYty8Liz4/hX2Xr8PycwiWB8MAe5KyMePl3/DltvNothJHnL6Az+Ph1cXDukxba1p0+GVfqsFjwV4O7ABJhmGwdvNZzvxuMmAwZ+QAc4fRKyy62bk9Pk4yRPkqOVPgcYMgNwWWz9MP0TuRUYFV29MA6D0TR4TpHUli/FQ4mlaOGh2NM1mVAPR59ygf+04/p61zvVqNd367gk0nC/DEpCADL0rCrTl1pQhrfzvLiXlW5kCpEOPbXZdQ16hBbYMGdY3NqGvSQCEVY9dHcwHoizfqGg2rh5+eG8/uZHYcv4aMfMvvCbtBYqQ3nJRSc4fRKzgjYgAwK8ETV7bVcqrAo0mjZf8vFbXZ1FzKqzYQMQGfB6lIgIbmtjtjVyX3yl37k9TCWjz93XkM9FXivuG+SOS4TZmpOJdxHV9sPYdTJG3YJVV1auxJMkwDKqRC8GT6HSyPB3g4KRAd5IJL18oAAAvGh2NgoD5jUteowdcccjbR0QzmjeX+dHlOidiQYCc424lQ2cCdPqr6dqLk6ywDn8cDzTA4n9NWueSmlMBdJUFJtRpUu9w0V1z8zc3lvBq8kncZkT5KLBrph6EhjjbfX8YwwNHLBfj37+fJzus2oQR8SMVCNKpbkF1cjUBP/Y7/4yfH4VhyARQSERLC3Nn1X++4iNqGjrMELRUvFwXiQtzMHUav4ZSI8XjAtEGe+OFwDmfKrYurmnC9Rg03pQSOChFi/VU4l12FijoNGpq17PBPD5UUJdVq1DVpseSLJHg5SiET63dufB4PYiEfTTZsFmwMKfk1eOXnS/B0kGJGvCemD/KAvUzY/ROtiNqGZmw7momN+1KRe51bqXdLo30/2H+3X8SKx0YD0Jv7jok1LEfffy6XE6NWbkAzDOaM4PZZ2A04JWIAMDnWHT8dzeXUMMndF0rwwGh/AMBDYwNwvUYNpUwIWTsLG7FQnyPl84HrNWrklOnNgZUyId64OwI0zeClny9x5sDYnBRVNeE/f1/D94dyMH6gK+6MccdAX6VV786Ss8uwcX8adp/MgrpdCptwe8gkQnaMCqA/T/xg/Qm8sGAIxEJD9/qk1GJ8tOFUf4fYKyQiCjNHBHe/kANwok/sZv77dxZ2XyjmzG5MRPGxalEMfJw673HS0QyWfpWEerX+4sMw+oZnmgH+98QQ+Lnon/f1/iysP2z5480tETelBOMHumLiQHcEusnNHU6fcLWwCnuTsrHrVBZyimvMHY7VQAn4UCnE4HVygVEpxBg3yA/RQa6obWjG6bRiHLnUtQmwpcEwDO6dEI7HZsaZO5Q+gZMiVlmvwYNfJXGqt8HVXowVC2Oguim9xQBYty8Lf14wHLino/UGweMiXfHmXH11I80w+Of6izibxQ0nAEvFw0GChEBHJA5wwuAgRwgpblQKaXU0Ll4txbHkQuw9nU2EywTweIBKITHYhVkbPB6w9f27oJRbh50bJ0UMAFbvzMDRtDJzh9EjlDIhFiT6YkiwI+wkQiTn12DHuSIDd/v2qDU0Gpq1eGZqCO4a4g0AqGrQ4OF/n2Gbogm9Qy6mEOuvQrSfEgN9lAj1tLeYmWY0w+BaYTVOphThREohzqSXEFsoE6O4hUuHNTF9WBBeWDDE3GH0GZwVsaLKJjzxzTnOuNv3hMQBzlC36HAuuwp1TVowDPDZg3EI99L3jV3Oq8Ez/ztPqhdNgEQoQJiXHYLcFK1vcvi7yiG56Rykr9FodcgtqUVqbgVSssuRmluOtLxKIlr9iFgogL2V7E5uBQMGG9+aBTdH60ipAxwWMQB4f2sqzmZxp7GwOwR8HpaM8sf0eE/Uq7X45/oLKKlpRk1DC1zsxfj6sQS22m7j8Xx8uZc71VBchs/nwcVODDeVvhXCQyWBk50ISpkI9lIKdhIhHORCo932dToaX++8hILSOuSX1aKgtA6lVY2cKlayNvh8HhzsJFZd/AMAo2N9sXzpcHOH0adwet98zzAfnMqssJj0T18Q5K4AACgkFF6cGYZXN1yGQkLheo0a7265go8WxoDHA+5J9EFyfg0Op3IrpcpFaJrB9Ro1rteocekWdTXzh/ngqTuNq/bafz4Pn/12tg8jJBjLmw8MR3J2GbYcyjB43F4msnoBa9HqsHhSpLnD6HM4nYwLdldgUICDucO4beRiCi/NDMNAX73Rr45m8MmOdFS3TnwOclPgoXEBEFI8yMQCJF2txKaT+ezzX54dBi9HblvGWAM8ADMTPI1ev/Em7z1C/7BwYiTmjw3DOw+OxOv3J7LFGwqpEELKtOliS2BwuAeCvKzPoo3TIgYAS0b7Q8fBHmA3pQQfL47BHSFOeH5aKBwV+sbKynoN/rUznU0tTYp2x+hwF0hFAiSGOmNyTJtDgFxMGX33TzAdg4Mdb9k+cTPZxdU4lUrsn/obO5kIy+4axL6/YHw4vnlpCjyc5JCKrb8hvkVL43ErKam/Gc6LWICrHEOCHc0dRo+pqG9GXZO+L0wpE+KF6aHseJbLeTXYcKxttMPjE4PxyPhAfLBgoIEDxYmMCny4jdzVm5tZCV5Gr924P400rJuBukYNFr+3A/mlbS4m8aHu+OmNmRjgc+vrh7WU2o+O80GoL/euk8ZgFT+hJaP9oePYiCmtjsGq7Wlsg3O4lz0Wj/RjP77lVEGro73ezWNKrAfb3E0zDNbty8IrGy6xQnijIZrQv7gqxbec0H0zao2WU9ZE1sbVwircs/wPHLvc1pzs6iDDZ89MwKTB/h3WS8UU/v3CnZg3Nqwfo+x7dDSDx2fGmm+q88AAACAASURBVDsMk2EVIubtJMUIDjqYl9U2Y82uDNy4MZ+Z4IWhIfoLIgPgzwslHZ5T3diC1365jB+P5LJ39DKxAF8+FI9QT7v+CZzAMiPe02DAaVfsOH6NUwax1khtQzOe+GQvfvorhX1MJBTglUXD8OScQayBAo8HvLJwKIK8VHhydhxeuGewuULuNVPuCISPq/WOdbIKEQOA+0f5cTJNcy67CpvbFWssmxwCDwcppg/yxCuzww3WXimoxQs/XEB6UR3kkrbC0nAveygkFFYtioGvM9mR9RdCAR/TBxlf0PHrgTQTRkMwFplEiK93XMK73x9HcztT7XljQrHqibGwl4uxeFIURrKDLoHTaR1vKLkAzTB4aFq0ucMwKVYjYm4qCSbHune/0AL55XgeLuVVAwBkIgE+WRyDB8cGsHf4DIBtpwvx1qZkVLWOoZEI+ZC0zieL8tFXNyplQjwwJqD/X4CNMircmS3I6Y6LV0txJafcxBERukMqplhHjv3ncrFszV+4XtnAfnzQADd8+9IUPDBlIPvYj3tTcPhifofPZekwDIO5o0Lh6mDdN7ZWI2IAsHikPyQi7rW+MQywekcGKutvCFRbuW9DsxYrf0/FD4dzOjh0yMUCiCg+Ir3bUgVphWT8Rn8xa7DxBR2/7CcFOP3JI9Nj4O1imF4XCwVQSA1vOq4WVuGxj/fgfOZ19jEnpZQ9fz6RUojvdl82ebymQCDg4/4pUeYOw+RYlYjJxALMH+oNLrox1Ta14OPtaQZClV3agH+uv4ikq7d2JbGTUIhoJ2KX84gpbH/g7yJHtK9xPTdVdWrsvWliMMF0vLxwKJ6Zl4BvX54KT2e9eQAl4BvMB2tPTUMzXvzyALbfVHSTX1qL9344AS6aGtEMg4UTIqzG5LcruLdt6YYZ8Z7Ydb6Ykwa5aUV1+P5wDh4cE4C/Ll3H1wey0KI1LLscHe6CcVFu8FBJUNXYgtSCGthJ9WX3zS00MkvqzBG6zTFniJfRo4C2HM5AcwsHmxk5yPh4PyxqdaXwdFbg25enYumKXdC06DodrXIDmgFcVG1pt0Z1C15bd4Sz3pVO9lIsutP63Dk6w6p2YoDef/CB0f7Q6rh39wQAO84W4c1fk/HVX1cNBIwH4LlpA/DM1AEY6KuEs70YIe4KzGzXo5RaWNvhdU+N87AqWy5LQCYWYGK0cWPdaYYhBR39yL6zufhhTzL7vreLHb59aSpclF2fCz00bSCGRuqLdBgGeO+HEwY9ZVxCq6Px7LwEiGzAhQSwQhEDgMRQZ9bKiYsk53dMCc4a7IWRYS5dPq+gsoktEebzeHhxZhhemhWG1++KsHpfuP5kUrQ75EaO6zh6qQCFZWR33J989PMpbPj7Cvu+j6sdPlk2Dio7SafrR8f6YOHEtl3Lt7su4URKocnjNBWDBrhhVGtlpS1glSIGAE9NCuZkyX1nCPg83Jvoy75fWNmEd3+7grc2JeNKQdvd4qRoNwwLcYKIEuDNuRGYPsgDADA20hUPjydVi31FTxw6fiE+iWZhxU8nsafdOaSfmz1WPzWu0zOiYZFtP8/DF/MNesi4ho6m8dx87va03Q5WK2KejlLMSvCyCiHzdZYZTB/+6I80nM+pwuW8Gry1KZkdqimi+Hj97gisWRKDsZGu7PqCiib8fpr49fUFMX4qBLoZN4upuKIeRy9za3Q9lxAI+FgyOQqTBgewBRyAPgsxwNcR0UGGmYsADyU+fmpshwKPFT+dxNc7LiGrqBorfjrJ2WsGwzCYNyYM/u7czULdDlZX2NGee4f74uCVUtQ2cfNw9gZqjWFRQEW7ohUdrbeveuvuSIR52UMmEiDSp+2X+GpJPf65/iLbX0boHT0pq9+4Pw00F0tlOQAl4OOTp8ZhfHybVVtVnRrJ2eW4VliFqUOD2P4orY5mPRCDvRyw6omxeOHL/Whod1346a8UbNyfCi3X/OvaIZMIrb6xuTOsdicG6D0Hn5wUzNkijxsUV6tRUdcmQtPjDV0imltofLH3aoehilcKavHs9xeIgPURKrkQo8KMszfTaHXYcjij+4WEHiOiBPj06fEGAgYADnYSjIz2xgNTBrICVlrViKUrduHg+TZD7VBfR3z0+BjIbnKv57KAaXU0lt01CDKJ9Tvy34xVixgADAl2RJw/92fo/Hgkh/3/PcN8kTig7WLqai/Gq3MMizfOZVfh3S0poPg8ttiD0DumD/I0SOt2xd6kbFTWNpk4IttCLBJg6tAg0AyDr7ZdwLvfH8eWQxlIz6uEju4oQMUV9Xhm7d8oKK3Dez8cx5FLbandCH9nrHh8NCfNETojJtgVU4cGmTsMs8BjuNjJ10Mq6zV4fN0ZaDme2nl+WihGtO4EtDoG72+9gsp6Dd6aG2lgf3QsvRxrdmWwjdM0A9Q2tnRw/CAYD5/Pw4anh8Jd1XmF280sem8HLrRzgSD0Dl83e/xr2Xi4qKQY/fTPBudWAgEfLioZJsT74eWFQwEADU0tePTjP1FUXs+uowR8fPDoKAwO82AfO3a5AK9/faTfXocp4AH46c0Z8HBSdLvWGrH6nRgAOCpEWDomAJ3crHGKz/dkstWIlICHl2aF4f0FAw0EbO+lEqzemW4gWHweYC8Tkn6xXpA4wMloAUvPqyQC1sd8/X9TEOrrCEd7KYK92qa5UwI+VAoxdDrawCNw96ksAwEDADcHOfzaFT3UNWqwfi93KxEBfRrx8dlxNitggI2IGABMifNAmBe3R5VotDQ+2HYF2aV6w1KJUABFOzf7LUkF+Pdf1zqtruLzAHupECIj02EEQ0hZvXlJaWeePCRcv5MSCwVQKcRsGl0lb7vJuDnt6+Nqj0+fHg/XVleO2oZmvPDFfqTn3drSjQuE+Tph3hhuzzvrLTZ1RXtu6gDON/02Nuvw9uYUFFUZnresP5yDH4/kdvlcHg+wk1Ks+z3BODwdpUgIcuh+IYD6Jg12nCCDL/ua45fbmo+HhHtCKqZgLxcbWEkVVrQ1lU8bFoQxsb4QCQUYGe2Nz56dACelFABQXafGc5/vR2ZBVf+9ABPAMAzeWJJotP2ZtWJTIuamkmDhSF9OGgS3p7apBcs3paC8rhkMA3y59yq2njbeYUAuFhjtOEEAZid4GX3z8/vRTDQ1a00cke1x8Vop+/8h4R6wk3VsWj54Po8tm6cEfLy1dDj2fDwf7zw0km1yrqxV49nP9iGrqLp/AjcROprBIzNi4OtmvcMujcWmRAwAZid4G4wu4Srldc14e3MKVm1Pw9+Xe37+IhHxYSelbP4urjvEQj6m9GBO3aYD6SaMxjaJ8HfC2mcmsO/byUQI8e64M66sVWPVL6du2ZuXXVyDZ9b+jdzr3PREbE+AuxL3jo8wdxgWgc2JGI+nN9I1tlTakimsbMLJzIrbfr6I4kMpE7LDNwkdGRflBnuZcb03SanFuFrI7RSVuVDKxZ1aQs0bE4Yf35jRYTbYoAGdGzAfupCPZz7bh+KKtqKOxuYWbD2SgSc+2YMCK/CxZBgGbz80grTOtGKTOSVnOzGWTQrGqu3pNl+xJ+DzoJQJUa/WQqPlePmmCZid4Nn9olZIQcftMTDQBauXjYNMIsTazWex6WAaRJQAy5cOx/TEYHZddX0zVAq90MUGu93y+52cVYb73tkON0c5HO0kyCyo4nQjc3u0Ohov3DPE5qylusImRQwARoa74HhmBU5mVNh8Su1GwUeTRofGZjL36gYhHgqEeRmXei6rbsT+c10X1hA6Mj7eDx8/OY7NjLyxJBHzx4ZBIOAZlNL/dSYHX249h1/fng0hxUdMsAsoAb9Lcbpe2YDrlQ0mfw39BcMwGBbpidkjQ8wdikXB/ZxaL1h2ZzCURqaKbAGpSAB7qZDzFZx9xV1DvI1eu+lAmtXc7fcnB87nYeXPJ1FVp2YfC/V1ZAVM06LDJxtP44P1J1Bd34zk7DIAgEREIdTX0SwxmwulQoI3Hxhu7jAsDpsWMbmYwsuzwgCGXLRvIKR4UMqFVnFm2BsUEgrjoly7XwhAp6Ox+RAp6DCWacOC8MGjowEANM3gl32pmPLiJvxv9+UOk8wZBlApxBAJ9W0hZ9NL2I/d6lzMGtHSDN55cAQUUlH3i20M275SAQjzsse9I3w4X3bfl+gboynIxbZbvThtkAckQuP66fafz0NpVaOJI+I+9nIxvnhuIlY+PgYzhwcbnHfVN2nwycYkLFj+Ow5fzGcfF4sEeGhaNP73ylSMjPbGmXYiFhdiGyKmoxksmRyJmGDjbqpsDZsXMQCYe4cPYvxUnJ0jZCokIn31oq0Vv/AAzIg3vqBjIynoMIoGdQvcHNtmsb2yaCjbgCwQ8KFSSFBZp8Zb3x7FM2v/NnDT8HBS4J2HRuKxmbFsCX2kvzO7Q7NmBvg44MEptjdixViIiEFf2PDijFByPtYJAj4P9lKhTbl8DA52hI+TrPuFAHKKa3AqlQwcvRXtXeJ1OhqvrzsCXevZoVIuxhv3J0IqpuCgELMzvwDg0rUyPLF6Dz788QTKqtt2uXEhbmxpuUgoQKS/caNxuIpYJMAHj44m5fRdQESsFYWEwkuzwkhasRN4PL3Lh63symb2xCdxfyrZwXdCkJcKnz49Aetfn26Qkk7Lq8DXOy+x709I8Mf0xGAD+6gbMAyw93QOFr+/A9/tvgy1pqMTSmSA9YqYVkfj/YdHsX6PhM4hItaOcC97PDExiPNDNE0FJdD3lMnEAqs9K3NVipE4wMmotWqNFn8cIz6JNxPgocLW9+/C+Hg/hPs54c4hgQYf/88f5w1sn56Zm9Bpo/MNmjU6/PBnMha9twN/nsrCjelRf5/JwaaDaaZ5EWZGq6Px9Nx4xIca7xZjqxARu4k7Y9wxNsqV7Mi6QCrS78qEAuv79ZkR72m0g8mO49dQ29Bs4oi4R3ZxNU6mtKVY/3F3PAStvytCig+5RIRVG9rsoVQKMZ6eG9/t562oacLKn0/hsY/3YMVPJ/H++hNo1lhfXyPNMBgT62vz7vTGYn1XoT7gH3eGIMhV3v1CG0bA58FeRsFOSllNvp4S8DA1zqP7ha38esA6dwF9wZpNZ9g0q5+bPe4aNQB2MhFUCgkoAR9peZUG379xg/wwYqBxfXmZBVXYk5RtirAtAn83Jd54INHcYXAGImKdQAl4eP2uCMiI03u3iCg+VDIhpCLupxhHh7vA2e7Waa32XLxaiivtZlzZGmKRAEMjPG/ZGH8lpxx7T7cJzVNz4mB/U8rwu92XkV/aZsb73PzBsJPZdh+URCTAqifHQkTZTiFVbyEidgscFCK8PiecNEIbAY8HyMQCqGQiiIXc/ZXqaUGHrTJ/XBh2r5qPr1+agh0r52L+2DCIOyl1/88fF9iUobNShtkjDO2SNC06rPz5FHvG5WgvwbK7Bpn+BVgoWh2N9x4eZTChmtA93L3i9ANhXvZ4dloIiJuQcfD5+ipPew6el/m7yBHjpzJqbVWdGnutOJ3VHeMH+bEVc75u9njzgeH4a/U9eGRGDOzlYggpPlQKMarq1PgzKYt93sKJEZBJDNtYUrLL8duhDPb9SYMDcEeE8T161kKLVod/LhhCCjluA25daczAqHAXLEj0gY5UehiNUKA/L+OSmM0Z4mV0OnTL4Qw0t1hfQUFnSERUh8rBTzef6dBW4GgvxTNzE7DvXwvw6uJEeDnrR6d8vzuZtZKyl4txz7iOxQpf77yIovK20Skv3DO4g9hZM1odjfsnR2HWCGLseztw4wpjZu4d7ouxkW6kYrGHsGImtez+MqlIgInRxlkY0QxjEwUdgZ4qvLJoKA6uvRePzow1+NiVnAqD8672SMUU5o0JxU9vzsAri4ZCLhVi25G2nda8MWHsOJUbNGt0WLXhFCuMzS06uNhIbxTNMJgQ749HZ8R2v5jQKUTEjGTZncEY4GFHGltvAyGl7y+zk1IWuTObFO0OuZFFPEcvFaDQCgYrdseMxGAsnBgJhVSE2SNDOpx5ffbbWejotjx7ZkGVwdgTSsDHpMEB+OalqRgY6MI+LhVTWDQpssPXu3C1FNuOZuDXA2l4eOVu5JbUmOBVWRYMwyA6yBWv3z/M3KFwGsu7olgolICH5XMj4ekgNXconEVE8WEvo6CUCS2qAGT24B4UdFipT+IAH0cEeradCW46mAa69Y5NKRfjziEB7MfEQgGq69X481TbbszNQYZHP96D99efMGhk5vGAMD/D5vGZw0M6LV5Yu/ksvtp23mZStV4udlj52Gi2h45we5DvXg+QiQX44N6BcJDbdhlwb6EEPCgkFBzkIkiE5i3Nj/FTIdDNuJ7A4op6HL1cYOKI+pdZI0Kw66N52PLeHDwyPYZ9vKi8Hkcvtb3WBePDIRVTcLSXthZvCPD9n8nQtAqOvVyMu0cPwN9ncvDQyt146d8HceFqaadfU0jx8cCUgaZ9YRaOvVyMtU9PsKmzP1NBRKyHKGVCfHhvtNHpJ8Kt4fMBuUQAB7kIcglllnOzWT3YhW3cn8aWjFsLAgEPvm766dVj4nwNTHjb7zqjg1wRG+xm4GZSVt2I349msu+3P+9KSi3Gc5/twxOr9+LIxXy2jP4GExP84WgvMclrsnQoAR+fPj2edfAn9A4iYreBq1KMd+ZHgeKTb19fwOMBEqF+7ItSpnfM74/p0iq5EKPCjDOQbdHS2HI4o/uFFoZAwMcAn1tPQD5wLo8VZjuZCEMjPPU/DxGFlOxyg3OumcODOzz/p7+uoLG5BUDn511puRV489ujuP+Dndh54hpatDSOJxfi0VV/orJW3eHz2QJr/jEe/u5Kc4dhNQiWL1++3NxBcBEHuQjh3vY4kFyqH0BF6BP4fB5EFB8SoYC1szLV7mfuUB8MDjZuxP3uk9ew/Ti3zH6XLx2B9x4eiSWToxDgocKp1OIO501qjRYJYe7wdtGXxDOMvshCLKLA4/EgFlHsBGVfN3tsPZyJlnaNk80tOggFfMS2DqgM8XbEntPZaFC3GHyd2gYNjicX4teDadh7OgfV9bbnOckDsPaZCYhqV+hC6D1kK9ELonyUeHt+FNEwE3Bjd2YvpeCgEEEhoSCi+u7Xlc/n9Wjw5S/7uVdW7+msYHu8pgwNxLb378KwSMPXLKT4BpOUR8X6GBQa7Dp5DdpW0ZKKKUwc7N/h62w6kI6aViPk7s67rNGw1zgYfPTkWINKTULfQHZivcRNKUGwux0OXSntdCYSoffwePpiELGQD4lIwJ7L3HzO0hOGhzpjlpE2U+l5lVi7+cxtf63ewufxMC7eD/dPjsIzcxPw+Kw43DshAqNifGAnE+FqYRUrNO2RiCiMifNl35dLhZiRGAIHOwlSciogkwghFQtRWavGvLGh4PF4kIgoXLxWipIKfRpRrdEiwEOFAA99+svVQdZh/EyLjoZWR2NIuN48OchThUMX8lhhs3UYBlj15FgMDjPeXJpgPGQn1gfEBzrgtbsiwJA9mcnht9+hyUXs1Gljx6fcwFgBA8xbVj84zAN/rLgbnz49AfPGhGGAjyNcVDJ4u9ghMcoLry4ehl0fzevUrmjfudwOqVgeD7hvQgTWvz4doa1nZRW1TUjObjMzHh3jY/CcP9oVbwR6qjodRPn70UyUtk5gLq9tIkULrdAMg5WPjyYCZkLITqyP8HKUwsdJimPpFZx3c+cKPJ5+JIyI0u/QxEI+BAI++DyAAW7ZmO7lKMWyyZ1PE76Z+iYNXlt3uNOdjqmZPTIEq5eNg6N914IglwgxMcEfRy8VorymSX+uKBQADJAQ5g4PJ0WH56gUYkwZGgiaBlJyyiGTCNmdlItKhk0H09m1JZUNGDvIj608FFICHLlk2GpA0wwqavRi+OGPJ1BYVg9bR0frDX2HGzlihnB7kJ1YHzI81Bmvzg5nm0QJ/YuAz4NEyG/tQRPCQS6CnZSCRCQAJeCxNxezEryMrn78/ehVNDVrTRh150y+IxDvPTyKLXkvq27Eqg2nMPOV3zDx+Y249+0/sP3YVfZ3TSEVYd3/TUawtwOc7KWwl4khFVM4crFNbKrq1Fi3/SIryJSAj4enR2Pt0xNwrbCtQdnJXtpht/XHsbbd2JhY304nMR84n4fNB9NZr0RbhmEYfPDoaIy6aVdL6HuIiPUxQ4Id8fY8UuxhCfD5epcQuVg/idpRIYKbUoypscY7hW8yk09i+/O+ipomzHltC9bvTUFBaR2q69XIKanBRxtO4cut59h1DnYSzB9raLB7+FI+uyN1sJPg4rVSPPbxHgNXjcgAZ7z/yCgD8bn54rs3KYctyhBSfEy+IwCEzuHxeFi9bLzRQz4JvYOImAmI8VPh/QUDSR+ZBTIy3AV2MuNcEs5llBhc7E0Nn8cDJeBDLBSgoJ0/o71cDJFQACd7KZQKMRRSESQiCpSAj98OZeBsegm7dmy7Qg5AL4BXcg3Pu7KKqvHYx3vwy75UViylYgrCdtWfN5+L1TdpsP9cLgAgOasMedet3z/ydhAJBfjiuYlsWwLB9JAzMRPhbC9GtJ8Kh1PLSHrRgnhiYhCcjJzerFKIcSq1GDTNQCqmIBHpU5MiIQUhJYBIyNf/SwkgbH2jBHz2TUjxIRIK2DUiSgCxUP98iZiCVExBKhZCLhVCIRW1VgtSEIsoNLfosHBiJPg8HgR8HpzspZg5PAQPT4+BjqaRlldpEOvIaL3o2MlE2H7cMAWqkIrYwgJnpRSbD6WDZhicTS/B+czriA127TBRWS4V4tSVIpTXNLGPZZfUYNfJLPz89xUDkSXoUUhF+PK5SQjxdjB3KDYF2SqYkFBPO3y8OAYKCbGosgR4AJpajD+vkYqFeGXRUPD5PHaXJGwVohsCJJPo3+StbwqpCHYy/ZtCKmIfv7FOKm4VKmGb6HV2PqfV0QZu+dMTgzE00hPujnIEeBgO78wvNRQUlcLQzql9H5iboxyhvm0N3peuleHhlX9i18lrHWK4OaVYVF7frztTLuFoL8G6/5sMfw/ixNHfEBEzMT5OMqxZEgcXezEZ42JmGABrd2egXm18oUZUgAvmj+k4yLE/6GwcyQ2Lp/YIKcMxKTcXopRUNiCzoIp9/2ZxamxuwaoNSXht3WFU1+mtoEqrG1HbqLnt2G0FhmHg6SzHuhcnw93ROCNpQt9Ctgj9gKNChE8Wx+KNjcnILmtAD1uaCH1IZb0GX+/PwrNTBxj9nAenRyMptQhZxf074+pUajFqGzXILalBdkkNcktqUdbai9We9i4cjc0tKK1q6LDm0IU8Ns01KsYH67Zf7LDmeHIhlq7YBXdHeYd0JaEjNMMg3M8JHz85FgopmWxhLshOrJ9QSCisXBiNOH8H6KzMCZ1rHE4tw7H08u4XtiIU8PH6ksQ+tb0yhp0nruHjX5Kw6WA6zqSVdCpgHk4KTBsWxL5/9FJhp79fh9qlFL1d7Axmh7Wnur6ZCJgRaHU0xsX54fNnJxIBMzNExPoREcXHm3dHYM5gL2h1RMjMyVd7r6G8zvh0WYCHCkunRpswoq5ZMD4cwV5tBQM8HpAQ6o5/LRvHFmVodTR+3JvS6fMLSuuQ3bqTzCyoIhfeXqCjGSydOhBvLR1uMLqGYB54TG8M6Ai3zb7kUny2O4N1aif0PzF+Krx5d6TRDis0w+CFzw/gwtXrpg3sJoZFeuGDR0cBAEqrGtHcooVMLDSwdtLqaHz440m2DL4zIv2dUVmnRnEFcdO4XXg8Ht5YktihlYFgPoiImZHk/Bq8t+UKNMThwGw8PC4QU+OM97Urr27E0hW7Ud/UP0UPlICP716eCm9Xu1uuaW7R4a1vj+LUlaJ+iclWkUkorHpiHCL8ncwdCqEdZC9sRqJ8lFi9OBYudhKQYzLzsP5wLgorm7pf2IqzSoYn58SZMKKObDua2WlfVnWdGjuOX8XSD3cRATMhDMPA180O3786nQiYBUJ2YhaARktj9c4MnMgo77EbO6H3BLoqsOK+aFAC47/3b3xzBEdvMsE1Na4OMrioZAADVNapUVJZT9o2TMyNAo5X7x8GsVDQ/RMI/Q4RMQti+9kirNuX1aOLKaFvuCfRF/cMM96staa+GQ+u3IXKWrUJoyKYE5pm8MiMGCyaFGnuUAhdQNKJFsSMeE+8eXcEBGSWS7+z+WQBMouNt1JSKsR4+b6hZOyOleJgJ8F/X5xMBIwDEBGzMBKCHPHVw/Hwc1GQc7J+REfT+NeuTKhbndqNYXC4B6YNCzZhVIT+hmYYxAS54PtXpxnYcxEsF5JOtFBomsH6I7nYcqoQApKK7zemxHngkXGBRq9Xa7R4eOVuFJaTsnWuo6MZPDAlCkunRJMdNocgImbhnMuuwqo/0qFu0ZE/rH6AB+DVORGIDzTeiTwluxxPr/0bNNk6cxKGYaCQifDuQyMRF0JGqHANkk60cAYFOODzBwch1MueuHz0AwyAr/Ze7ZFJcGSAM+6bEGG6oAgmQ6ujkRDmgR9fn0EEjKOQnRhHYBhgx7kifHsgm+zI+oE7gp3w0izj3et1OhrL1vyNtLwKE0ZF6EsEfOCxWXGYZ6YpBYS+gYgYx8grb8TK39NQWNVE3PBNzLNTB2BUuIvR63Ov1+LRVbuh6cHMMkL/QzMMAjxUePehEfBxtTd3OIReQkSMg2h1DNYfzsHvZ4uIkJkQmYjCmgfi4GxnvFnu5oPp+GLrORNGRegNDAM8OG0gFk2K7HQYKYF7EBHjMFnXG7B6ZwYKKhrBJ6ebJiHcS4l37zH+gscwwMv/PoiktGITR0boCTqaQbCXCm8uGU6mL1sZRMQ4jo5msDWpED8eySVCZiKWjg3AjEGe3S9spaKmCUs/3IW6fjIJJnQNwzBYfGcUlk4dSHZfVggRMSshr7wRa3Zl4tr1OuK/2McIBXx8vDgGPk4yo5/z99lcvP/DcRNGRegOrY5GTLArXls8DB5OCnOHQzARRMSsjIMppfj3viw0a0hfW5taeQAAB7ZJREFUWV8S4CrHyoUxoHpwg/D2/47h4Pk8E0ZFuBVyiRCPzozFzOHEUcXaISJmhdSrtfjuYDb+uny9RxddQtfcfYc3Fo7wM3p9Q1MLlq7YibJq40e9EHoHzTCYekcQlt09CHKJ0NzhEPoBImJWTGphLb7ccxV5FY0kxdgH8Pl8vH9PFEI9bz2g8mbOppfgxa8OkJEpJkaroxHq44iXFg5FiLfxbisE7kNEzMphGODQlVJ8dzAHNU0tpCS/l7gpJVi9OBZSsfGGlmt/O4uthzNMGJXtQjMM7GViPDIjBjMSg0kK3QYhImYjNLfQ2JJUgM0n80F+4L1jYrQ7npgYZPT65hYtHv7oTxSUGj/qhdA9PB4wb0woHpwWQwZW2jBExGyM8tpmfH8oB0fSyklJfi94ZXY4BgcZP6ojI78ST/3rL2h1xM2jt2hpBpPi/fHknDg4KaXmDodgZoiI2Sh55Y346WgeTmZUkFEvt4G9TIg198dCJTfezeP73Zfxvz+TTRiVdaPT0Rga5YUnZ8fB3500LBP0EBGzcdKL6vDtgWxcKayFUEAOFHrC7ZgEP732b1zJISbBPaFFq0NUgDOemTcY4X5O5g6HYGEQESMAAFLya7DhWB4u5dWAImJmNP+4MwRjo1yNXp9fWodHPtqN5hbjJ0jbKlodjdhgVzw2KxZRAcYbMRNsCyJiBAOultRjw7E8nLlWCQERs26RCAVYfX8s3FUSo5+z9XAG1v521oRRcRutTodBAzzw0LRoRAcR8SJ0DRExQqdkFtfjl+N5OH2tkuzMuiHCW4l35vfMJPjV/x7CyStFJo6MW2i1NOIGuOHxWXGI8CdpQ4JxEBEjdElJtRrbzxZh78USaGmG9OHcgvtH+WP2YC+j11fUNmHpB8QkmGEY8Hg8TEzwx/2To+DtYnwjOYEAEBEjGEm9Wos/zhZi1/kS1DdpSXn+TVACPlYtioGfs/EmwUcvFeCNb46YMCrLhWYYKKQiTB8WiHsnREKlEJs7JAJHISJG6BE0w+B8djV+P1OICznVJNXYDh8nGT5eHAOhwHiFf/+H4/j7bK4Jo7IsWrQ6hPo4Yf64MEyI94OgB98rAqEziIgRbpu88kZsO1OIQ1fKoKMZYmkFYM5gbywe1ROTYA0eXLkbpVWNJozKvNAMA6GAh9Gxfpg3NhRhvuS8i9B3EBEj9BqNlsbx9HLsTy7Fxbwa2PLNNZ/Hw/J5kYjyMb4Z91zmdbz4xQHQVvanqNXR8HdXYuaIYEwbGgQZcZUnmAAiYoQ+pbhKjT0Xi7E/pRS1jbZ5duZqL8Hq+2MgE1NGP+fzLWfx2yHumwTraAZKhRjj4/wwLTGIOMoTTA4RMYLJSC+qw95LJTiRUYHGZp1NCdq4SFcsmxxi9PoWHY3HV/2JrOIaE0ZlGnS0Pl04bKA3Jgzyw8hob3LWReg3iIgRTI6OZnA2qwoHU0pxNrsKzS20TQjaSzPDcEeI8ec/GflVeOpfezlhEnzjnGtIhBfGxfliZLQPxCJiwknof4iIEfoVmmaQUlCLk5kVOHW1AmW1zVY7sNNOKsSaJbFw6IFJ8I97U/DNzksmjOr20epoSEQU7oj0xMiB3hgV4wNpD1KmBIIpICJGMBsMA2QU1+FkRgXO5VQhu6wBAh7PqhqqBwc64pU54UavpxkGz3+2DxevlZkwKuNgGAYtWhouKhmGRXphVKwPEkLdIaRsYBtN4AxExAgWQ21jC05nVeFcViUu5tWgrqnFKnZpT0wMxsRoN6PXF5bX45GPdqOpWWvCqDpHq6MhFVGIDnbFHREeGBntA3dHeb/HQSAYCxExgsVSVNWE5PwaXCmoxbnsKlQ1tIDic2+nJhYKsHpxLDwcjDcJ3n78KlZvPG3CqPRodTQoAQ8R/s6IH+COoZGeCPNzMtoHkkAwN0TECJwhv6IRyfm1yCiqQ0ZxHQoqm8DjgRNN1qEe9nh/QRT4RgbLMMCr6w7hZErfmQTfSA+6OsgQ6e+MiABnxAS5IszXkVQTEjgLETECZ2nS6JBeVIe0wlpklTYgt6wRxdV6YbPENOTCEX64+w5vo9dX1qrx4MpdqKlv7vHXohkGWi0NJ6UUwV4qhHg7IszPCdGBLnBSSnv8+QgES4WIGMGqaG6hkVPWgMySeuRXNKKgognFVU2oqNMAPAZ8MxaOUAI+Vtw3EIGuCqOf05VJMMMw0NEMaJqBnUwEPzd7eLnawd9diVAfvWgp5cRYl2DdEBEj2AQaLY38ikbkVzThenUTSmuaUVqrRlmtBmW1amh0eu9HHo9n0vTk7ZgEf/DjCew6mQUnOwncnRRwc5TD01EOdycFAjyU8PdQErEi2CxExAgEAA1qLSrqNahq0KC8thnVjS2oatCgXq1Fg1qLhmYdGpv1/6o1Omh0NJq1tEFjMg969bux07vxl8Wg7U+MZoC5d3jjwbEBRsema/0a5NyKQOgIETECoZeoNTq06Lr+M+LzATlpDCYQ+hwiYgQCgUDgLCQ/QSAQCATOQkSMQCAQCJyFiBiBQCAQOAsRMQKBQCBwFiJiBAKBQOAsRMQIBAKBwFmIiBEIBAKBsxARIxAIBAJnISJGIBAIBM5CRIxAIBAInIWIGIFAIBA4CxExAoFAIHCW/weS/fcQI0VlRwAAAABJRU5ErkJggg==;" vertex="1" parent="1">
          <mxGeometry x="340" y="1370" width="433" height="391" as="geometry" />
        </mxCell>
        <mxCell id="vaTgJTLyDpVTGSEm01bZ-37" style="edgeStyle=orthogonalEdgeStyle;rounded=0;orthogonalLoop=1;jettySize=auto;html=1;entryX=0;entryY=0.5;entryDx=0;entryDy=0;fontFamily=Comfortaa;fontSource=https%3A%2F%2Ffonts.googleapis.com%2Fcss%3Ffamily%3DComfortaa;fontSize=15;" edge="1" parent="1" source="vaTgJTLyDpVTGSEm01bZ-33" target="vaTgJTLyDpVTGSEm01bZ-36">
          <mxGeometry relative="1" as="geometry" />
        </mxCell>
        <mxCell id="vaTgJTLyDpVTGSEm01bZ-41" style="edgeStyle=orthogonalEdgeStyle;rounded=0;orthogonalLoop=1;jettySize=auto;html=1;entryX=0;entryY=0.5;entryDx=0;entryDy=0;fontFamily=Comfortaa;fontSource=https%3A%2F%2Ffonts.googleapis.com%2Fcss%3Ffamily%3DComfortaa;fontSize=15;" edge="1" parent="1" source="vaTgJTLyDpVTGSEm01bZ-33" target="vaTgJTLyDpVTGSEm01bZ-40">
          <mxGeometry relative="1" as="geometry" />
        </mxCell>
        <mxCell id="vaTgJTLyDpVTGSEm01bZ-33" value="Flexibility" style="rounded=0;whiteSpace=wrap;html=1;fontFamily=Comfortaa;fontSource=https%3A%2F%2Ffonts.googleapis.com%2Fcss%3Ffamily%3DComfortaa;fontSize=15;fontStyle=1" vertex="1" parent="1">
          <mxGeometry x="730" y="980" width="120" height="60" as="geometry" />
        </mxCell>
        <mxCell id="vaTgJTLyDpVTGSEm01bZ-39" style="edgeStyle=orthogonalEdgeStyle;rounded=0;orthogonalLoop=1;jettySize=auto;html=1;fontFamily=Comfortaa;fontSource=https%3A%2F%2Ffonts.googleapis.com%2Fcss%3Ffamily%3DComfortaa;fontSize=15;" edge="1" parent="1" source="vaTgJTLyDpVTGSEm01bZ-36" target="vaTgJTLyDpVTGSEm01bZ-38">
          <mxGeometry relative="1" as="geometry" />
        </mxCell>
        <mxCell id="vaTgJTLyDpVTGSEm01bZ-36" value="When stress is high" style="rounded=0;whiteSpace=wrap;html=1;fontFamily=Comfortaa;fontSource=https%3A%2F%2Ffonts.googleapis.com%2Fcss%3Ffamily%3DComfortaa;fontSize=15;" vertex="1" parent="1">
          <mxGeometry x="1010" y="890" width="120" height="60" as="geometry" />
        </mxCell>
        <mxCell id="vaTgJTLyDpVTGSEm01bZ-38" value="&lt;b&gt;auto-regulate&lt;/b&gt; the training" style="ellipse;whiteSpace=wrap;html=1;fontFamily=Comfortaa;fontSource=https%3A%2F%2Ffonts.googleapis.com%2Fcss%3Ffamily%3DComfortaa;fontSize=15;" vertex="1" parent="1">
          <mxGeometry x="1210" y="875" width="200" height="90" as="geometry" />
        </mxCell>
        <mxCell id="vaTgJTLyDpVTGSEm01bZ-43" style="edgeStyle=orthogonalEdgeStyle;rounded=0;orthogonalLoop=1;jettySize=auto;html=1;fontFamily=Comfortaa;fontSource=https%3A%2F%2Ffonts.googleapis.com%2Fcss%3Ffamily%3DComfortaa;fontSize=15;" edge="1" parent="1" source="vaTgJTLyDpVTGSEm01bZ-40" target="vaTgJTLyDpVTGSEm01bZ-42">
          <mxGeometry relative="1" as="geometry" />
        </mxCell>
        <mxCell id="vaTgJTLyDpVTGSEm01bZ-40" value="Energy Levels" style="rounded=0;whiteSpace=wrap;html=1;fontFamily=Comfortaa;fontSource=https%3A%2F%2Ffonts.googleapis.com%2Fcss%3Ffamily%3DComfortaa;fontSize=15;" vertex="1" parent="1">
          <mxGeometry x="1010" y="1060" width="120" height="60" as="geometry" />
        </mxCell>
        <mxCell id="vaTgJTLyDpVTGSEm01bZ-42" value="easy/moderate/hard throughout the week.&lt;br&gt;You can choose easy if that day you feel tired" style="ellipse;whiteSpace=wrap;html=1;fontFamily=Comfortaa;fontSource=https%3A%2F%2Ffonts.googleapis.com%2Fcss%3Ffamily%3DComfortaa;fontSize=15;" vertex="1" parent="1">
          <mxGeometry x="1220" y="1042.5" width="230" height="95" as="geometry" />
        </mxCell>
        <mxCell id="vaTgJTLyDpVTGSEm01bZ-50" style="edgeStyle=orthogonalEdgeStyle;rounded=0;orthogonalLoop=1;jettySize=auto;html=1;entryX=0;entryY=0.5;entryDx=0;entryDy=0;fontFamily=Comfortaa;fontSource=https%3A%2F%2Ffonts.googleapis.com%2Fcss%3Ffamily%3DComfortaa;fontSize=30;" edge="1" parent="1" source="vaTgJTLyDpVTGSEm01bZ-45" target="vaTgJTLyDpVTGSEm01bZ-47">
          <mxGeometry relative="1" as="geometry" />
        </mxCell>
        <mxCell id="vaTgJTLyDpVTGSEm01bZ-51" style="edgeStyle=orthogonalEdgeStyle;rounded=0;orthogonalLoop=1;jettySize=auto;html=1;entryX=0;entryY=0.5;entryDx=0;entryDy=0;fontFamily=Comfortaa;fontSource=https%3A%2F%2Ffonts.googleapis.com%2Fcss%3Ffamily%3DComfortaa;fontSize=30;" edge="1" parent="1" source="vaTgJTLyDpVTGSEm01bZ-45" target="vaTgJTLyDpVTGSEm01bZ-48">
          <mxGeometry relative="1" as="geometry" />
        </mxCell>
        <mxCell id="vaTgJTLyDpVTGSEm01bZ-52" style="edgeStyle=orthogonalEdgeStyle;rounded=0;orthogonalLoop=1;jettySize=auto;html=1;entryX=0;entryY=0.5;entryDx=0;entryDy=0;fontFamily=Comfortaa;fontSource=https%3A%2F%2Ffonts.googleapis.com%2Fcss%3Ffamily%3DComfortaa;fontSize=30;" edge="1" parent="1" source="vaTgJTLyDpVTGSEm01bZ-45" target="vaTgJTLyDpVTGSEm01bZ-49">
          <mxGeometry relative="1" as="geometry" />
        </mxCell>
        <mxCell id="vaTgJTLyDpVTGSEm01bZ-54" style="edgeStyle=orthogonalEdgeStyle;rounded=0;orthogonalLoop=1;jettySize=auto;html=1;entryX=0;entryY=0.5;entryDx=0;entryDy=0;fontFamily=Comfortaa;fontSource=https%3A%2F%2Ffonts.googleapis.com%2Fcss%3Ffamily%3DComfortaa;fontSize=30;" edge="1" parent="1" source="vaTgJTLyDpVTGSEm01bZ-45" target="vaTgJTLyDpVTGSEm01bZ-53">
          <mxGeometry relative="1" as="geometry" />
        </mxCell>
        <mxCell id="vaTgJTLyDpVTGSEm01bZ-70" style="edgeStyle=orthogonalEdgeStyle;rounded=0;orthogonalLoop=1;jettySize=auto;html=1;entryX=0.5;entryY=0;entryDx=0;entryDy=0;fontFamily=Comfortaa;fontSource=https%3A%2F%2Ffonts.googleapis.com%2Fcss%3Ffamily%3DComfortaa;fontSize=20;" edge="1" parent="1" source="vaTgJTLyDpVTGSEm01bZ-45" target="vaTgJTLyDpVTGSEm01bZ-71">
          <mxGeometry relative="1" as="geometry">
            <mxPoint x="-180" y="2584" as="targetPoint" />
          </mxGeometry>
        </mxCell>
        <mxCell id="vaTgJTLyDpVTGSEm01bZ-75" style="edgeStyle=orthogonalEdgeStyle;rounded=0;orthogonalLoop=1;jettySize=auto;html=1;fontFamily=Comfortaa;fontSource=https%3A%2F%2Ffonts.googleapis.com%2Fcss%3Ffamily%3DComfortaa;fontSize=20;" edge="1" parent="1" source="vaTgJTLyDpVTGSEm01bZ-45" target="vaTgJTLyDpVTGSEm01bZ-74">
          <mxGeometry relative="1" as="geometry" />
        </mxCell>
        <mxCell id="vaTgJTLyDpVTGSEm01bZ-45" value="Life doesn&#39;t stop you from training" style="ellipse;shape=cloud;whiteSpace=wrap;html=1;fontFamily=Comfortaa;fontSource=https%3A%2F%2Ffonts.googleapis.com%2Fcss%3Ffamily%3DComfortaa;fontSize=30;fontStyle=1" vertex="1" parent="1">
          <mxGeometry x="320" y="2061" width="340" height="340" as="geometry" />
        </mxCell>
        <mxCell id="vaTgJTLyDpVTGSEm01bZ-47" value="Plan well if you have something happen on your life" style="rounded=0;whiteSpace=wrap;html=1;fontFamily=Comfortaa;fontSource=https%3A%2F%2Ffonts.googleapis.com%2Fcss%3Ffamily%3DComfortaa;fontStyle=0;fontSize=20;" vertex="1" parent="1">
          <mxGeometry x="880" y="1931" width="317.95" height="140" as="geometry" />
        </mxCell>
        <mxCell id="vaTgJTLyDpVTGSEm01bZ-48" value="Don&#39;t freak out/overreaction when something happen, plan well and you can train properly" style="rounded=0;whiteSpace=wrap;html=1;fontFamily=Comfortaa;fontSource=https%3A%2F%2Ffonts.googleapis.com%2Fcss%3Ffamily%3DComfortaa;fontStyle=0;fontSize=20;" vertex="1" parent="1">
          <mxGeometry x="1000" y="2151" width="380" height="160" as="geometry" />
        </mxCell>
        <mxCell id="vaTgJTLyDpVTGSEm01bZ-57" style="edgeStyle=orthogonalEdgeStyle;rounded=0;orthogonalLoop=1;jettySize=auto;html=1;fontFamily=Comfortaa;fontSource=https%3A%2F%2Ffonts.googleapis.com%2Fcss%3Ffamily%3DComfortaa;fontSize=30;" edge="1" parent="1" source="vaTgJTLyDpVTGSEm01bZ-49" target="vaTgJTLyDpVTGSEm01bZ-56">
          <mxGeometry relative="1" as="geometry" />
        </mxCell>
        <mxCell id="vaTgJTLyDpVTGSEm01bZ-49" value="If you miss a workout than what, just train that day workout on another day. Don&#39;t overthinking that will affect anything. In the long run, it just the same" style="rounded=0;whiteSpace=wrap;html=1;fontFamily=Comfortaa;fontSource=https%3A%2F%2Ffonts.googleapis.com%2Fcss%3Ffamily%3DComfortaa;fontStyle=0;fontSize=20;" vertex="1" parent="1">
          <mxGeometry x="1020" y="2381" width="470" height="210" as="geometry" />
        </mxCell>
        <mxCell id="vaTgJTLyDpVTGSEm01bZ-53" value="If you train Monday, Thursday, Friday. Then Monday, Thursday, Saturday. It&#39;s unlikely to be a big deal" style="rounded=0;whiteSpace=wrap;html=1;fontFamily=Comfortaa;fontSource=https%3A%2F%2Ffonts.googleapis.com%2Fcss%3Ffamily%3DComfortaa;fontStyle=0;fontSize=20;" vertex="1" parent="1">
          <mxGeometry x="990" y="2651" width="470" height="210" as="geometry" />
        </mxCell>
        <mxCell id="vaTgJTLyDpVTGSEm01bZ-56" value="If you prepare for the competition it can be a problem" style="ellipse;whiteSpace=wrap;html=1;fontFamily=Comfortaa;fontSource=https%3A%2F%2Ffonts.googleapis.com%2Fcss%3Ffamily%3DComfortaa;fontSize=30;" vertex="1" parent="1">
          <mxGeometry x="1820" y="2386" width="290" height="200" as="geometry" />
        </mxCell>
        <mxCell id="vaTgJTLyDpVTGSEm01bZ-63" style="edgeStyle=orthogonalEdgeStyle;rounded=0;orthogonalLoop=1;jettySize=auto;html=1;fontFamily=Comfortaa;fontSource=https%3A%2F%2Ffonts.googleapis.com%2Fcss%3Ffamily%3DComfortaa;fontSize=20;" edge="1" parent="1" source="vaTgJTLyDpVTGSEm01bZ-59" target="vaTgJTLyDpVTGSEm01bZ-62">
          <mxGeometry relative="1" as="geometry" />
        </mxCell>
        <mxCell id="vaTgJTLyDpVTGSEm01bZ-65" style="edgeStyle=orthogonalEdgeStyle;rounded=0;orthogonalLoop=1;jettySize=auto;html=1;fontFamily=Comfortaa;fontSource=https%3A%2F%2Ffonts.googleapis.com%2Fcss%3Ffamily%3DComfortaa;fontSize=20;" edge="1" parent="1" source="vaTgJTLyDpVTGSEm01bZ-59" target="vaTgJTLyDpVTGSEm01bZ-64">
          <mxGeometry relative="1" as="geometry" />
        </mxCell>
        <mxCell id="vaTgJTLyDpVTGSEm01bZ-59" value="Priority, don&#39;t take seriously 2 program from 2 sport" style="rounded=0;whiteSpace=wrap;html=1;fontFamily=Comfortaa;fontSource=https%3A%2F%2Ffonts.googleapis.com%2Fcss%3Ffamily%3DComfortaa;fontStyle=0;fontSize=20;" vertex="1" parent="1">
          <mxGeometry x="-640.0000000000001" y="3260" width="317.95" height="140" as="geometry" />
        </mxCell>
        <mxCell id="vaTgJTLyDpVTGSEm01bZ-62" value="If you are a footballer, take the gym to improve your physical" style="ellipse;whiteSpace=wrap;html=1;fontFamily=Comfortaa;fontSource=https%3A%2F%2Ffonts.googleapis.com%2Fcss%3Ffamily%3DComfortaa;fontSize=20;rounded=0;fontStyle=0;" vertex="1" parent="1">
          <mxGeometry x="-1100" y="3000" width="290" height="200" as="geometry" />
        </mxCell>
        <mxCell id="vaTgJTLyDpVTGSEm01bZ-64" value="If you are a lifter, play other sports / outside activities for fun and also make you reduce stress." style="ellipse;whiteSpace=wrap;html=1;fontFamily=Comfortaa;fontSource=https%3A%2F%2Ffonts.googleapis.com%2Fcss%3Ffamily%3DComfortaa;fontSize=20;rounded=0;fontStyle=0;" vertex="1" parent="1">
          <mxGeometry x="-1100" y="3450" width="290" height="200" as="geometry" />
        </mxCell>
        <mxCell id="vaTgJTLyDpVTGSEm01bZ-69" style="edgeStyle=orthogonalEdgeStyle;rounded=0;orthogonalLoop=1;jettySize=auto;html=1;fontFamily=Comfortaa;fontSource=https%3A%2F%2Ffonts.googleapis.com%2Fcss%3Ffamily%3DComfortaa;fontSize=20;" edge="1" parent="1" source="vaTgJTLyDpVTGSEm01bZ-66" target="vaTgJTLyDpVTGSEm01bZ-67">
          <mxGeometry relative="1" as="geometry" />
        </mxCell>
        <mxCell id="vaTgJTLyDpVTGSEm01bZ-66" value="Avoid interference effect" style="rounded=0;whiteSpace=wrap;html=1;fontFamily=Comfortaa;fontSource=https%3A%2F%2Ffonts.googleapis.com%2Fcss%3Ffamily%3DComfortaa;fontStyle=0;fontSize=20;" vertex="1" parent="1">
          <mxGeometry x="-313.97000000000014" y="3540" width="317.95" height="140" as="geometry" />
        </mxCell>
        <mxCell id="vaTgJTLyDpVTGSEm01bZ-67" value="Cardio after lifting or another time of the same day." style="ellipse;whiteSpace=wrap;html=1;fontFamily=Comfortaa;fontSource=https%3A%2F%2Ffonts.googleapis.com%2Fcss%3Ffamily%3DComfortaa;fontSize=20;rounded=0;fontStyle=0;" vertex="1" parent="1">
          <mxGeometry x="-300.0000000000001" y="3810" width="290" height="200" as="geometry" />
        </mxCell>
        <mxCell id="vaTgJTLyDpVTGSEm01bZ-72" style="edgeStyle=orthogonalEdgeStyle;rounded=0;orthogonalLoop=1;jettySize=auto;html=1;fontFamily=Comfortaa;fontSource=https%3A%2F%2Ffonts.googleapis.com%2Fcss%3Ffamily%3DComfortaa;fontSize=20;" edge="1" parent="1" source="vaTgJTLyDpVTGSEm01bZ-71" target="vaTgJTLyDpVTGSEm01bZ-59">
          <mxGeometry relative="1" as="geometry" />
        </mxCell>
        <mxCell id="vaTgJTLyDpVTGSEm01bZ-73" style="edgeStyle=orthogonalEdgeStyle;rounded=0;orthogonalLoop=1;jettySize=auto;html=1;fontFamily=Comfortaa;fontSource=https%3A%2F%2Ffonts.googleapis.com%2Fcss%3Ffamily%3DComfortaa;fontSize=20;" edge="1" parent="1" source="vaTgJTLyDpVTGSEm01bZ-71" target="vaTgJTLyDpVTGSEm01bZ-66">
          <mxGeometry relative="1" as="geometry" />
        </mxCell>
        <mxCell id="vaTgJTLyDpVTGSEm01bZ-71" value="&lt;span style=&quot;color: rgb(0, 0, 0); font-family: comfortaa; font-size: 30px; font-style: normal; font-weight: 700; letter-spacing: normal; text-align: center; text-indent: 0px; text-transform: none; word-spacing: 0px; background-color: rgb(248, 249, 250); display: inline; float: none;&quot;&gt;Play others sport / acitivities outside of bodybuilding&lt;/span&gt;" style="rounded=1;whiteSpace=wrap;html=1;fontFamily=Comfortaa;fontSource=https%3A%2F%2Ffonts.googleapis.com%2Fcss%3Ffamily%3DComfortaa;fontSize=20;" vertex="1" parent="1">
          <mxGeometry x="-300" y="2610" width="290" height="160" as="geometry" />
        </mxCell>
        <mxCell id="vaTgJTLyDpVTGSEm01bZ-77" style="edgeStyle=orthogonalEdgeStyle;rounded=0;orthogonalLoop=1;jettySize=auto;html=1;fontFamily=Comfortaa;fontSource=https%3A%2F%2Ffonts.googleapis.com%2Fcss%3Ffamily%3DComfortaa;fontSize=20;" edge="1" parent="1" source="vaTgJTLyDpVTGSEm01bZ-74" target="vaTgJTLyDpVTGSEm01bZ-76">
          <mxGeometry relative="1" as="geometry" />
        </mxCell>
        <mxCell id="vaTgJTLyDpVTGSEm01bZ-74" value="&lt;span style=&quot;color: rgb(0 , 0 , 0) ; font-family: &amp;#34;comfortaa&amp;#34; ; font-size: 30px ; font-style: normal ; font-weight: 700 ; letter-spacing: normal ; text-align: center ; text-indent: 0px ; text-transform: none ; word-spacing: 0px ; background-color: rgb(248 , 249 , 250) ; display: inline ; float: none&quot;&gt;Injuries&lt;/span&gt;" style="rounded=1;whiteSpace=wrap;html=1;fontFamily=Comfortaa;fontSource=https%3A%2F%2Ffonts.googleapis.com%2Fcss%3Ffamily%3DComfortaa;fontSize=20;direction=south;" vertex="1" parent="1">
          <mxGeometry x="409.99999999999994" y="2915" width="160" height="290" as="geometry" />
        </mxCell>
        <mxCell id="vaTgJTLyDpVTGSEm01bZ-79" style="edgeStyle=orthogonalEdgeStyle;rounded=0;orthogonalLoop=1;jettySize=auto;html=1;fontFamily=Comfortaa;fontSource=https%3A%2F%2Ffonts.googleapis.com%2Fcss%3Ffamily%3DComfortaa;fontSize=20;" edge="1" parent="1" source="vaTgJTLyDpVTGSEm01bZ-76" target="vaTgJTLyDpVTGSEm01bZ-78">
          <mxGeometry relative="1" as="geometry" />
        </mxCell>
        <mxCell id="vaTgJTLyDpVTGSEm01bZ-76" value="If it hurt, don&#39;t do it" style="rounded=0;whiteSpace=wrap;html=1;fontFamily=Comfortaa;fontSource=https%3A%2F%2Ffonts.googleapis.com%2Fcss%3Ffamily%3DComfortaa;fontStyle=0;fontSize=20;" vertex="1" parent="1">
          <mxGeometry x="290" y="3380" width="230" height="110" as="geometry" />
        </mxCell>
        <mxCell id="vaTgJTLyDpVTGSEm01bZ-78" value="Replace it with something pain-free" style="ellipse;whiteSpace=wrap;html=1;fontFamily=Comfortaa;fontSource=https%3A%2F%2Ffonts.googleapis.com%2Fcss%3Ffamily%3DComfortaa;fontSize=20;rounded=0;fontStyle=0;" vertex="1" parent="1">
          <mxGeometry x="259.9999999999999" y="3640" width="290" height="200" as="geometry" />
        </mxCell>
      </root>
    </mxGraphModel>
  </diagram>
</mxfile>
